<?xml version="1.0" standalone="no"?>
<!DOCTYPE svg PUBLIC "-//W3C//DTD SVG 1.1//EN" "http://www.w3.org/Graphics/SVG/1.1/DTD/svg11.dtd" >
<svg xmlns="http://www.w3.org/2000/svg" xmlns:xlink="http://www.w3.org/1999/xlink" version="1.1">
<metadata></metadata>
<defs>
<font id="hk_groteskmedium" horiz-adv-x="1240" >
<font-face units-per-em="2048" ascent="1434" descent="-614" />
<missing-glyph horiz-adv-x="549" />
<glyph horiz-adv-x="0" />
<glyph horiz-adv-x="682" />
<glyph unicode=" "  horiz-adv-x="549" />
<glyph unicode="&#x09;" horiz-adv-x="549" />
<glyph unicode="&#xa0;" horiz-adv-x="549" />
<glyph unicode="!" horiz-adv-x="669" d="M258 427l-31 1093h216l-30 -1093h-155zM214 0v241h243v-241h-243z" />
<glyph unicode="&#x22;" horiz-adv-x="986" d="M233 985v513h178v-513h-178zM576 985v513h178v-513h-178z" />
<glyph unicode="#" horiz-adv-x="1457" d="M254 0l96 453h-251v148h283l64 318h-260v152h291l101 449h163l-102 -463h305l98 463h163l-98 -453h251v-148h-282l-65 -318h260v-151h-292l-97 -450h-162l97 462h-305l-95 -462h-163zM544 601h305l64 318h-305z" />
<glyph unicode="$" horiz-adv-x="1189" d="M514 -261v248q-83 12 -156 44t-133 82.5t-101 123.5t-55 161l208 50q10 -87 58 -149t119 -91t159 -29q130 0 203 59t73 178q0 48 -20 88.5t-54.5 69t-80.5 55.5t-98 48t-107 46t-107 49.5t-98 59.5t-80.5 75.5t-54.5 97t-20 123.5q0 77 26.5 144.5t74 116t110 80.5 t134.5 45v245h160v-241q248 -31 362 -241l-171 -106q-42 80 -112 120t-153 40q-90 0 -153 -53t-63 -136q0 -51 24.5 -91.5t66 -70t96 -55.5t114 -50.5t119.5 -52t114 -64t95.5 -81t66.5 -109t25 -143.5q0 -63 -15.5 -120t-43 -103.5t-66.5 -85.5t-86.5 -66.5t-103 -44.5 t-116.5 -22v-244h-160z" />
<glyph unicode="%" horiz-adv-x="1652" d="M392 834q-62 0 -112 23t-81 58.5t-51.5 82.5t-29 91.5t-8.5 88.5t8 88.5t28.5 91.5t50.5 83t79 58.5t110 22.5q56 0 103 -20.5t79 -54.5t54.5 -79t33 -93.5t10.5 -98.5q0 -41 -7.5 -81.5t-21.5 -78.5t-37 -71t-52.5 -58t-69.5 -39t-86 -14zM321 -8l817 1523h180 l-818 -1523h-179zM389 976q31 0 55.5 17.5t39 47t22.5 64.5t8 73q0 52 -13.5 96.5t-43.5 74t-71 29.5q-26 0 -47.5 -11t-36 -30.5t-25 -45t-15 -54.5t-4.5 -59q0 -53 13 -97.5t44 -74.5t74 -30zM1269 -3q-45 0 -83.5 12t-67 32t-51 48t-37 59t-24.5 65t-14 65.5t-4 62.5 q0 45 8 90t28 92t50.5 82.5t79 58.5t108.5 23q57 0 104 -20.5t79.5 -54.5t55 -79t32.5 -94t10 -99t-10 -98t-32 -92.5t-53.5 -78.5t-77.5 -54t-101 -20zM1267 138q40 0 69 31t42.5 76.5t13.5 96.5q0 31 -5 60t-15.5 55t-25.5 45t-36.5 30.5t-47.5 11.5q-31 0 -55.5 -17.5 t-40 -46t-23.5 -64.5t-8 -75q0 -53 13 -97.5t44 -75t75 -30.5z" />
<glyph unicode="&#x26;" horiz-adv-x="1461" d="M1375 56l-141 -124l-202 234q-90 -90 -207.5 -139.5t-255.5 -49.5q-96 0 -179 23t-145 67t-98 112.5t-36 154.5q0 56 13.5 107t40 94.5t57.5 80.5t75 73t82.5 62.5t90.5 58.5q-37 42 -62 74t-58.5 83.5t-51 105t-17.5 105.5q0 77 32.5 141.5t86.5 107t123.5 66 t144.5 23.5q99 0 183 -44t132.5 -121.5t48.5 -171.5q0 -66 -22 -124.5t-64 -108.5t-88.5 -89t-110.5 -81l266 -305q49 118 58 265l193 -22q-15 -220 -117 -397zM472 1174q0 -101 149 -273q54 34 91 62t71.5 62.5t51.5 72t17 79.5q0 73 -51.5 124t-130.5 51 q-81 0 -139.5 -47.5t-58.5 -130.5zM567 155q212 0 346 150l-320 372q-54 -34 -91 -59.5t-78 -60.5t-65 -67.5t-40.5 -73t-16.5 -83.5q0 -60 37 -101.5t95 -59t133 -17.5z" />
<glyph unicode="'" horiz-adv-x="644" d="M233 1015v514h178v-514h-178z" />
<glyph unicode="(" horiz-adv-x="599" d="M378 -80q-77 84 -137 228t-89.5 300.5t-29.5 299.5q0 252 66 468.5t187 357.5h181q-270 -344 -270 -830q0 -247 66 -446t202 -378h-176z" />
<glyph unicode=")" horiz-adv-x="599" d="M46 -80q135 179 201.5 380t66.5 445q0 233 -69 446t-202 383h181q122 -140 188 -354t66 -471q0 -144 -30 -301.5t-89.5 -301.5t-136.5 -226h-176z" />
<glyph unicode="*" horiz-adv-x="937" d="M343 893l-130 89l176 190l-253 39l51 146l233 -97l-32 238h161l-32 -238l233 97l50 -146l-253 -39l176 -190l-130 -89l-126 234z" />
<glyph unicode="+" horiz-adv-x="1334" d="M589 112v473h-483v156h483v471h156v-471h485v-156h-485v-473h-156z" />
<glyph unicode="," horiz-adv-x="664" d="M140 -334l147 614h249l-264 -614h-132z" />
<glyph unicode="-" horiz-adv-x="901" d="M161 578v156h579v-156h-579z" />
<glyph unicode="." horiz-adv-x="694" d="M230 0v241h234v-241h-234z" />
<glyph unicode="/" horiz-adv-x="985" d="M-13 -456l813 2063h199l-811 -2063h-201z" />
<glyph unicode="0" d="M631 -21q-80 0 -151 19.5t-125.5 55t-100.5 83t-78.5 105.5t-57.5 120t-39.5 129.5t-21.5 131t-7 126.5q0 73 8.5 146.5t28.5 150.5t50.5 145.5t76 129.5t102.5 105.5t134 70t166 25.5q113 0 209.5 -44t163.5 -119t114 -174.5t69.5 -210.5t22.5 -228q0 -115 -22 -225 t-68 -208.5t-111.5 -172.5t-159 -117.5t-203.5 -43.5zM624 179q62 0 114.5 25t89.5 69t65 100t45 121.5t25 129.5t8 128q0 79 -11.5 155.5t-38.5 151.5t-66.5 131.5t-101.5 91.5t-137 35q-55 0 -102 -18.5t-82.5 -50t-64.5 -75.5t-48.5 -94t-32.5 -106.5t-18.5 -112 t-5.5 -111.5q0 -48 4.5 -96.5t14 -98.5t25 -96t36 -88t49.5 -76.5t63 -60.5t77.5 -40t92.5 -14z" />
<glyph unicode="1" d="M603 0v1124h-397v166h236q55 0 94.5 21.5t59.5 60t20 91.5v35h200v-1498h-213z" />
<glyph unicode="2" d="M69 0v179q325 210 526 411q62 64 106 119t81.5 115.5t56.5 122.5t19 126q0 77 -28 133.5t-81.5 87.5t-127.5 31q-69 0 -122.5 -27t-87 -74.5t-51.5 -108t-22 -133.5l-211 17q0 110 34.5 205.5t96.5 165t154.5 109t204.5 39.5q204 0 332 -121.5t128 -313.5q0 -84 -26 -167 t-75.5 -162.5t-109 -150.5t-139.5 -149q-100 -99 -175.5 -157.5t-152.5 -106.5h751v-190h-1081z" />
<glyph unicode="3" d="M600 -21q-87 0 -165.5 18t-145.5 56t-115.5 93t-76 131.5t-27.5 168.5l201 16q0 -90 45.5 -157t119.5 -99.5t165 -32.5q63 0 120.5 17t103.5 50t73 86t27 120q0 122 -81.5 189.5t-212.5 67.5h-138v183h138q100 0 156 57t56 153q0 107 -70.5 167.5t-175.5 60.5 q-111 0 -182.5 -65.5t-73.5 -174.5l-199 18q0 97 36 177t97.5 132t143.5 80.5t176 28.5q72 0 139 -17t123.5 -51t99 -81t66 -111t23.5 -137q0 -96 -40 -178t-113 -134q77 -35 130 -93t77.5 -128.5t26.5 -153.5q0 -90 -27.5 -165t-76 -128.5t-115 -90.5t-144.5 -55t-164 -18z " />
<glyph unicode="4" d="M721 0v379h-692v125l717 994h186v-928h238v-191h-238v-379h-211zM296 570h425v599z" />
<glyph unicode="5" d="M615 -21q-97 0 -184 34t-152.5 92.5t-111.5 138t-65 169.5l196 60q9 -46 24 -87t41 -82t59.5 -70.5t82.5 -48t108 -18.5q47 0 90 13.5t76 37t59.5 55t44 68.5t26.5 77.5t9 81.5q0 63 -19.5 119.5t-56 100.5t-94 70t-128.5 26q-85 0 -161 -41t-120 -113l-191 65l138 771 h785v-194h-616l-69 -388q110 87 264 87q103 0 194 -40.5t155 -108.5t101 -160.5t37 -194.5q0 -103 -40.5 -199t-109.5 -166.5t-166.5 -112.5t-205.5 -42z" />
<glyph unicode="6" d="M624 -21q-106 0 -202 40t-165 107.5t-110 161t-41 196.5q0 146 76 263l442 751h243l-327 -527q50 7 85 7q106 0 201.5 -36.5t165.5 -100.5t111 -155t41 -195q0 -81 -25 -157.5t-71.5 -140.5t-109.5 -112t-144 -75t-170 -27zM625 177q84 0 156 42t113.5 114t41.5 156 q0 128 -91.5 219.5t-219.5 91.5t-219 -91t-91 -220q0 -51 15.5 -98.5t44.5 -85.5t67 -67t85.5 -45t97.5 -16z" />
<glyph unicode="7" d="M249 0l636 1305h-780v193h1036v-108l-654 -1390h-238z" />
<glyph unicode="8" d="M620 -21q-70 0 -135.5 12.5t-124.5 36t-107.5 61.5t-84 86t-55.5 111t-20 135q0 131 63.5 231t179.5 157q-54 36 -91 85t-56 107t-19 123q0 91 36.5 167.5t99 125.5t144 76t171.5 27t171 -27t143.5 -76.5t99.5 -125t37 -166.5q0 -99 -43.5 -180.5t-121.5 -135.5 q77 -38 130.5 -95.5t81.5 -131.5t28 -160q0 -87 -28 -160.5t-77.5 -125t-116 -87.5t-144 -53t-161.5 -17zM625 883q52 0 96 15.5t77 44t51.5 71.5t18.5 96q0 72 -33 125t-87.5 79t-123.5 26q-64 0 -118.5 -24t-89.5 -75.5t-35 -121.5q0 -107 67 -171.5t177 -64.5zM619 159 q64 0 120 17.5t100 50.5t69.5 86.5t25.5 120.5q0 86 -43 149.5t-113.5 94.5t-158.5 31q-89 0 -160 -31t-113.5 -94t-42.5 -149q0 -46 12 -85.5t33.5 -69t50.5 -53t64.5 -38.5t74.5 -22.5t81 -7.5z" />
<glyph unicode="9" d="M376 0l325 527q-49 -8 -86 -8q-106 0 -201.5 37t-165 101t-111 155t-41.5 195q0 101 39.5 194.5t107 164t165.5 112.5t209 42q106 0 202 -40t165 -108t109.5 -161.5t40.5 -197.5q0 -143 -74 -261l-444 -752h-240zM615 697q63 0 121 25t99.5 67t66 99.5t24.5 120.5 q0 85 -41.5 157t-113 114t-156.5 42q-128 0 -219 -92t-91 -221t91 -220.5t219 -91.5z" />
<glyph unicode=":" horiz-adv-x="713" d="M235 772v239h243v-239h-243zM235 0v241h243v-241h-243z" />
<glyph unicode=";" horiz-adv-x="695" d="M242 772v239h242v-239h-242zM125 -334l147 614h250l-264 -614h-133z" />
<glyph unicode="&#x3c;" horiz-adv-x="1296" d="M1075 171l-994 543l994 543l90 -155l-748 -388l748 -389z" />
<glyph unicode="=" horiz-adv-x="1340" d="M251 810v179h840v-179h-840zM251 435v180h840v-180h-840z" />
<glyph unicode="&#x3e;" horiz-adv-x="1296" d="M222 171l-91 154l749 389l-749 388l91 155l995 -543z" />
<glyph unicode="?" horiz-adv-x="1070" d="M437 423v200q0 67 19.5 116t50.5 78t69 52t75.5 43.5t69 45t51 66t19.5 96.5q0 112 -72.5 168t-192.5 56q-122 0 -192 -66t-71 -187h-189q1 131 59 229.5t158 149t226 50.5q94 0 177 -26.5t146.5 -76t100 -127.5t36.5 -174q0 -59 -12 -108.5t-33 -83.5t-48 -61.5t-57 -47 t-60 -36.5t-57 -33t-47.5 -33t-33 -40.5t-12.5 -51.5v-198h-180zM409 0v241h243v-241h-243z" />
<glyph unicode="@" horiz-adv-x="2164" d="M1074 -369q-154 0 -295 40t-258.5 119t-204 188.5t-134.5 256t-48 314.5q0 135 31 260.5t89 232t144 195t191 151t233.5 96.5t270.5 34q141 0 268.5 -33.5t230.5 -94.5t186.5 -146.5t140 -188.5t86.5 -222.5t30 -246.5q0 -99 -18 -192.5t-56.5 -178t-94 -147 t-136.5 -99.5t-177 -37q-140 0 -216.5 72.5t-72.5 199.5q-64 -70 -149.5 -108t-175.5 -38q-84 0 -151 33.5t-108 91t-62.5 130.5t-21.5 157q0 85 21 174.5t64.5 173t102 149t140.5 105.5t173 40q102 0 177 -47.5t104 -126.5l24 122h183q-14 -73 -57.5 -248t-72 -320.5 t-28.5 -237.5q0 -76 25.5 -106t92.5 -30q50 0 92.5 15t74 41t57 62.5t42.5 78t28.5 88.5t16 93t4.5 93q0 89 -17.5 173t-52 159t-83 140.5t-113.5 117.5t-141 89.5t-167.5 57.5t-190.5 20q-101 0 -194 -20.5t-171 -59t-144.5 -93t-117.5 -122.5t-86.5 -147t-53.5 -168 t-18 -183q0 -139 39.5 -258.5t110.5 -207t167 -150t210 -94t239 -31.5q128 0 261 42l62 -168q-154 -55 -325 -55zM957 238q69 0 128.5 30t101 78.5t71.5 110.5t44.5 127t14.5 126q0 221 -191 221q-69 0 -129 -29.5t-101.5 -77.5t-72 -109.5t-45 -126t-14.5 -125.5 q0 -107 48 -166t145 -59z" />
<glyph unicode="A" horiz-adv-x="1402" d="M41 0l580 1498h163l577 -1498h-232l-115 325h-622l-115 -325h-236zM464 515h477l-237 666z" />
<glyph unicode="B" horiz-adv-x="1332" d="M210 0v1498h463q73 0 140 -12.5t130 -42t109 -73t73.5 -110t27.5 -148.5q0 -74 -25.5 -137.5t-64.5 -106t-91 -72.5q114 -48 184 -148.5t70 -231.5q0 -71 -18.5 -131.5t-51.5 -105t-78 -79.5t-99 -56.5t-113 -32.5t-121 -11h-535zM424 865h262q54 0 99 12t81.5 38 t57 71.5t20.5 106.5q0 57 -20.5 99t-58.5 66t-84.5 35t-104.5 11h-252v-439zM424 202h325q59 0 105.5 12.5t83 39t56.5 72.5t20 109q0 118 -74.5 179.5t-193.5 61.5h-322v-474z" />
<glyph unicode="C" horiz-adv-x="1510" d="M806 -21q-139 0 -254 40t-195.5 111t-136.5 169t-82.5 211.5t-26.5 239.5q0 90 13.5 173t41 160.5t68.5 144t99 121t128 93t159.5 59.5t191.5 21q219 0 380 -104t244 -309l-199 -83q-22 79 -65 137t-101 91t-123.5 49t-140.5 16q-100 0 -181.5 -30t-137 -81t-93 -123 t-54.5 -153.5t-17 -174.5q0 -97 17.5 -181t55 -157.5t93.5 -125.5t138 -82t183 -30q74 0 137 16t118 50t99 92t75 138l198 -84q-86 -200 -249.5 -307t-382.5 -107z" />
<glyph unicode="D" horiz-adv-x="1491" d="M210 0v1498h406q373 0 569.5 -196t196.5 -564q0 -353 -199.5 -545.5t-568.5 -192.5h-404zM425 197h163q104 0 191 19.5t159.5 62t123 106t78 156t27.5 208.5q0 281 -134.5 417t-420.5 136h-187v-1105z" />
<glyph unicode="E" horiz-adv-x="1316" d="M210 0v1498h982v-193h-767v-460h688v-191h-688v-454h767v-200h-982z" />
<glyph unicode="F" horiz-adv-x="1286" d="M210 0v1498h1008v-193h-793v-460h700v-191h-700v-654h-215z" />
<glyph unicode="G" horiz-adv-x="1612" d="M808 -21q-139 0 -255 40.5t-196.5 111.5t-136.5 168.5t-82.5 210.5t-26.5 239q0 90 13.5 173.5t41.5 161t69 144t98.5 121t127 93t157.5 59.5t188 21q144 0 264.5 -47t213.5 -139.5t151 -226.5l-193 -83q-59 149 -172 225.5t-267 76.5q-98 0 -178.5 -30.5t-135.5 -83 t-92.5 -125t-55 -155t-17.5 -174.5q0 -97 17.5 -183t55 -160.5t93 -127.5t137 -83.5t181.5 -30.5q50 0 98 9.5t91 28.5t81 46.5t69 64t54 80t37 96t18 111.5h-342v171h548v-782h-174l-12 244q-55 -116 -179 -190.5t-289 -74.5z" />
<glyph unicode="H" horiz-adv-x="1560" d="M210 0v1498h215v-653h709v653h216v-1498h-216v654h-709v-654h-215z" />
<glyph unicode="I" horiz-adv-x="634" d="M210 0v1498h215v-1498h-215z" />
<glyph unicode="J" horiz-adv-x="1195" d="M533 -21q-105 0 -193 36.5t-147.5 100t-95 147t-42.5 179.5l212 25q4 -59 21.5 -109.5t48 -92.5t81 -66t115.5 -24q47 0 84.5 9t65 24.5t47.5 40t33 52.5t21 65t11 74.5t3 84.5v780h-565v193h780v-962q0 -100 -16 -183.5t-52.5 -153.5t-92 -118t-136 -75t-183.5 -27z" />
<glyph unicode="K" horiz-adv-x="1558" d="M210 0v1498h215v-833l782 833h284l-582 -601l606 -897h-264l-489 750l-337 -348v-402h-215z" />
<glyph unicode="L" horiz-adv-x="1111" d="M210 0v1498h215v-1298h641v-200h-856z" />
<glyph unicode="M" horiz-adv-x="1885" d="M210 0v1498h316l415 -1139l419 1139h316v-1498h-210v1243l-413 -1113h-220l-413 1113v-1243h-210z" />
<glyph unicode="N" horiz-adv-x="1521" d="M210 0v1498h254l637 -1193v1193h210v-1498h-257l-634 1195v-1195h-210z" />
<glyph unicode="O" horiz-adv-x="1612" d="M806 -21q-116 0 -216 28t-175.5 80t-134 122.5t-95.5 157t-56 182.5t-19 200t19 200.5t56 182.5t95.5 157t134 122.5t175.5 80t216 28.5q138 0 253.5 -40.5t196.5 -112t137 -169t82.5 -210.5t26.5 -239q0 -125 -26.5 -238t-82.5 -211t-137 -169t-196.5 -111.5 t-253.5 -40.5zM806 173q100 0 181 31t135.5 84.5t91 127.5t53 157t16.5 176q0 94 -16.5 176.5t-53 156.5t-91 127.5t-135.5 84.5t-181 31t-181 -31t-135 -84.5t-90.5 -127.5t-52.5 -156.5t-16 -176.5q0 -93 16 -176t52.5 -157t90.5 -127.5t135 -84.5t181 -31z" />
<glyph unicode="P" horiz-adv-x="1226" d="M210 0v1498h443q149 0 262 -50t176.5 -147.5t63.5 -229.5q0 -133 -63.5 -229t-176 -143.5t-262.5 -47.5h-229v-651h-214zM424 848h229q289 0 289 223q0 110 -73.5 170t-215.5 60h-229v-453z" />
<glyph unicode="Q" horiz-adv-x="1651" d="M1420 -113l-208 213q-162 -121 -406 -121q-116 0 -216 28t-175.5 80t-134 122.5t-95.5 157t-56 182.5t-19 200t19 200.5t56 182.5t95.5 157t134 122.5t175.5 80t216 28.5t216 -28.5t175.5 -80t134 -122.5t95.5 -157.5t56 -183t19 -201.5q0 -151 -40 -287t-117 -236 l211 -207zM806 179q150 0 254 66l-208 202l134 130l206 -202q95 152 95 374q0 93 -17 175.5t-54 155.5t-92 125.5t-136.5 83t-181.5 30.5q-72 0 -134.5 -16t-111 -44.5t-87.5 -69t-66.5 -89t-46 -106t-27 -118.5t-8.5 -127q0 -93 17 -175.5t54 -155.5t92 -125.5t136.5 -83 t181.5 -30.5z" />
<glyph unicode="R" horiz-adv-x="1316" d="M210 -2v1499h455q102 0 191.5 -29.5t156.5 -83.5t106 -135t39 -179q0 -145 -84.5 -248.5t-223.5 -140.5l411 -683h-249l-372 658h-215v-658h-215zM427 842h263q117 5 185.5 64t68.5 161q0 74 -34.5 128t-97 82t-145.5 28h-240v-463z" />
<glyph unicode="S" horiz-adv-x="1190" d="M613 -17q-97 0 -186.5 26.5t-164 77.5t-126 132t-67.5 183l209 56q9 -94 58.5 -159.5t120.5 -94.5t158 -29q129 0 203.5 61t74.5 170q0 47 -19.5 87.5t-44 67t-75.5 56t-84 44.5t-100 43q-48 20 -73 31t-70 32.5t-69.5 39t-59.5 43t-54 52.5t-39 61t-28 74.5t-8 87.5 q0 90 34.5 165t94 125t138 77.5t167.5 27.5q139 0 251 -61.5t184 -185.5l-172 -109q-28 54 -70.5 92t-92.5 56t-105 18q-58 0 -107 -23t-79 -67.5t-30 -101.5q0 -44 20 -81.5t54.5 -64.5t81 -52.5t98.5 -45.5t107 -45.5t107 -51t98.5 -62t81 -79t55 -102t20.5 -130.5 q0 -132 -66 -233.5t-177 -154.5t-249 -53z" />
<glyph unicode="T" horiz-adv-x="1280" d="M532 0v1311h-489v187h1194v-187h-489v-1311h-216z" />
<glyph unicode="U" horiz-adv-x="1447" d="M723 -21q-113 0 -204.5 29t-154.5 81.5t-105 126.5t-61.5 161t-19.5 189v932h215v-893q0 -78 9.5 -140t32.5 -115.5t60.5 -88.5t94.5 -55t133 -20q54 0 99 10t79 29t60.5 47t44 62.5t28.5 78t16 90.5t5 102v893h216v-921q0 -105 -19.5 -194.5t-62.5 -164.5t-106.5 -128 t-155 -82t-204.5 -29z" />
<glyph unicode="V" horiz-adv-x="1412" d="M622 0l-581 1498h234l434 -1175l433 1175h230l-578 -1498h-172z" />
<glyph unicode="W" horiz-adv-x="2106" d="M489 0l-435 1498h223l338 -1203l354 1116h169l354 -1116l338 1203h223l-434 -1498h-221l-343 1067l-347 -1067h-219z" />
<glyph unicode="X" horiz-adv-x="1376" d="M53 0l498 749l-496 749h257l377 -600l378 600h255l-494 -749l496 -749h-254l-383 590l-377 -590h-257z" />
<glyph unicode="Y" horiz-adv-x="1396" d="M589 0v585l-560 913h256l411 -701l414 701h257l-558 -913v-585h-220z" />
<glyph unicode="Z" horiz-adv-x="1349" d="M78 0v157l896 1148h-848v193h1131v-165l-891 -1138h891v-195h-1179z" />
<glyph unicode="[" horiz-adv-x="675" d="M202 -134v1762h419v-131h-250v-1497h250v-134h-419z" />
<glyph unicode="\" horiz-adv-x="985" d="M800 -456l-813 2063h201l811 -2063h-199z" />
<glyph unicode="]" horiz-adv-x="675" d="M54 -134v134h250v1497h-250v131h419v-1762h-419z" />
<glyph unicode="^" horiz-adv-x="1036" d="M102 872l415 677l419 -677h-210l-209 339l-206 -339h-209z" />
<glyph unicode="_" horiz-adv-x="1315" d="M227 -156v156h862v-156h-862z" />
<glyph unicode="`" horiz-adv-x="566" d="M336 1180l-298 318h238l234 -318h-174z" />
<glyph unicode="a" horiz-adv-x="1104" d="M434 -21q-160 0 -261.5 88.5t-101.5 242.5q0 308 445 308h258q0 132 -58 208t-179 76q-93 0 -161 -44t-111 -111l-154 115q158 219 421 219q205 0 320 -118.5t115 -315.5v-647h-171l-11 179q-114 -200 -351 -200zM460 153q54 0 103 17.5t86.5 48.5t65.5 71t43 85.5 t16 90.5h-243q-83 0 -138.5 -18.5t-83 -55t-27.5 -89.5q0 -49 23 -83t62.5 -50.5t92.5 -16.5z" />
<glyph unicode="b" horiz-adv-x="1219" d="M694 -21q-100 0 -181 38t-135 110v-127h-208v1498h208v-565q27 35 60.5 62.5t73 46.5t85 29t95.5 10q105 0 189.5 -44t139 -119.5t83.5 -175t29 -212.5t-29 -212t-83 -175t-138.5 -120t-188.5 -44zM642.5 162q71.5 0 127 29.5t89.5 81t51.5 116.5t17.5 141 q0 75 -17.5 140.5t-51.5 117.5t-89.5 82t-127 30t-127 -30t-89 -81.5t-50.5 -117t-17 -141.5t17 -141.5t50.5 -116.5t89 -80.5t127 -29.5z" />
<glyph unicode="c" horiz-adv-x="1047" d="M565 -21q-95 0 -175 29.5t-136 81.5t-96 122t-58.5 150t-18.5 166q0 85 18.5 165t58 151t95.5 123.5t135.5 83t174.5 30.5q100 0 184 -34t147.5 -100.5t101.5 -161.5l-194 -79q-11 43 -33.5 79t-53 61.5t-70 39.5t-82.5 14q-58 0 -105 -22t-78 -58t-52 -85t-30 -100.5 t-9 -106.5q0 -56 9 -107t29.5 -99.5t51.5 -84t78 -57t106 -21.5q87 0 151.5 52t87.5 138l183 -73q-50 -141 -160 -219t-260 -78z" />
<glyph unicode="d" horiz-adv-x="1217" d="M842 1498h206v-1498h-195l-6 132q-111 -153 -321 -153q-104 0 -188 44t-138.5 119.5t-84 175t-29.5 212.5q0 112 29.5 211.5t83.5 175.5t138 120t187 44q100 0 182 -38t136 -110v565zM578 159q72 0 127 29.5t88 81.5t49.5 117.5t16.5 142.5q0 76 -16.5 141.5t-49.5 117.5 t-88 81.5t-127 29.5t-127.5 -30t-89 -82t-50 -117t-16.5 -141t16.5 -142t50 -117.5t89 -81.5t127.5 -30z" />
<glyph unicode="e" horiz-adv-x="1114" d="M584 -18q-100 0 -183.5 29t-142.5 79.5t-100 119.5t-60.5 148.5t-19.5 166.5q0 85 19 164.5t58.5 150.5t96 123.5t137.5 83t177 30.5q103 0 185.5 -32t134.5 -83.5t86.5 -121t48.5 -141t14 -147.5q0 -56 -7 -90h-732q2 -42 11.5 -79.5t25.5 -71t40 -60t54.5 -46t70.5 -30 t86 -10.5q86 0 153 26t124 88l142 -120q-87 -91 -188 -134t-231 -43zM296 618h539q-3 62 -21 113.5t-50 91t-83 61.5t-116 22q-63 0 -113 -22.5t-82 -63t-50.5 -91t-23.5 -111.5z" />
<glyph unicode="f" horiz-adv-x="723" d="M222 0v888h-193v171h194v161q0 72 25 130t68 94.5t98.5 56t118.5 19.5q94 0 183 -42l-60 -167q-57 30 -105 30q-35 0 -61.5 -14t-43 -45.5t-16.5 -78.5v-144h278v-171h-278v-888h-208z" />
<glyph unicode="g" horiz-adv-x="1098" d="M596 151q42 -6 69.5 -10.5t67.5 -12.5t66 -16t59 -21.5t54.5 -28.5t44 -37t35 -48t21 -59.5t8.5 -73.5q0 -83 -35.5 -148.5t-97 -106t-141 -61.5t-170.5 -21q-108 0 -198 28t-150.5 77.5t-93.5 117t-33 145.5q0 24 3 43l133 129q-120 70 -120 213q0 119 88 195 q-89 102 -89 244q0 66 21 125.5t59 105.5t89.5 79t114 50.5t130.5 17.5q153 0 264 -83l159 141l111 -138l-163 -129q42 -80 42 -178q0 -112 -55 -198.5t-147.5 -131t-206.5 -44.5q-109 0 -200 42q-39 -26 -39 -69q0 -14 3 -27t12 -23.5t17 -19t24.5 -15.5t29 -12.5t35.5 -11 t38 -9t44 -7.5t45.5 -6.5t49.5 -6.5h2zM534 917q-95 0 -150.5 -62.5t-55.5 -155.5q0 -97 55 -156t151 -59q64 0 110.5 27t71 75.5t24.5 112.5q0 94 -55.5 156t-150.5 62zM584 -323q108 0 177.5 38.5t69.5 108.5q0 16 -4.5 30t-10.5 24.5t-19 20t-23.5 16t-32 13t-35.5 10 t-42 8.5t-44 7t-49 7q-9 1 -14 2t-13 2t-15 2q-99 14 -158 29l-90 -124q6 -85 88 -139.5t215 -54.5z" />
<glyph unicode="h" horiz-adv-x="1213" d="M170 0v1498h205v-590q38 55 92 94t113.5 58t121.5 19q77 0 140 -24t105.5 -64.5t72 -96.5t42.5 -118t13 -130v-646h-209v617q0 273 -209 273q-85 0 -150 -45t-98.5 -121t-33.5 -170v-554h-205z" />
<glyph unicode="i" horiz-adv-x="539" d="M159 1277v221h222v-221h-222zM167 0v1059h205v-1059h-205z" />
<glyph unicode="j" horiz-adv-x="545" d="M162 1282v216h225v-216h-225zM89 -464q-39 0 -88 10t-83 24l48 167q64 -21 109 -21q50 0 73 33.5t23 89.5v1220h207v-1198q0 -70 -17 -128t-51 -103t-90.5 -69.5t-130.5 -24.5z" />
<glyph unicode="k" horiz-adv-x="1145" d="M170 0v1498h205v-949l438 510h263l-370 -399l427 -660h-244l-317 529l-197 -218v-311h-205z" />
<glyph unicode="l" horiz-adv-x="576" d="M357 -21q-104 0 -149.5 57t-45.5 176v1286h206v-1272q0 -20 16.5 -42.5t51.5 -22.5q47 0 88 9v-170q-87 -21 -167 -21z" />
<glyph unicode="m" horiz-adv-x="1822" d="M167 0v1059h207v-139q41 75 116 118t163 43q107 0 187 -51t125 -154q55 101 142.5 153t196.5 52q78 0 141.5 -24t107.5 -65t73.5 -97.5t43 -120t13.5 -134.5v-640h-209v617q0 36 -3.5 68.5t-12 64.5t-24 58t-37 46.5t-53 31.5t-70.5 11q-57 0 -104.5 -26.5t-78 -70.5 t-47.5 -100t-17 -116v-584h-208v621q0 36 -3.5 68t-12 64t-23.5 57.5t-36 45t-52 30.5t-70 11q-57 0 -105 -28t-78.5 -75t-47.5 -105.5t-17 -122.5v-566h-207z" />
<glyph unicode="n" horiz-adv-x="1207" d="M167 0v1059h204v-156q57 85 143 130.5t185 45.5q76 0 139 -24t105 -65t70.5 -97t41 -119.5t12.5 -133.5v-640h-203v617q0 55 -12.5 103.5t-38 88.5t-70 63.5t-102.5 23.5q-122 0 -196 -84.5t-74 -247.5v-564h-204z" />
<glyph unicode="o" horiz-adv-x="1190" d="M594 -21q-115 0 -213 44t-165 119.5t-105 176.5t-38 213q0 89 24 172t69.5 151t108.5 119t145 79t174 28q114 0 212.5 -43.5t166 -118t105.5 -175t38 -212.5t-38 -213t-105.5 -176.5t-166 -119.5t-212.5 -44zM595 153q63 0 115 21t87.5 56.5t60 84.5t35.5 103.5t11 113.5 q0 75 -18 140.5t-54.5 119t-97.5 84t-139 30.5q-63 0 -115 -20t-88 -55.5t-60 -83t-35.5 -101.5t-11.5 -114q0 -49 8 -95.5t24 -89.5t42 -78t59.5 -61t78.5 -40.5t98 -14.5z" />
<glyph unicode="p" horiz-adv-x="1217" d="M170 -464v1523h206v-126q36 48 84 81t106 50t122 17q106 0 191 -43.5t140 -119.5t84 -175t29 -213q0 -90 -18 -171.5t-55 -151t-89 -120.5t-123.5 -79.5t-156.5 -28.5q-95 0 -177.5 37.5t-136.5 110.5v-591h-206zM640 162q72 0 127.5 29.5t89 80.5t50.5 116.5t17 141.5 t-17 141.5t-50.5 117.5t-89 82t-127 30t-127 -30t-89 -82t-50.5 -117.5t-17 -141.5q0 -61 10.5 -114.5t33 -100.5t55 -80.5t80 -53t104.5 -19.5z" />
<glyph unicode="q" horiz-adv-x="1217" d="M842 -464v591q-55 -71 -134 -109.5t-178 -38.5q-106 0 -191 43.5t-140 119.5t-84 175t-29 213q0 90 18 172t55 151t89 120t124 79.5t156 28.5q96 0 178 -38t136 -110v126h206v-1523h-206zM578 162q72 0 127 29t88 80.5t49.5 116.5t16.5 142q0 76 -16.5 141.5t-49.5 117.5 t-88 81.5t-127 29.5t-127.5 -30t-89 -81.5t-50 -117t-16.5 -141.5q0 -61 10 -114.5t32.5 -100.5t55 -80.5t80 -53t105.5 -19.5z" />
<glyph unicode="r" horiz-adv-x="853" d="M167 0v1059h202v-183q37 95 119.5 150t179.5 55q110 0 181 -64l-90 -173q-52 39 -123 39q-120 0 -194.5 -101.5t-74.5 -290.5v-491h-200z" />
<glyph unicode="s" horiz-adv-x="941" d="M473 -21q-153 0 -266.5 80t-152.5 199l168 78q13 -38 32.5 -70t48.5 -59.5t71 -43t93 -15.5q88 0 139.5 42.5t51.5 109.5q0 37 -18.5 65.5t-50.5 47t-73 33t-86.5 27.5t-91 28t-86.5 37.5t-72.5 52t-50.5 75.5t-19 105q0 74 29.5 134.5t80 98t115.5 57.5t138 20 q126 0 221.5 -58.5t151.5 -161.5l-156 -86q-74 143 -225 143q-73 0 -117.5 -34t-44.5 -87q0 -33 19 -57.5t51 -41t74 -30.5t88 -28t92 -30.5t87.5 -41.5t74 -57.5t51.5 -82t19 -111.5q0 -68 -22 -124.5t-59 -95.5t-87 -66t-105 -39.5t-113 -12.5z" />
<glyph unicode="t" horiz-adv-x="753" d="M499 -21q-144 0 -217.5 81.5t-73.5 225.5v602h-171v171h173v250l201 165v-415h268v-171h-268v-581q0 -78 35 -115t92 -37q61 0 127 33v-183q-26 -10 -71.5 -18t-94.5 -8z" />
<glyph unicode="u" horiz-adv-x="1208" d="M512 -22q-97 0 -169.5 36t-117.5 102t-66.5 155t-21.5 200v588h207v-598q0 -36 3 -67.5t9.5 -63t16.5 -57t26.5 -47.5t37.5 -36.5t50.5 -23t64.5 -8.5q57 0 107 22t90 65t63 115t23 164v535h207v-1059h-207v154q-46 -77 -132 -126.5t-191 -49.5z" />
<glyph unicode="v" horiz-adv-x="1030" d="M429 0l-413 1059h225l275 -793l278 793h220l-411 -1059h-174z" />
<glyph unicode="w" horiz-adv-x="1527" d="M343 -2l-310 1061h218l201 -762l222 762h180l223 -760l200 760h219l-311 -1059h-191l-229 782l-231 -784h-191z" />
<glyph unicode="x" horiz-adv-x="1030" d="M31 0l360 534l-360 525h250l234 -372l235 372h249l-359 -525l359 -534h-249l-235 381l-234 -381h-250z" />
<glyph unicode="y" horiz-adv-x="1062" d="M240 -456l187 472l-410 1043h226l290 -805l287 805h225l-585 -1515h-220z" />
<glyph unicode="z" horiz-adv-x="1021" d="M943 1059v-156l-607 -729h607v-174h-879v144l625 744h-595v171h849z" />
<glyph unicode="{" horiz-adv-x="644" d="M430 -144q-111 0 -180 97q-37 51 -37 170v386q0 19 -9 36t-21 28.5t-33.5 23t-36.5 18t-39 15.5v144q48 15 77.5 34t45.5 49t16 74v451q0 123 56.5 186t183.5 63h56q45 0 68 -2v-132q-52 10 -87 10q-52 0 -75 -12.5t-23 -40.5v-538q0 -54 -21 -95.5t-57 -70.5t-92 -56 q170 -65 170 -181v-385q0 -147 125 -147q29 0 60 9v-132q-45 -2 -71 -2h-76z" />
<glyph unicode="|" horiz-adv-x="659" d="M253 -543v2169h152v-2169h-152z" />
<glyph unicode="}" horiz-adv-x="644" d="M139 -144q-27 0 -71 2v132q32 -9 59 -9q125 0 125 147v385q0 112 171 181q-88 40 -129.5 91t-41.5 131v538q0 28 -22.5 40.5t-74.5 12.5q-34 0 -87 -10v132q22 2 69 2h55q126 0 182.5 -63t56.5 -186v-451q0 -64 33.5 -99.5t105.5 -57.5v-144q-24 -9 -39 -15.5t-36 -18 t-33.5 -23t-21.5 -28.5t-9 -36v-386q0 -121 -35 -171q-70 -96 -181 -96h-76z" />
<glyph unicode="~" horiz-adv-x="1228" d="M781 402q-51 0 -97 15t-78.5 37t-61 44t-58.5 37t-59 15q-49 0 -66 -31t-17 -89h-140q0 123 57.5 191.5t163.5 68.5q51 0 95 -10.5t72.5 -26.5t56 -34.5t47.5 -34.5t44 -26.5t48 -10.5q52 0 70.5 32.5t18.5 104.5h149q0 -138 -62.5 -210t-182.5 -72z" />
<glyph unicode="&#xa2;" horiz-adv-x="1193" d="M552 -217v198q-79 12 -145.5 47t-113.5 87t-79.5 118t-47.5 140.5t-15 154.5q0 79 15 153t47.5 140.5t79.5 118.5t113.5 87.5t145.5 47.5v197h151v-197q251 -36 363 -292l-190 -75q-26 94 -89 144t-157 50q-59 0 -107 -21.5t-79.5 -57t-52.5 -84.5t-30 -101.5t-9 -109.5 q0 -58 9 -110.5t30 -101.5t52 -84.5t79 -57t108 -21.5q94 0 157 50.5t89 144.5l177 -72q-46 -129 -135 -204t-215 -92v-197h-151z" />
<glyph unicode="&#xa3;" horiz-adv-x="1295" d="M160 0v170q11 6 28.5 17t62 47t79 72.5t62.5 88.5t28 101q0 21 -2.5 45t-6 44t-7.5 37.5t-6 27.5l-3 9h-232v176h189q-5 13 -12.5 35.5t-20 88.5t-12.5 127q0 90 29 169t83 139.5t137.5 95.5t186.5 35q74 0 141 -25t118.5 -68.5t89.5 -99.5t62 -121l-165 -62 q-17 46 -41.5 82.5t-55.5 62.5t-69 40t-80 14q-122 0 -191 -70t-69 -194q0 -57 12.5 -119.5t25.5 -95.5l12 -34h503v-176h-460q17 -81 17 -160q0 -45 -9 -86.5t-23 -73t-31 -59t-34 -46t-31 -32t-23 -19.5l-8 -6h815v-177h-1089z" />
<glyph unicode="&#xa5;" horiz-adv-x="1392" d="M604 0v264h-317v157h317v125h-317v158h244l-502 794h218l450 -727l450 727h218l-502 -795h244v-157h-318v-125h318v-157h-318v-264h-185z" />
<glyph unicode="&#xa8;" horiz-adv-x="887" d="M162 1277v221h197v-221h-197zM528 1277v221h197v-221h-197z" />
<glyph unicode="&#xa9;" horiz-adv-x="1849" d="M925 -53q-166 0 -317 63.5t-260 171t-173.5 256t-64.5 311.5t64.5 311.5t173.5 256t260 171t317 63.5t316.5 -63.5t259.5 -171t173.5 -256t64.5 -311.5t-64.5 -311.5t-173.5 -256t-259.5 -171t-316.5 -63.5zM925 108q131 0 251.5 52t208.5 138t140.5 205t52.5 246 q0 128 -52.5 246.5t-140.5 204.5t-208.5 138t-251.5 52q-130 0 -251 -52t-209 -138t-141 -204.5t-53 -246.5t53 -246.5t141 -204.5t209 -138t251 -52zM942 300q-95 0 -171 35.5t-123.5 97.5t-72.5 142t-25 172t25 172t72.5 141.5t123.5 97.5t171 36q121 0 209 -58.5 t140 -169.5l-147 -63q-64 129 -202 129q-59 0 -105 -22.5t-73.5 -62.5t-41.5 -90.5t-14 -109.5t13.5 -109t41 -89.5t73 -62t104.5 -22.5q49 0 87 14.5t66 43t49 72.5l149 -64q-106 -230 -349 -230z" />
<glyph unicode="&#xab;" horiz-adv-x="1016" d="M464 181l-419 361l419 360v-196l-198 -164l198 -165v-196zM850 181l-422 361l422 360v-196l-199 -164l199 -165v-196z" />
<glyph unicode="&#xad;" horiz-adv-x="901" d="M161 578v156h579v-156h-579z" />
<glyph unicode="&#xae;" horiz-adv-x="1849" d="M925 -51q-166 0 -317 63.5t-260 171t-173.5 256t-64.5 312.5q0 162 64.5 310.5t173.5 256t260 171t317 63.5t316.5 -63.5t259.5 -171t173.5 -256t64.5 -310.5q0 -164 -64.5 -312.5t-173.5 -256t-259.5 -171t-316.5 -63.5zM925 102q107 0 207.5 33t182 93.5t143 140.5 t95.5 179t34 204q0 130 -53 250t-142 207.5t-211.5 139.5t-255.5 52t-255.5 -52t-212 -139.5t-143 -207.5t-53.5 -250q0 -131 53.5 -251.5t143 -207.5t212 -139t255.5 -52zM652 315v857h330q142 0 215.5 -67t73.5 -189q0 -96 -46.5 -156t-117.5 -82l213 -363h-186l-184 344 h-138v-344h-160zM801 808h181q74 0 106.5 25.5t32.5 82.5q0 58 -31.5 82.5t-107.5 24.5h-181v-215z" />
<glyph unicode="&#xb4;" horiz-adv-x="566" d="M53 1191l234 307h239l-309 -307h-164z" />
<glyph unicode="&#xb8;" horiz-adv-x="603" d="M276 -544q-66 0 -121 38t-79 97l123 57q7 -26 30 -45.5t53 -19.5q28 0 50 12.5t33.5 34t11.5 47.5q0 33 -21 61t-64.5 46t-102.5 18h-58l116 197h139l-76 -115q96 -7 147.5 -61.5t51.5 -137.5q0 -94 -65.5 -161.5t-167.5 -67.5z" />
<glyph unicode="&#xbb;" horiz-adv-x="1017" d="M164 181v196l199 165l-199 164v196l421 -360zM548 181v196l199 165l-199 164v196l422 -360z" />
<glyph unicode="&#xc1;" horiz-adv-x="1402" d="M588 1629l235 307h238l-308 -307h-165zM41 0l580 1498h163l577 -1498h-232l-115 325h-622l-115 -325h-236zM464 515h477l-237 666z" />
<glyph unicode="&#xc9;" horiz-adv-x="1316" d="M570 1629l235 307h238l-308 -307h-165zM210 0v1498h982v-193h-767v-460h688v-191h-688v-454h767v-200h-982z" />
<glyph unicode="&#xcd;" horiz-adv-x="634" d="M204 1629l234 307h238l-308 -307h-164zM210 0v1498h215v-1498h-215z" />
<glyph unicode="&#xd3;" horiz-adv-x="1612" d="M692 1629l234 307h239l-309 -307h-164zM806 -21q-116 0 -216 28t-175.5 80t-134 122.5t-95.5 157t-56 182.5t-19 200t19 200.5t56 182.5t95.5 157t134 122.5t175.5 80t216 28.5q138 0 253.5 -40.5t196.5 -112t137 -169t82.5 -210.5t26.5 -239q0 -125 -26.5 -238 t-82.5 -211t-137 -169t-196.5 -111.5t-253.5 -40.5zM806 173q100 0 181 31t135.5 84.5t91 127.5t53 157t16.5 176q0 94 -16.5 176.5t-53 156.5t-91 127.5t-135.5 84.5t-181 31t-181 -31t-135 -84.5t-90.5 -127.5t-52.5 -156.5t-16 -176.5q0 -93 16 -176t52.5 -157 t90.5 -127.5t135 -84.5t181 -31z" />
<glyph unicode="&#xd6;" horiz-adv-x="1612" d="M523 1715v221h197v-221h-197zM888 1715v221h197v-221h-197zM806 -21q-116 0 -216 28t-175.5 80t-134 122.5t-95.5 157t-56 182.5t-19 200t19 200.5t56 182.5t95.5 157t134 122.5t175.5 80t216 28.5q138 0 253.5 -40.5t196.5 -112t137 -169t82.5 -210.5t26.5 -239 q0 -125 -26.5 -238t-82.5 -211t-137 -169t-196.5 -111.5t-253.5 -40.5zM806 173q100 0 181 31t135.5 84.5t91 127.5t53 157t16.5 176q0 94 -16.5 176.5t-53 156.5t-91 127.5t-135.5 84.5t-181 31t-181 -31t-135 -84.5t-90.5 -127.5t-52.5 -156.5t-16 -176.5q0 -93 16 -176 t52.5 -157t90.5 -127.5t135 -84.5t181 -31z" />
<glyph unicode="&#xda;" horiz-adv-x="1447" d="M611 1629l234 307h238l-308 -307h-164zM723 -21q-113 0 -204.5 29t-154.5 81.5t-105 126.5t-61.5 161t-19.5 189v932h215v-893q0 -78 9.5 -140t32.5 -115.5t60.5 -88.5t94.5 -55t133 -20q54 0 99 10t79 29t60.5 47t44 62.5t28.5 78t16 90.5t5 102v893h216v-921 q0 -105 -19.5 -194.5t-62.5 -164.5t-106.5 -128t-155 -82t-204.5 -29z" />
<glyph unicode="&#xdc;" horiz-adv-x="1447" d="M441 1715v221h197v-221h-197zM807 1715v221h197v-221h-197zM723 -21q-113 0 -204.5 29t-154.5 81.5t-105 126.5t-61.5 161t-19.5 189v932h215v-893q0 -78 9.5 -140t32.5 -115.5t60.5 -88.5t94.5 -55t133 -20q54 0 99 10t79 29t60.5 47t44 62.5t28.5 78t16 90.5t5 102v893 h216v-921q0 -105 -19.5 -194.5t-62.5 -164.5t-106.5 -128t-155 -82t-204.5 -29z" />
<glyph unicode="&#xe1;" horiz-adv-x="1104" d="M420 1191l234 307h239l-309 -307h-164zM434 -21q-160 0 -261.5 88.5t-101.5 242.5q0 308 445 308h258q0 132 -58 208t-179 76q-93 0 -161 -44t-111 -111l-154 115q158 219 421 219q205 0 320 -118.5t115 -315.5v-647h-171l-11 179q-114 -200 -351 -200zM460 153 q54 0 103 17.5t86.5 48.5t65.5 71t43 85.5t16 90.5h-243q-83 0 -138.5 -18.5t-83 -55t-27.5 -89.5q0 -49 23 -83t62.5 -50.5t92.5 -16.5z" />
<glyph unicode="&#xe9;" horiz-adv-x="1114" d="M437 1191l234 307h238l-308 -307h-164zM584 -18q-100 0 -183.5 29t-142.5 79.5t-100 119.5t-60.5 148.5t-19.5 166.5q0 85 19 164.5t58.5 150.5t96 123.5t137.5 83t177 30.5q103 0 185.5 -32t134.5 -83.5t86.5 -121t48.5 -141t14 -147.5q0 -56 -7 -90h-732 q2 -42 11.5 -79.5t25.5 -71t40 -60t54.5 -46t70.5 -30t86 -10.5q86 0 153 26t124 88l142 -120q-87 -91 -188 -134t-231 -43zM296 618h539q-3 62 -21 113.5t-50 91t-83 61.5t-116 22q-63 0 -113 -22.5t-82 -63t-50.5 -91t-23.5 -111.5z" />
<glyph unicode="&#xed;" horiz-adv-x="538" d="M156 1191l234 307h239l-309 -307h-164zM167 0v1059h205v-1059h-205z" />
<glyph unicode="&#xf3;" horiz-adv-x="1190" d="M481 1191l235 307h238l-308 -307h-165zM594 -21q-115 0 -213 44t-165 119.5t-105 176.5t-38 213q0 89 24 172t69.5 151t108.5 119t145 79t174 28q114 0 212.5 -43.5t166 -118t105.5 -175t38 -212.5t-38 -213t-105.5 -176.5t-166 -119.5t-212.5 -44zM595 153q63 0 115 21 t87.5 56.5t60 84.5t35.5 103.5t11 113.5q0 75 -18 140.5t-54.5 119t-97.5 84t-139 30.5q-63 0 -115 -20t-88 -55.5t-60 -83t-35.5 -101.5t-11.5 -114q0 -49 8 -95.5t24 -89.5t42 -78t59.5 -61t78.5 -40.5t98 -14.5z" />
<glyph unicode="&#xf6;" horiz-adv-x="1190" d="M312 1277v221h197v-221h-197zM677 1277v221h197v-221h-197zM594 -21q-115 0 -213 44t-165 119.5t-105 176.5t-38 213q0 89 24 172t69.5 151t108.5 119t145 79t174 28q114 0 212.5 -43.5t166 -118t105.5 -175t38 -212.5t-38 -213t-105.5 -176.5t-166 -119.5t-212.5 -44z M595 153q63 0 115 21t87.5 56.5t60 84.5t35.5 103.5t11 113.5q0 75 -18 140.5t-54.5 119t-97.5 84t-139 30.5q-63 0 -115 -20t-88 -55.5t-60 -83t-35.5 -101.5t-11.5 -114q0 -49 8 -95.5t24 -89.5t42 -78t59.5 -61t78.5 -40.5t98 -14.5z" />
<glyph unicode="&#xfa;" horiz-adv-x="1208" d="M488 1191l234 307h238l-308 -307h-164zM512 -22q-97 0 -169.5 36t-117.5 102t-66.5 155t-21.5 200v588h207v-598q0 -36 3 -67.5t9.5 -63t16.5 -57t26.5 -47.5t37.5 -36.5t50.5 -23t64.5 -8.5q57 0 107 22t90 65t63 115t23 164v535h207v-1059h-207v154 q-46 -77 -132 -126.5t-191 -49.5z" />
<glyph unicode="&#xfc;" horiz-adv-x="1208" d="M318 1277v221h197v-221h-197zM684 1277v221h197v-221h-197zM512 -22q-97 0 -169.5 36t-117.5 102t-66.5 155t-21.5 200v588h207v-598q0 -36 3 -67.5t9.5 -63t16.5 -57t26.5 -47.5t37.5 -36.5t50.5 -23t64.5 -8.5q57 0 107 22t90 65t63 115t23 164v535h207v-1059h-207v154 q-46 -77 -132 -126.5t-191 -49.5z" />
<glyph unicode="&#x150;" horiz-adv-x="1612" d="M509 1607l234 329h215l-285 -329h-164zM868 1607l234 329h238l-309 -329h-163zM806 -21q-116 0 -216 28t-175.5 80t-134 122.5t-95.5 157t-56 182.5t-19 200t19 200.5t56 182.5t95.5 157t134 122.5t175.5 80t216 28.5q138 0 253.5 -40.5t196.5 -112t137 -169t82.5 -210.5 t26.5 -239q0 -125 -26.5 -238t-82.5 -211t-137 -169t-196.5 -111.5t-253.5 -40.5zM806 173q100 0 181 31t135.5 84.5t91 127.5t53 157t16.5 176q0 94 -16.5 176.5t-53 156.5t-91 127.5t-135.5 84.5t-181 31t-181 -31t-135 -84.5t-90.5 -127.5t-52.5 -156.5t-16 -176.5 q0 -93 16 -176t52.5 -157t90.5 -127.5t135 -84.5t181 -31z" />
<glyph unicode="&#x151;" horiz-adv-x="1190" d="M298 1169l234 329h215l-285 -329h-164zM657 1169l234 329h238l-309 -329h-163zM594 -21q-115 0 -213 44t-165 119.5t-105 176.5t-38 213q0 89 24 172t69.5 151t108.5 119t145 79t174 28q114 0 212.5 -43.5t166 -118t105.5 -175t38 -212.5t-38 -213t-105.5 -176.5 t-166 -119.5t-212.5 -44zM595 153q63 0 115 21t87.5 56.5t60 84.5t35.5 103.5t11 113.5q0 75 -18 140.5t-54.5 119t-97.5 84t-139 30.5q-63 0 -115 -20t-88 -55.5t-60 -83t-35.5 -101.5t-11.5 -114q0 -49 8 -95.5t24 -89.5t42 -78t59.5 -61t78.5 -40.5t98 -14.5z" />
<glyph unicode="&#x170;" horiz-adv-x="1447" d="M427 1607l234 329h216l-286 -329h-164zM787 1607l234 329h237l-308 -329h-163zM723 -21q-113 0 -204.5 29t-154.5 81.5t-105 126.5t-61.5 161t-19.5 189v932h215v-893q0 -78 9.5 -140t32.5 -115.5t60.5 -88.5t94.5 -55t133 -20q54 0 99 10t79 29t60.5 47t44 62.5t28.5 78 t16 90.5t5 102v893h216v-921q0 -105 -19.5 -194.5t-62.5 -164.5t-106.5 -128t-155 -82t-204.5 -29z" />
<glyph unicode="&#x171;" horiz-adv-x="1208" d="M304 1169l234 329h216l-285 -329h-165zM664 1169l234 329h237l-308 -329h-163zM512 -22q-97 0 -169.5 36t-117.5 102t-66.5 155t-21.5 200v588h207v-598q0 -36 3 -67.5t9.5 -63t16.5 -57t26.5 -47.5t37.5 -36.5t50.5 -23t64.5 -8.5q57 0 107 22t90 65t63 115t23 164v535 h207v-1059h-207v154q-46 -77 -132 -126.5t-191 -49.5z" />
<glyph unicode="&#x2c6;" horiz-adv-x="747" d="M29 1164l342 375l342 -375h-183l-159 177l-157 -177h-185z" />
<glyph unicode="&#x2da;" horiz-adv-x="672" d="M333 1138q-96 0 -162 68t-66 162.5t66.5 161t161.5 66.5q94 0 162 -66t68 -162q0 -95 -67 -162.5t-163 -67.5zM333 1262q45 0 76 31t31 77q0 44 -29.5 73t-77.5 29q-47 0 -75.5 -28.5t-28.5 -73.5q0 -47 30 -77.5t74 -30.5z" />
<glyph unicode="&#x2dc;" horiz-adv-x="916" d="M630 1207q-43 0 -79.5 16.5t-60.5 40t-45 47t-43 39.5t-45 16q-36 0 -54 -39t-18 -106h-125q0 132 53 207.5t147 75.5q43 0 79 -16.5t60.5 -40t45.5 -47t43 -40t44 -16.5q34 0 52.5 40.5t18.5 113.5h131q0 -140 -53.5 -215.5t-150.5 -75.5z" />
<glyph unicode="&#x2000;" horiz-adv-x="968" />
<glyph unicode="&#x2001;" horiz-adv-x="1936" />
<glyph unicode="&#x2002;" horiz-adv-x="968" />
<glyph unicode="&#x2003;" horiz-adv-x="1936" />
<glyph unicode="&#x2004;" horiz-adv-x="645" />
<glyph unicode="&#x2005;" horiz-adv-x="484" />
<glyph unicode="&#x2006;" horiz-adv-x="322" />
<glyph unicode="&#x2007;" horiz-adv-x="322" />
<glyph unicode="&#x2008;" horiz-adv-x="242" />
<glyph unicode="&#x2009;" horiz-adv-x="387" />
<glyph unicode="&#x200a;" horiz-adv-x="107" />
<glyph unicode="&#x2010;" horiz-adv-x="901" d="M161 578v156h579v-156h-579z" />
<glyph unicode="&#x2011;" horiz-adv-x="901" d="M161 578v156h579v-156h-579z" />
<glyph unicode="&#x2012;" horiz-adv-x="901" d="M161 578v156h579v-156h-579z" />
<glyph unicode="&#x2013;" horiz-adv-x="1096" d="M161 578v156h774v-156h-774z" />
<glyph unicode="&#x2014;" horiz-adv-x="2170" d="M0 578v156h2171v-156h-2171z" />
<glyph unicode="&#x2018;" horiz-adv-x="599" d="M334 947l-249 551h247l135 -551h-133z" />
<glyph unicode="&#x2019;" horiz-adv-x="599" d="M131 947l137 551h247l-250 -551h-134z" />
<glyph unicode="&#x201a;" horiz-adv-x="590" d="M132 -238l135 518h237l-246 -518h-126z" />
<glyph unicode="&#x201c;" horiz-adv-x="966" d="M334 947l-249 551h247l135 -551h-133zM702 947l-250 551h247l136 -551h-133z" />
<glyph unicode="&#x201d;" horiz-adv-x="966" d="M131 947l137 551h247l-250 -551h-134zM499 947l137 551h246l-249 -551h-134z" />
<glyph unicode="&#x201e;" horiz-adv-x="941" d="M132 -238l135 518h237l-246 -518h-126zM483 -238l135 518h236l-247 -518h-124z" />
<glyph unicode="&#x2026;" horiz-adv-x="1570" d="M230 0v241h234v-241h-234zM669 0v241h233v-241h-233zM1108 0v241h233v-241h-233z" />
<glyph unicode="&#x202f;" horiz-adv-x="387" />
<glyph unicode="&#x2039;" horiz-adv-x="630" d="M464 181l-419 361l419 360v-196l-198 -164l198 -165v-196z" />
<glyph unicode="&#x203a;" horiz-adv-x="632" d="M164 181v196l199 165l-199 164v196l421 -360z" />
<glyph unicode="&#x205f;" horiz-adv-x="484" />
<glyph unicode="&#x20ac;" horiz-adv-x="1348" d="M829 -21q-110 0 -201.5 38.5t-157 108.5t-110 161.5t-67.5 204.5h-164l70 161h71q-2 33 -2 96q0 62 4 109h-143l70 162h96q19 88 51 163t79 138t105.5 107.5t134 69t162.5 24.5q124 0 227 -53.5t178 -156.5l-138 -111q-89 132 -268 132q-133 0 -221.5 -85t-129.5 -228 h560l-69 -162h-519q-4 -64 -4 -96q0 -40 4 -106h588l-69 -162h-491q20 -73 51 -131.5t74 -103t101.5 -69t127.5 -24.5q172 0 261 136l128 -132q-73 -94 -172.5 -142.5t-216.5 -48.5z" />
<glyph unicode="&#x2122;" horiz-adv-x="1427" d="M305 930v460h-153v108h429v-108h-155v-460h-121zM658 930v568h127l134 -355l135 355h123v-568h-121v348l-92 -263h-88l-96 268v-353h-122z" />
<glyph unicode="&#x25fc;" horiz-adv-x="1060" d="M0 1060h1060v-1060h-1060v1060z" />
</font>
</defs>
</svg>
