<?xml version="1.0" standalone="no"?>
<!DOCTYPE svg PUBLIC "-//W3C//DTD SVG 1.1//EN" "http://www.w3.org/Graphics/SVG/1.1/DTD/svg11.dtd" >
<svg xmlns="http://www.w3.org/2000/svg" xmlns:xlink="http://www.w3.org/1999/xlink" version="1.1">
<metadata></metadata>
<defs>
<font id="libre_franklinextrabold" horiz-adv-x="0" >
<font-face units-per-em="1000" ascent="800" descent="-200" />
<missing-glyph horiz-adv-x="198" />
<glyph />
<glyph />
<glyph unicode="&#xd;" horiz-adv-x="206" />
<glyph unicode=" "  horiz-adv-x="198" />
<glyph unicode="&#x09;" horiz-adv-x="198" />
<glyph unicode="&#xa0;" horiz-adv-x="198" />
<glyph unicode="!" horiz-adv-x="265" d="M188 270q-1 -14 -7.5 -19.5t-20.5 -5.5h-61q-13 0 -17.5 5t-5.5 17l-44 440v3q0 8 4.5 12.5t12.5 4.5h166q7 0 11.5 -5t3.5 -13zM223 26q0 -14 -6 -20t-23 -6h-132q-13 0 -19 5.5t-6 17.5v135q0 9 5 14t13 5h153q15 0 15 -18v-133z" />
<glyph unicode="&#x22;" horiz-adv-x="480" d="M407 447q-2 -15 -8 -20.5t-22 -5.5h-38q-13 0 -17.5 5t-6.5 18l-36 264v3q0 8 5 12t12 4h131q8 0 12.5 -4.5t3.5 -12.5zM172 447q-2 -15 -8 -20.5t-22 -5.5h-38q-13 0 -17.5 5t-6.5 18l-36 264v3q0 8 5 12t12 4h131q8 0 12.5 -4.5t3.5 -12.5z" />
<glyph unicode="#" horiz-adv-x="590" d="M576.5 509q4.5 -5 4.5 -13v-44q0 -13 -7.5 -19t-21.5 -6h-93l-18 -119h91q8 0 12.5 -5t4.5 -13v-44q0 -13 -7.5 -19t-22.5 -6h-91l-28 -194q-2 -17 -7 -23t-21 -4l-36 5q-15 3 -20 6.5t-4 13.5l28 196h-128l-29 -194q-2 -17 -7 -23t-21 -4l-35 5q-16 3 -21 6.5t-4 13.5 l28 196h-90q-12 0 -17.5 5t-5.5 17v44q0 21 17 21h109l18 119h-88q-13 0 -18.5 5t-5.5 17v44q0 21 18 21h107l28 192q2 11 6 16.5t11 4.5l55 -6q18 -2 15 -17l-27 -190h128l29 192q4 22 16 21l55 -6q19 -2 16 -17l-28 -190h93q8 0 12.5 -5zM370 427h-128l-18 -119h129z" />
<glyph unicode="$" horiz-adv-x="657" d="M565 69.5q-60 -60.5 -162 -71.5q-13 -1 -16 -4.5t-3 -14.5v-28q0 -14 -6.5 -19.5t-20.5 -5.5h-60q-13 0 -18.5 5t-5.5 17v33q0 10 -3 13.5t-12 3.5q-68 4 -120 24.5t-100 58.5q-16 12 -16 24q0 6 5 12l67 74q9 10 17 10t15 -8q57 -58 133 -71l7 -1q9 0 9 10l1 143 q0 8 -3 12t-10 6q-222 40 -222 219q0 78 55.5 134.5t158.5 75.5q8 2 14 7.5t6 12.5v33q0 7 4.5 11t9.5 4h76q9 0 14 -4.5t5 -16.5v-35q0 -4 3 -6.5t12 -4.5q98 -22 165 -69q9 -5 9 -14q0 -6 -5 -13l-59 -76q-7 -9 -14 -9t-17 9q-33 31 -82 47l-4 1q-9 0 -9 -9v-138 q0 -5 3 -8t10 -4l60 -16q75 -20 122 -75t47 -128q0 -90 -60 -150.5zM275 590q0 16 -12 13q-39 -9 -59 -28t-20 -44q0 -27 17.5 -45t54.5 -27h5q14 0 14 19v112zM397 121q39 5 61 25t22 46q0 62 -85 79h-4q-8 0 -8 -10v-134q0 -9 14 -6z" />
<glyph unicode="%" horiz-adv-x="934" d="M319.5 709.5q43.5 -28.5 68.5 -76.5t25 -103t-24.5 -102t-68 -74.5t-96.5 -27.5q-52 0 -96 27.5t-69 74.5t-25 102t25.5 103t69 76.5t95.5 28.5t95.5 -28.5zM277 7q-5 -6 -10.5 -8.5t-15.5 -2.5l-46 1q-9 0 -13.5 4.5t-4.5 11.5t5 14l463 696q5 8 10.5 10t14.5 2h59 q12 0 12 -8q0 -4 -3 -10zM271 442.5q14 28.5 14 86.5q0 61 -14.5 92t-47.5 31q-61 0 -61 -123q0 -58 14.5 -86.5t46.5 -28.5q34 0 48 28.5zM807.5 373.5q43.5 -28.5 68.5 -76.5t25 -103t-24.5 -102t-68 -74.5t-96.5 -27.5q-52 0 -96 27.5t-69 74.5t-25 102t25.5 103 t69.5 76.5t95 28.5q52 0 95.5 -28.5zM759 106q14 29 14 87q0 61 -14.5 92t-47.5 31q-61 0 -61 -123q0 -57 14.5 -86.5t46.5 -29.5q34 0 48 29z" />
<glyph unicode="&#x26;" horiz-adv-x="841" d="M501 718.5q53 -19.5 82 -56t29 -82.5q0 -47 -39.5 -98.5t-101.5 -80.5q-7 -4 -7 -8t4 -9l88 -92q6 -6 10 -6q5 0 12 9q44 52 64 104q6 12 17 12q3 0 8 -2l88 -28q9 -3 13.5 -11.5t1.5 -17.5q-15 -35 -37.5 -69t-59.5 -82q-2 -2 -4.5 -6t-2.5 -6q0 -3 9 -9q42 -28 110 -33 q12 -1 17 -5.5t5 -14.5v-101q0 -12 -6 -19t-17 -7q-142 0 -237 67q-10 5 -14 5q-5 0 -14 -6q-50 -37 -106 -54t-128 -17q-117 0 -182 51t-65 144q0 58 40.5 107t128.5 98q10 6 10 11t-8 13q-29 32 -45 68.5t-16 71.5q0 51 30 92t83 64t119 23q68 0 121 -19.5zM338.5 617 q-19.5 -18 -19.5 -43q0 -21 23 -48l34 -41q4 -4 11 -4q4 0 10 2q65 34 65 87q0 30 -20.5 47.5t-52.5 17.5q-31 0 -50.5 -18zM299 308q-5 0 -12 -5q-28 -17 -44.5 -41.5t-16.5 -49.5q0 -36 28.5 -63t68.5 -27q24 0 51.5 9.5t43.5 24.5q9 7 9 13q0 4 -6 11l-107 119 q-9 9 -15 9z" />
<glyph unicode="'" horiz-adv-x="245" d="M172 447q-2 -15 -8 -20.5t-22 -5.5h-38q-13 0 -17.5 5t-6.5 18l-36 264v3q0 8 5 12t12 4h131q8 0 12.5 -4.5t3.5 -12.5z" />
<glyph unicode="(" horiz-adv-x="316" d="M300 713q-51 -101 -79.5 -211.5t-28.5 -223.5q0 -106 26 -207.5t80 -216.5q2 -4 2 -7q0 -9 -12 -9h-93q-7 0 -11 2.5t-9 9.5q-67 117 -101 215t-34 214q0 118 36 228.5t99 206.5q10 13 26 13h89q16 0 10 -14z" />
<glyph unicode=")" horiz-adv-x="316" d="M116 727q15 0 25 -13q64 -96 99.5 -206.5t35.5 -228.5q0 -116 -33.5 -214t-101.5 -215q-5 -7 -9 -9.5t-10 -2.5h-94q-7 0 -9.5 5t0.5 11q54 115 79.5 216.5t25.5 207.5q0 113 -28 223.5t-79 211.5q-1 2 -1 6q0 8 10 8h90z" />
<glyph unicode="*" horiz-adv-x="484" d="M249 433q-2 3 -5.5 3t-5.5 -3l-72 -123q-4 -6 -12 -6t-13 4l-61 43q-7 5 -7 11t4 10l91 106q2 4 2 5q0 6 -8 8l-128 34q-10 3 -10 14q0 2 2 10l25 65q5 15 19 9l120 -55q2 -1 5 -1q9 0 7 8l-12 138q0 5 3.5 9.5t10.5 4.5h80q7 0 11 -4.5t3 -9.5l-13 -139v-2q0 -8 9 -5 l123 55l8 2q11 0 14 -13l21 -64l2 -8q0 -12 -13 -14l-125 -35q-5 -1 -5.5 -5t3.5 -8l87 -102q4 -4 4 -9q0 -10 -12 -17l-53 -36q-9 -6 -16 -6q-9 0 -12 6z" />
<glyph unicode="+" horiz-adv-x="580" d="M533.5 423q4.5 -5 4.5 -12v-83q0 -12 -7 -18t-21 -6h-156v-169q0 -8 -5 -12t-13 -4h-82q-13 0 -19 6.5t-6 22.5v156h-162q-13 0 -18.5 5t-5.5 16v83q0 20 17 20h169v163q0 13 5 17.5t17 4.5h82q21 0 21 -16v-169h168q7 0 11.5 -5z" />
<glyph unicode="," horiz-adv-x="260" d="M40.5 -150.5q-4.5 7.5 -0.5 15.5l48 107q5 11 5 16q0 12 -14 12h-19q-13 0 -18.5 5.5t-5.5 17.5v136q0 10 4.5 14.5t12.5 4.5h153q15 0 15 -17v-132q0 -7 -3 -14l-104 -152q-6 -10 -18 -15.5t-22 -5.5h-20q-9 0 -13.5 7.5z" />
<glyph unicode="-" horiz-adv-x="372" d="M328 221q0 -13 -6.5 -19t-22.5 -6h-231q-14 0 -19 5.5t-5 17.5v81q0 19 17 19l252 1q6 0 10.5 -5t4.5 -13v-81z" />
<glyph unicode="." horiz-adv-x="260" d="M221 26q0 -14 -6.5 -20t-23.5 -6h-131q-14 0 -19.5 5.5t-5.5 17.5v138q0 19 17 19h153q16 0 16 -17v-137z" />
<glyph unicode="/" horiz-adv-x="365" d="M3 9l244 702q6 16 23 16h75q10 0 14 -3t4 -11q0 -6 -3 -15l-238 -683q-3 -13 -10.5 -18t-20.5 -5h-73q-20 0 -15 17z" />
<glyph unicode="0" horiz-adv-x="701" d="M512.5 690q71.5 -48 111.5 -134t40 -194q0 -109 -39.5 -193t-110.5 -130.5t-162 -46.5q-92 0 -163.5 46.5t-111.5 130.5t-40 193q0 108 41 194t112.5 134t161.5 48q89 0 160.5 -48zM437.5 182q26.5 53 26.5 179q0 128 -27 184.5t-86 56.5t-86 -56.5t-27 -184.5 q0 -125 26.5 -178.5t86.5 -53.5t86.5 53z" />
<glyph unicode="1" horiz-adv-x="512" d="M483 127v-107q0 -9 -6 -14.5t-16 -5.5h-403q-21 0 -21 19v108q0 9 5 13t15 4h94q4 0 7.5 2.5t3.5 6.5v367q0 8 -3.5 11t-11.5 1l-87 -23l-7 -1q-17 0 -17 21v75q0 10 3 15.5t13 9.5l170 85q17 8 25.5 10.5t20.5 2.5h76q16 0 16 -18v-554q0 -11 9 -11h94q20 0 20 -17z" />
<glyph unicode="2" horiz-adv-x="645" d="M257 318q66 56 98 88t43.5 54.5t11.5 49.5q0 38 -26.5 61.5t-69.5 23.5q-41 0 -72 -24t-63 -82q-5 -8 -13 -8q-6 0 -16 5l-103 52q-13 6 -13 19q0 7 5 15q53 85 122.5 125t162.5 40q84 0 146.5 -28t97 -79.5t34.5 -118.5q0 -59 -30.5 -107t-104.5 -102l-176 -129 q-6 -3 -6 -7t12 -4h291q21 0 21 -17v-125q0 -9 -5.5 -14.5t-16.5 -5.5h-530q-14 0 -19.5 5t-5.5 18v86q0 9 9.5 20.5t42.5 39.5z" />
<glyph unicode="3" horiz-adv-x="663" d="M56 620q0 5 5 13q37 46 109 75t153 29q88 0 152 -24t98.5 -67.5t34.5 -100.5q0 -47 -30 -88t-83 -58q-12 -4 -12 -10q0 -7 11 -10q63 -20 99.5 -64.5t36.5 -100.5q0 -110 -80 -167t-238 -57q-88 0 -164.5 35.5t-117.5 92.5q-5 7 -5 13q0 12 12 19l88 62q9 6 15 6 q7 0 10 -5q47 -47 83.5 -66.5t88.5 -19.5t82.5 22.5t30.5 60.5q0 41 -33.5 66t-85.5 27l-84 1q-18 0 -18 15v106q0 13 18 16l67 3q52 3 84 27t32 61q0 30 -27.5 50.5t-67.5 20.5q-43 0 -78.5 -16.5t-74.5 -54.5q-7 -7 -12 -7t-11 6l-83 79q-5 6 -5 10z" />
<glyph unicode="4" horiz-adv-x="688" d="M367 723q8 4 26 4h143q8 0 13 -5t5 -13v-401q0 -11 10 -11h76q20 0 20 -18v-96q0 -19 -22 -19h-74q-10 0 -10 -13v-126q0 -13 -7 -19t-23 -6h-149q-12 0 -17.5 5.5t-5.5 17.5l1 131q0 10 -13 10h-287q-11 0 -17 5t-6 14v92q0 10 6.5 21t23.5 33l288 377q11 13 19 17z M346 297q4 0 6.5 2t2.5 5v214q0 15 -3 15t-11 -11l-154 -212q-4 -6 -4 -8q0 -5 11 -5h152z" />
<glyph unicode="5" horiz-adv-x="669" d="M557 727q18 0 22.5 -5t3.5 -20l-6 -112q-1 -12 -6 -16.5t-18 -4.5h-301q-19 0 -19 -16l-10 -93v-4q0 -7 4.5 -9.5t10.5 -0.5q46 14 72.5 19.5t59.5 5.5q78 0 138 -27.5t94.5 -80t34.5 -126.5q0 -76 -37 -132t-106 -85.5t-159 -29.5q-99 0 -179.5 34t-119.5 90 q-9 13 -9 21q0 9 11 16l94 65q8 4 13 4q8 0 17 -8q37 -43 69.5 -64t82.5 -21q60 0 94 29.5t34 74.5q0 44 -31.5 72.5t-88.5 28.5q-26 0 -50.5 -7t-60.5 -25q-8 -4 -12 -4q-3 0 -15 6l-104 56q-6 4 -9 8.5t-3 12.5t1 13l28 309q2 15 9.5 20.5t29.5 5.5h421z" />
<glyph unicode="6" horiz-adv-x="679" d="M483.5 712q53.5 -23 86.5 -57t42 -65v-10q0 -11 -10 -15l-125 -37q-2 -1 -5 -1q-6 0 -9.5 4.5t-5.5 8.5q-20 30 -39.5 45t-52.5 15q-61 0 -96.5 -44.5t-35.5 -119.5q0 -13 2 -18t8 -5q2 0 14 3q39 17 67.5 25t67.5 8q74 0 132.5 -28t91 -77t32.5 -112q0 -68 -39 -123 t-106 -86t-149 -31q-96 0 -167.5 43.5t-110.5 124t-39 187.5q0 119 41.5 207t115.5 134.5t171 46.5q65 0 118.5 -23zM293.5 312q-29.5 -9 -46.5 -20q-8 -5 -10 -11t-2 -19q0 -62 31 -102t82 -40q44 0 74.5 29.5t30.5 74.5q0 46 -30 71.5t-74 25.5q-26 0 -55.5 -9z" />
<glyph unicode="7" horiz-adv-x="613" d="M553 727q15 0 23.5 -7.5t7.5 -16.5l-3 -60q-1 -9 -10 -29t-18 -33q-55 -83 -100 -186.5t-72.5 -200.5t-32.5 -165q-1 -15 -6.5 -22t-16.5 -7h-182q-20 0 -20 17q0 2 2 9q35 120 89 238t161 289q4 8 4 10q0 6 -12 6h-314q-26 0 -24 23l12 119q1 16 27 16h485z" />
<glyph unicode="8" horiz-adv-x="674" d="M474 710.5q64 -26.5 100.5 -73t36.5 -103.5q0 -40 -24 -73t-70 -56q-8 -5 -8 -10q0 -4 7 -10q71 -40 99 -80t28 -94q0 -69 -40 -119t-112 -76t-166 -26q-131 0 -211.5 49.5t-80.5 138.5q0 50 25.5 87.5t88.5 70.5q9 5 9 8q0 2 -7 8q-46 34 -71 68t-25 89q0 62 34 114 t97 83t147 31q79 0 143 -26.5zM265.5 588q-27.5 -21 -27.5 -55q0 -23 15 -41t42 -26l70 -22q7 -2 10 -2q26 0 48 28t22 57q0 35 -29.5 58.5t-81.5 23.5q-41 0 -68.5 -21zM417.5 139q28.5 20 28.5 55q0 26 -15.5 44t-56.5 32l-80 25q-7 3 -16 3q-18 0 -36.5 -12t-30 -32.5 t-11.5 -43.5q0 -91 138 -91q51 0 79.5 20z" />
<glyph unicode="9" horiz-adv-x="679" d="M195.5 15q-53.5 23 -87 57t-41.5 65q-1 3 -1 9q0 12 11 16l124 37q2 1 5 1q8 0 11 -5.5t4 -6.5q20 -30 40 -45.5t54 -15.5q60 0 95.5 45t35.5 119q0 13 -2 18.5t-8 5.5q-2 0 -14 -4q-39 -17 -67.5 -25t-67.5 -8q-74 0 -132.5 28t-91 77t-32.5 112q0 69 39 123.5t106 85.5 t149 31q96 0 167.5 -43.5t110.5 -124t39 -187.5q0 -119 -41 -207t-115 -134.5t-171 -46.5q-66 0 -119.5 23zM386.5 415q29.5 9 45.5 21q8 5 10 11t2 19q0 62 -30.5 102t-81.5 40q-44 0 -74.5 -30t-30.5 -75t30 -71t73 -26q27 0 56.5 9z" />
<glyph unicode=":" horiz-adv-x="260" d="M221 360q0 -14 -7 -20t-23 -6h-131q-14 0 -19.5 6t-5.5 18v133q0 10 4.5 15.5t12.5 5.5h153q16 0 16 -19v-133zM221 29q0 -13 -7 -19.5t-23 -6.5h-131q-14 0 -19.5 6t-5.5 17v135q0 10 4.5 14.5t12.5 4.5h153q16 0 16 -18v-133z" />
<glyph unicode=";" horiz-adv-x="264" d="M40.5 333.5q-5.5 5.5 -5.5 17.5v138q0 20 17 20h153q16 0 16 -18v-137q0 -14 -6.5 -20t-23.5 -6h-131q-14 0 -19.5 5.5zM40.5 -154q-4.5 7 -0.5 16l48 110q4 8 4 16q0 12 -13 12h-19q-13 0 -18.5 5.5t-5.5 17.5v136q0 10 4.5 14.5t12.5 4.5h153q15 0 15 -17v-132 q0 -7 -3 -14l-104 -156q-6 -9 -18 -14.5t-22 -5.5h-20q-9 0 -13.5 7z" />
<glyph unicode="&#x3c;" horiz-adv-x="577" d="M520 122q0 -25 -20 -25q-7 0 -14 3l-423 164q-26 8 -26 29v99q0 24 26 31l424 165q4 2 11 2q10 0 16 -7t6 -18v-84q0 -15 -9 -24t-30 -17l-257 -98l257 -95q22 -8 30.5 -16.5t8.5 -23.5v-85z" />
<glyph unicode="=" horiz-adv-x="580" d="M538 423q0 -12 -7 -18t-21 -6l-443 -1q-13 0 -18.5 5.5t-5.5 16.5v82q0 20 17 20h462q7 0 11.5 -4.5t4.5 -12.5v-82zM538 190q0 -25 -28 -25h-443q-13 0 -18.5 5t-5.5 17v82q0 20 17 20h462q7 0 11.5 -5t4.5 -13v-81z" />
<glyph unicode="&#x3e;" horiz-adv-x="577" d="M65 230q9 9 31 17l257 95l-257 98q-22 9 -31 17.5t-9 23.5v84q0 11 6.5 18t15.5 7q7 0 11 -2l425 -165q25 -7 25 -31v-99q0 -21 -25 -29l-424 -164q-7 -3 -14 -3q-8 0 -14 6.5t-6 18.5v85q0 14 9 23z" />
<glyph unicode="?" horiz-adv-x="531" d="M0 572q0 4 2 10q31 76 97 115.5t160 39.5q72 0 128.5 -23t87.5 -62t31 -85q0 -35 -13.5 -63t-33 -47.5t-51.5 -46.5q-46 -37 -69 -66.5t-23 -74.5q0 -8 -6.5 -14.5t-16.5 -6.5h-92q-11 0 -17 6.5t-6 18.5q0 45 14.5 80.5t34 60t49.5 53.5q31 31 44.5 49.5t13.5 41.5 q0 28 -22 45.5t-55 17.5q-35 0 -65 -21t-46 -57q-3 -7 -6 -9.5t-8 -2.5q-6 0 -9 1l-112 26q-11 3 -11 14zM339 26q0 -14 -7 -20t-23 -6h-133q-12 0 -17.5 5.5t-5.5 17.5v135q0 19 17 19h152q8 0 12.5 -4.5t4.5 -13.5v-133z" />
<glyph unicode="@" horiz-adv-x="817" d="M556.5 -92q-61.5 -19 -136.5 -19q-117 0 -204.5 49t-134 133t-46.5 186q0 106 50 195.5t142 142.5t214 53q94 0 175.5 -34t131.5 -105.5t50 -177.5q0 -73 -24.5 -130.5t-68.5 -89.5t-102 -32q-39 0 -63 13.5t-34 30.5q-5 5 -6 5q-2 0 -7 -6q-24 -26 -56.5 -41t-72.5 -15 q-44 0 -78.5 21t-54 60t-19.5 90q0 60 25 112.5t70.5 84.5t106.5 32q37 0 59.5 -12t42.5 -34q2 -2 5 -2q4 0 5 6l2 9q1 7 10 7h77q9 0 8 -8l-34 -205q-2 -7 -2 -21q0 -33 28 -33q21 0 40 17t31.5 51t12.5 84q0 123 -72.5 177.5t-185.5 54.5q-104 0 -172 -40t-100 -107 t-32 -151q0 -137 80.5 -211.5t219.5 -74.5q57 0 92 12t76 39q7 3 11 3q6 0 9 -4l36 -48q2 -3 2 -7q0 -6 -9 -13q-36 -28 -97.5 -47zM346.5 190.5q17.5 -24.5 48.5 -24.5q39 0 66.5 33t28.5 76q2 38 -16.5 64.5t-51.5 26.5q-38 0 -65.5 -33.5t-27.5 -81.5q0 -36 17.5 -60.5z " />
<glyph unicode="A" horiz-adv-x="769" d="M31.5 5q-4.5 5 -4.5 14q0 6 3 13l241 675q4 11 10 15.5t18 4.5h170q24 0 34 -24l238 -673q1 -3 1 -9q0 -9 -3.5 -15t-10.5 -6h-169q-16 0 -21 16l-43 127q-3 6 -5.5 8.5t-9.5 2.5h-222q-11 0 -14 -11l-46 -129q-5 -14 -22 -14h-132q-8 0 -12.5 5zM436 303q10 0 10 10 q0 5 -1 8l-71 197q-1 6 -6 6q-3 0 -5 -6l-72 -197q-2 -3 -2 -9q0 -9 12 -9h135z" />
<glyph unicode="B" horiz-adv-x="716" d="M65.5 6q-5.5 6 -5.5 14v684q0 10 6 16.5t15 6.5h281q148 0 225 -48.5t77 -142.5q0 -53 -28.5 -90t-99.5 -69q-2 -1 -2 -3.5t2 -3.5q78 -27 112 -67.5t34 -105.5q0 -100 -76 -148.5t-231 -48.5h-296q-8 0 -13.5 6zM376 435q40 0 66 21t26 58t-27.5 59t-72.5 22h-90 q-11 0 -15.5 -4t-4.5 -14v-121q0 -11 3 -16t11 -5h104zM370 132q51 0 78.5 24t27.5 62t-27.5 60t-72.5 22h-98q-11 0 -15.5 -4.5t-4.5 -15.5v-128q0 -11 3 -15.5t11 -4.5h98z" />
<glyph unicode="C" horiz-adv-x="716" d="M518.5 708.5q64.5 -28.5 105.5 -79t53 -113.5l2 -16q0 -8 -3 -10.5t-11 -3.5l-152 -11q-9 0 -11.5 3.5t-5.5 14.5q-23 108 -115 108q-138 0 -138 -233q0 -123 34.5 -178.5t103.5 -55.5q55 0 94 28t64 92q3 8 15 8q6 0 10 -1l110 -22q6 -2 9.5 -6t3.5 -13q0 -6 -1 -10 q-8 -39 -43.5 -90t-103 -90.5t-164.5 -39.5q-102 0 -178.5 48.5t-118.5 135t-42 197.5t42 194t118 127.5t180 44.5q78 0 142.5 -28.5z" />
<glyph unicode="D" horiz-adv-x="746" d="M188 727q107 0 135 -1q193 -7 290 -101.5t97 -258.5q0 -110 -44 -192.5t-131 -128t-214 -45.5h-236q-13 0 -19 6t-6 20v679q0 12 5 17t18 5h105zM258 575v-423q0 -8 2.5 -11t9.5 -3h13q110 0 164.5 53.5t54.5 176.5q0 109 -43.5 160t-132.5 58l-59 3q-9 0 -9 -14z" />
<glyph unicode="E" horiz-adv-x="649" d="M76 727h513q16 0 16 -18v-102q0 -11 -6 -17.5t-18 -6.5h-303q-20 0 -20 -18v-110q0 -9 4.5 -14t10.5 -5h192q18 0 18 -18v-108q0 -15 -16 -15h-195q-14 0 -14 -14v-124q0 -7 2.5 -10t8.5 -3h326q10 0 14.5 -4t4.5 -13v-107q0 -20 -20 -20h-511q-12 0 -17.5 5.5t-5.5 17.5 v684q0 20 16 20z" />
<glyph unicode="F" horiz-adv-x="628" d="M64.5 721.5q4.5 5.5 11.5 5.5h506q16 0 16 -18l-1 -102q0 -24 -22 -24h-297q-10 0 -15 -4t-5 -14v-119q0 -19 15 -19h195q19 0 19 -17v-107q0 -15 -17 -15h-198q-14 0 -14 -14v-249q0 -13 -7 -19t-23 -6h-145q-13 0 -18 5.5t-5 17.5v684q0 9 4.5 14.5z" />
<glyph unicode="G" horiz-adv-x="741" d="M195.5 36.5q-75.5 46.5 -117.5 130.5t-42 194q0 112 43.5 197.5t122 132t180.5 46.5q82 0 146.5 -30t104.5 -78.5t52 -102.5l2 -15q0 -9 -3.5 -12t-11.5 -4l-149 -23q-9 0 -12 3.5t-6 14.5q-8 48 -40.5 79.5t-86.5 31.5q-66 0 -100.5 -55t-34.5 -179q0 -131 36.5 -185.5 t105.5 -54.5q49 0 79.5 24t43.5 66l2 18q2 6 2 8q0 8 -11 8h-105q-10 0 -14 4t-4 15v85q0 14 19 14l268 -1q16 0 24.5 -7.5t8.5 -19.5v-325q0 -7 -4.5 -11.5t-11.5 -4.5h-34q-19 0 -29 18l-34 62q-2 4 -4.5 3.5t-5.5 -4.5q-37 -40 -82 -64.5t-122 -24.5q-100 0 -175.5 46.5z " />
<glyph unicode="H" horiz-adv-x="741" d="M271 300q-5 0 -9 -3.5t-4 -9.5v-262q0 -13 -7 -19t-23 -6h-145q-13 0 -18 5.5t-5 17.5v684q0 9 4.5 14.5t11.5 5.5h165q8 0 12.5 -5t4.5 -13v-240q0 -18 15 -18h195q16 0 16 18v240q0 8 4.5 13t12.5 5h164q8 0 12.5 -5.5t4.5 -14.5v-684q0 -12 -5 -17.5t-18 -5.5h-145 q-16 0 -23 6t-7 19v262q0 6 -3.5 9.5t-10.5 3.5h-199z" />
<glyph unicode="I" horiz-adv-x="316" d="M241 727q17 0 17 -18v-683q0 -14 -7 -20t-23 -6h-145q-13 0 -18 5.5t-5 17.5v684q0 9 4.5 14.5t11.5 5.5h165z" />
<glyph unicode="J" horiz-adv-x="448" d="M340.5 38.5q-53.5 -48.5 -165.5 -48.5q-51 0 -119 14q-16 3 -22 11.5t-5 25.5l9 101q2 23 22 20q6 -1 22.5 -5t36.5 -4q39 0 58 21.5t19 72.5v460q0 20 18 20h163q17 0 17 -18v-510q0 -112 -53.5 -160.5z" />
<glyph unicode="K" horiz-adv-x="743" d="M717 13q0 -13 -15 -13h-171q-23 0 -31 18l-138 289q-4 6 -8 6t-13 -10l-77 -97q-6 -7 -6 -21v-160q0 -13 -7 -19t-23 -6h-145q-13 0 -18 5.5t-5 17.5v684q0 9 4.5 14.5t11.5 5.5h165q17 0 17 -18v-270q0 -11 4 -11t9 7l207 274q8 10 15.5 14t22.5 4h134q10 0 16 -4t6 -11 q0 -5 -5 -10l-173 -208q-6 -9 -6 -15t4 -13l221 -439q4 -6 4 -14z" />
<glyph unicode="L" horiz-adv-x="622" d="M64.5 721.5q4.5 5.5 11.5 5.5h165q17 0 17 -18v-552q0 -7 2.5 -10t8.5 -3h303q21 0 21 -17v-107q0 -9 -6 -14.5t-17 -5.5h-487q-13 0 -18 5.5t-5 17.5v684q0 9 4.5 14.5z" />
<glyph unicode="M" horiz-adv-x="944" d="M66 7q-6 7 -6 18v682q0 10 4.5 15t13.5 5h240q12 0 17 -3.5t9 -13.5l123 -358q3 -8 7 -8t7 8l115 350q8 25 24 25h248q17 0 17 -18v-684q0 -13 -6.5 -19t-21.5 -6h-147q-13 0 -18 5.5t-5 17.5v462q0 7 -4 7t-7 -8l-155 -467q-6 -17 -22 -17h-92q-18 0 -24 17l-155 460 q-3 9 -6 9t-3 -10v-456q0 -12 -4 -16t-17 -4h-116q-10 0 -16 7z" />
<glyph unicode="N" horiz-adv-x="744" d="M671 727q15 0 15 -16v-694q0 -8 -6 -12.5t-15 -4.5h-118q-8 0 -13.5 2.5t-12.5 11.5l-290 400q-4 5 -7 4.5t-3 -5.5v-393v-3q0 -9 -4.5 -13t-16.5 -4h-119q-21 0 -21 19v688q0 10 4.5 15t14.5 5h141q11 0 16.5 -3t13.5 -13l261 -367q5 -8 10 -8t5 12v361q0 18 20 18h125z " />
<glyph unicode="O" horiz-adv-x="761" d="M198.5 35q-77.5 45 -120 129t-42.5 198q0 113 43 198t120.5 131t181.5 46q103 0 181 -46t120.5 -131t42.5 -198t-42 -197t-120 -129.5t-182 -45.5q-105 0 -182.5 45zM485.5 181q31.5 54 31.5 178q0 127 -32.5 184.5t-103.5 57.5t-104 -57.5t-33 -184.5q0 -124 32.5 -178 t105.5 -54q72 0 103.5 54z" />
<glyph unicode="P" horiz-adv-x="708" d="M643 373.5q-33 -51.5 -94 -78t-140 -26.5h-140q-11 0 -11 -10v-234q0 -13 -7 -19t-23 -6h-146q-12 0 -17 5.5t-5 17.5v684q0 20 16 20h310q82 0 148 -26t104 -78t38 -127q0 -71 -33 -122.5zM446 563.5q-28 23.5 -72 23.5h-96q-11 0 -15.5 -4.5t-4.5 -15.5v-138 q0 -11 3 -15t11 -4h108q43 0 68.5 24.5t25.5 64.5q0 41 -28 64.5z" />
<glyph unicode="Q" horiz-adv-x="763" d="M79 560q43 85 120.5 131t181.5 46t182 -46t120 -131t42 -198q0 -93 -28 -165.5t-81 -120.5q-3 -2 -3 -8q0 -14 31 -31.5t65 -21.5q15 -2 15 -16v-96q0 -17 -8.5 -22t-31.5 -5q-67 0 -120 28.5t-97 86.5q-3 6 -14 4q-30 -5 -72 -5q-105 0 -182.5 45t-120 129t-42.5 198 q0 113 43 198zM276 181q32 -54 105 -54q74 0 105.5 54t31.5 179q0 126 -32.5 183.5t-104.5 57.5t-104.5 -57t-32.5 -184q0 -125 32 -179z" />
<glyph unicode="R" horiz-adv-x="716" d="M675 20q0 -9 -5 -14.5t-13 -5.5h-168q-19 0 -24 19l-98 263q-3 8 -9.5 11.5t-20.5 3.5h-67q-6 0 -9 -3.5t-3 -7.5v-260q0 -14 -7 -20t-23 -6h-146q-12 0 -17 5.5t-5 17.5v684q0 20 16 20h318q137 0 212.5 -53.5t75.5 -150.5q0 -69 -36.5 -121t-94.5 -73q-5 -2 -5 -10 q0 -4 1 -7l126 -283q2 -7 2 -9zM452.5 449.5q24.5 21.5 24.5 61.5q0 41 -27 63.5t-69 22.5h-103q-11 0 -15.5 -4t-4.5 -14v-131q0 -11 3 -15.5t11 -4.5h109q47 0 71.5 21.5z" />
<glyph unicode="S" horiz-adv-x="676" d="M431 585.5q-30 15.5 -82 15.5q-55 0 -83 -18.5t-28 -45.5q0 -19 16 -35.5t55 -26.5l158 -43q89 -23 133 -78t44 -132q0 -70 -37 -122.5t-105.5 -81t-160.5 -28.5q-104 0 -188.5 35t-120.5 94q-5 9 -5 14q0 8 11 16l88 61q11 7 19 7q10 0 16 -8q35 -45 71 -64t94 -19 q60 0 95 18t35 51q0 45 -72 65l-149 39q-86 22 -135 79.5t-49 132.5q0 63 36 114.5t102.5 81.5t153.5 30q84 0 156.5 -28.5t108.5 -75.5q6 -12 6 -17q0 -4 -6 -10l-96 -70q-4 -4 -9 -4q-6 0 -18 12q-24 26 -54 41.5z" />
<glyph unicode="T" horiz-adv-x="679" d="M30 707q0 8 5.5 14t16.5 6h575q11 0 16.5 -6t5.5 -14v-104q0 -17 -20 -17h-178q-11 0 -11 -10v-556q0 -20 -18 -20h-164q-17 0 -17 19v553q0 8 -2 11t-8 3h-180q-21 0 -21 17v104z" />
<glyph unicode="U" horiz-adv-x="709" d="M580.5 56.5q-78.5 -66.5 -225.5 -66.5q-164 0 -234 76t-70 232v409q0 20 18 20h163q17 0 17 -18v-435q0 -75 31 -109.5t89 -34.5q126 0 126 147v430q0 20 18 20h130q16 0 16 -18v-431q0 -155 -78.5 -221.5z" />
<glyph unicode="V" horiz-adv-x="728" d="M698 719q5 -8 2 -17l-232 -679q-6 -23 -33 -23h-142q-27 0 -33 23l-231 679q-2 6 -2 8q0 7 5 12t14 5h167q16 0 22 -18l145 -462q3 -7 6 -7q2 0 5 8l139 461q1 8 7.5 13t15.5 5h129q11 0 16 -8z" />
<glyph unicode="W" horiz-adv-x="1075" d="M1039.5 720.5q7.5 -6.5 7.5 -16.5q0 -4 -2 -12l-199 -669q-5 -12 -12.5 -17.5t-21.5 -5.5h-120q-14 0 -22 5.5t-11 17.5l-112 385q-3 10 -6 10q-4 0 -8 -12l-113 -383q-5 -23 -32 -23h-125q-26 0 -33 23l-200 669q-1 4 -1 11q0 11 7 17.5t21 6.5h143q13 0 19 -4.5 t9 -13.5l115 -403q3 -12 7 -12q3 0 5 8l113 407q2 9 9 13.5t21 4.5h121q13 0 19.5 -4.5t9.5 -13.5l118 -411q2 -7 5.5 -8t5.5 6l112 413q3 18 28 18h101q14 0 21.5 -6.5z" />
<glyph unicode="X" horiz-adv-x="728" d="M702 15q0 -15 -25 -15h-157q-26 0 -36 18l-123 202q-8 13 -13 13q-7 0 -14 -13l-120 -202q-9 -18 -38 -18h-124q-25 0 -25 15q0 9 13 29l199 307q7 10 7 17q0 6 -7 16l-202 313q-5 8 -5 13q0 7 5 12t14 5h166q13 0 20.5 -4.5t13.5 -13.5l105 -178q5 -8 11 -8q5 0 10 8 l105 178q5 9 12.5 13.5t20.5 4.5h138q16 0 16 -13q0 -7 -6 -15l-191 -292q-6 -9 -6 -15q0 -7 8 -18l216 -330q12 -19 12 -29z" />
<glyph unicode="Y" horiz-adv-x="739" d="M714 716q0 -5 -4 -9l-230 -375q-6 -10 -7.5 -20t-1.5 -39v-247q0 -14 -6.5 -20t-22.5 -6h-145q-13 0 -18.5 5.5t-5.5 17.5v260q0 13 -2.5 21t-9.5 19l-231 379q-4 7 -4 11q0 14 21 14h173q12 0 18 -3.5t13 -14.5l132 -237q5 -9 9 -9q3 0 9 8l130 238q5 10 11.5 14t19.5 4 h136q16 0 16 -11z" />
<glyph unicode="Z" horiz-adv-x="684" d="M34 4.5q-5 4.5 -5 18.5v39q0 13 3 20t16 26l317 459q3 5 3 10t-11 5h-279q-11 0 -15 5t-4 17v105q0 18 15 18h560q17 0 17 -17v-46q0 -9 -3 -16t-12 -20l-328 -469q-2 -4 -2 -6q0 -7 12 -7h308q20 0 20 -17v-109q0 -9 -5.5 -14.5t-16.5 -5.5h-571q-14 0 -19 4.5z" />
<glyph unicode="[" horiz-adv-x="320" d="M58.5 722.5q5.5 4.5 17.5 4.5h216q14 0 14 -12v-70q0 -13 -14 -13h-76q-23 0 -23 -24v-656q0 -12 4 -15.5t15 -3.5h77q17 0 17 -14v-64q0 -17 -17 -17h-210q-12 0 -19 6.5t-7 17.5v846q0 10 5.5 14.5z" />
<glyph unicode="\" horiz-adv-x="365" d="M253.5 -3q-7.5 5 -11.5 18l-237 683q-3 9 -3 15q0 8 4 11t14 3h74q8 0 14.5 -4.5t8.5 -11.5l245 -702q1 -2 1 -6q0 -11 -16 -11h-74q-12 0 -19.5 5z" />
<glyph unicode="]" horiz-adv-x="320" d="M268 -138q0 -11 -7 -17.5t-20 -6.5h-210q-16 0 -16 17v64q0 14 16 14h78q11 0 14.5 3.5t3.5 15.5v656q0 24 -22 24h-77q-13 0 -13 13v70q0 12 13 12h216q13 0 18.5 -4.5t5.5 -14.5v-846z" />
<glyph unicode="^" horiz-adv-x="465" d="M242 332q-3 10 -11 10q-7 0 -11 -10l-82 -204q-3 -5 -8 -6t-15 -1h-75q-13 0 -13 10q0 5 3 11l151 352q7 17 21.5 26t29.5 9q16 0 29.5 -8.5t20.5 -25.5l152 -356q2 -6 2 -9q0 -10 -16 -10h-70q-23 0 -25 8z" />
<glyph unicode="_" horiz-adv-x="542" d="M499 -124q0 -13 -7 -19t-22 -6h-403q-13 0 -18.5 5t-5.5 17v81q0 21 17 21h423q7 0 11.5 -5t4.5 -13v-81z" />
<glyph unicode="`" horiz-adv-x="306" d="M45 736q5 3 11 0l232 -98q10 -5 10 -14l-2 -8l-13 -38q-6 -14 -16 -14q-3 0 -11 2l-227 58q-19 4 -19 19q0 6 2 10l25 72q3 8 8 11z" />
<glyph unicode="a" horiz-adv-x="556" d="M180 -10q-72 0 -115 40.5t-43 102.5q0 56 35 98.5t101 66t157 24.5l19 1q16 0 16 14v19q0 32 -18 49.5t-53 17.5q-27 0 -50 -12t-38 -40q-3 -5 -6 -7.5t-9 -2.5q-5 0 -9 1l-114 23q-10 2 -10 12q0 6 4 17q45 115 240 115q123 0 175.5 -42.5t52.5 -119.5v-343 q0 -14 -3.5 -19t-16.5 -5h-119q-10 0 -15 8t-8 22l-1 15q-1 9 -7 9t-17 -9q-64 -55 -148 -55zM346.5 238q-3.5 4 -11.5 4l-16 -1q-26 -1 -56 -10.5t-51 -28.5t-21 -45t18 -40.5t49 -14.5q36 0 64 22q28 24 28 44v57q0 9 -3.5 13z" />
<glyph unicode="b" horiz-adv-x="600" d="M72 0q-14 0 -19.5 5.5t-5.5 17.5v684q0 20 18 20h140q16 0 16 -19v-224q0 -13 7 -13q4 0 11 5q56 53 130 53q97 0 150.5 -71.5t53.5 -193.5q0 -127 -58 -200.5t-164 -73.5q-48 0 -87.5 22t-67.5 59q-3 3 -6 3q-5 0 -6 -6l-13 -46q-4 -12 -9.5 -17t-15.5 -5h-74zM221 180 q0 -39 24 -62.5t59 -23.5q46 0 69.5 39t23.5 127q0 86 -22 123.5t-67 37.5q-48 0 -87 -46v-195z" />
<glyph unicode="c" horiz-adv-x="541" d="M402.5 506q47.5 -23 77 -59t39.5 -76q2 -7 2 -9q0 -12 -17 -14l-119 -8q-1 0 -2 -0.5t-3 0.5q-8 0 -11 12q-10 31 -25 48t-47 17q-45 0 -70 -39t-25 -118q0 -160 104 -160q38 0 60 19.5t46 60.5q2 4 5.5 5t12.5 0l83 -17q9 -1 9 -10q0 -3 -2 -11q-8 -32 -35 -68.5 t-75.5 -62.5t-117.5 -26q-76 0 -137 34t-95.5 94.5t-34.5 139.5t35 141t96 96t136 34q63 0 110.5 -23z" />
<glyph unicode="d" horiz-adv-x="600" d="M382 21v23q0 4 -2 6t-4 2q-3 0 -8 -4q-30 -28 -62.5 -43t-78.5 -15q-90 0 -145 68.5t-55 198.5q0 80 28.5 142t76.5 96t105 34q37 0 66.5 -11.5t58.5 -39.5q6 -6 11 -6q7 0 7 14v223q0 18 16 18h140q18 0 18 -20v-684q0 -12 -5.5 -17.5t-19.5 -5.5h-124q-23 0 -23 21z M341.5 409q-18.5 10 -43.5 10q-44 0 -69 -38.5t-25 -122.5q0 -86 24 -123.5t69 -37.5q34 0 58 21.5t24 53.5v205q-19 22 -37.5 32z" />
<glyph unicode="e" horiz-adv-x="576" d="M237.5 135q32.5 -28 81.5 -28q31 0 58 13.5t58 46.5q4 4 9 4t10 -2l80 -34q9 -4 9 -11q0 -3 -5 -10q-49 -71 -104 -97.5t-138 -26.5q-76 0 -138 33.5t-97.5 92.5t-35.5 136q0 81 36.5 144.5t97.5 98t134 34.5q76 0 135 -32.5t92.5 -95.5t33.5 -149q0 -14 -2.5 -19 t-14.5 -6h-318q-14 0 -14 -15q0 -49 32.5 -77zM368 319q9 0 12.5 2.5t3.5 11.5q0 34 -22 63t-61 29q-41 0 -67.5 -28.5t-25.5 -76.5z" />
<glyph unicode="f" horiz-adv-x="402" d="M377.5 514q5.5 -5 5.5 -14v-83q0 -16 -18 -16h-71q-11 0 -11 -12v-369q0 -20 -17 -20h-142q-15 0 -15 19v372q0 10 -8 10h-63q-10 0 -14.5 4t-4.5 12v83q0 19 21 19h56q7 0 10 3.5t3 12.5v56q0 64 39 100t109 36h106q12 0 18.5 -6t6.5 -16v-75q0 -8 -4 -13t-12 -5h-47 q-19 0 -33 -15.5t-14 -37.5v-28q0 -12 12 -12h72q10 0 15.5 -5z" />
<glyph unicode="g" horiz-adv-x="630" d="M606.5 541q5.5 -6 5.5 -18v-77q0 -15 -6.5 -21.5t-18.5 -3.5q-18 5 -34 5q-8 0 -11 -1q-27 -1 -20 -22q8 -22 8 -37q0 -46 -28.5 -82t-83.5 -57.5t-133 -21.5q-51 0 -74.5 -8t-23.5 -22q0 -11 12 -15.5t39 -6.5l145 -9q102 -7 152 -44.5t50 -99.5q0 -51 -33 -89.5 t-97.5 -60.5t-157.5 -22q-149 0 -222.5 30.5t-73.5 93.5q0 30 25 50.5t70 34.5q6 2 6 5t-6 6q-61 28 -61 76q0 55 101 96q6 3 7.5 5.5t-5.5 6.5q-48 21 -73 54.5t-25 78.5q0 74 66 118t190 44q53 0 94 -11.5t67 -32.5q6 -5 13 -5q9 0 15 7q19 25 51.5 43.5t55.5 18.5 q9 0 14.5 -6zM349 308.5q22 21.5 22 54.5q0 36 -22 58.5t-66 22.5q-41 0 -64 -23t-23 -58q0 -33 23.5 -54.5t63.5 -21.5q44 0 66 21.5zM216 19q-31 2 -52 -11.5t-21 -32.5q0 -33 37.5 -49.5t125.5 -16.5q62 0 94.5 15.5t32.5 43.5q0 18 -18.5 30.5t-52.5 13.5z" />
<glyph unicode="h" horiz-adv-x="588" d="M53 5q-5 5 -5 18v684q0 20 17 20h138q17 0 17 -18v-248q0 -7 3 -7t8 3q43 39 81.5 55.5t80.5 16.5q73 0 113.5 -41.5t40.5 -118.5v-343q0 -26 -28 -26h-126q-12 0 -16.5 5t-4.5 18v325q0 26 -16 41.5t-44 15.5q-27 0 -48 -13.5t-42 -41.5v-325q0 -13 -6.5 -19t-22.5 -6 h-122q-13 0 -18 5z" />
<glyph unicode="i" horiz-adv-x="268" d="M222 599q0 -14 -7 -20.5t-23 -6.5h-122q-13 0 -18.5 6t-5.5 18v110q0 9 5 15t13 6h141q8 0 12.5 -5.5t4.5 -13.5v-109zM221 26q0 -14 -6.5 -20t-22.5 -6h-121q-14 0 -19 5.5t-5 17.5v476q0 20 18 20h140q16 0 16 -18v-475z" />
<glyph unicode="j" horiz-adv-x="269" d="M222 599q0 -14 -6 -20.5t-22 -6.5h-122q-14 0 -19.5 6t-5.5 18v110q0 9 5.5 15t13.5 6h140q16 0 16 -19v-109zM174.5 -120.5q-47.5 -46.5 -145.5 -46.5q-41 0 -53.5 4.5t-12.5 18.5v89q0 8 4.5 15t12.5 9l38 5q14 2 22 13.5t8 36.5v475q0 20 18 20h140q16 0 16 -18v-483 q0 -92 -47.5 -138.5z" />
<glyph unicode="k" horiz-adv-x="605" d="M590 18q0 -7 -5 -12.5t-14 -5.5h-149q-19 0 -29 23l-85 185q-4 10 -10 10q-4 0 -10 -6l-58 -55q-8 -8 -8 -27v-104q0 -14 -6 -20t-23 -6h-120q-14 0 -19.5 5.5t-5.5 17.5v684q0 9 4.5 14.5t12.5 5.5h141q16 0 16 -18v-385q0 -7 4 -7q2 0 7 4l166 183q14 15 28 15h121 q18 0 18 -11q0 -8 -6 -15l-133 -132q-7 -9 -7 -15t6 -17l162 -304z" />
<glyph unicode="l" horiz-adv-x="269" d="M222 26q0 -14 -6.5 -20t-22.5 -6h-122q-14 0 -19.5 5.5t-5.5 17.5l4 684q0 20 18 20h138q8 0 12 -5t4 -13v-683z" />
<glyph unicode="m" horiz-adv-x="905" d="M52.5 5q-5.5 5 -5.5 18v476q0 10 4.5 15t12.5 5h138q17 0 17 -17v-47q0 -8 4 -8q3 0 7 4q78 79 160 79q51 0 87.5 -24.5t51.5 -68.5q2 -3 4 -3q4 0 9 5q31 38 78.5 64t91.5 26q69 0 110 -42.5t41 -118.5v-342q0 -26 -27 -26h-126q-11 0 -16 5t-5 18v325q0 26 -15.5 41.5 t-43.5 15.5q-21 0 -42.5 -12.5t-36.5 -30.5q-9 -13 -9 -28v-308q0 -26 -27 -26h-126q-11 0 -16 5.5t-5 17.5v325q0 26 -15.5 41.5t-42.5 15.5t-47.5 -13.5t-41.5 -41.5v-325q0 -13 -6.5 -19t-22.5 -6h-121q-13 0 -18.5 5z" />
<glyph unicode="n" horiz-adv-x="588" d="M52.5 5q-5.5 5 -5.5 18v476q0 20 17 20h139q17 0 17 -17v-47q0 -8 4 -8q3 0 7 4q77 78 161 78q70 0 112.5 -42.5t42.5 -114.5v-346q0 -26 -28 -26h-126q-12 0 -16.5 5t-4.5 18v325q0 26 -16.5 41.5t-44.5 15.5q-27 0 -48 -13.5t-42 -41.5v-325q0 -13 -6.5 -19t-22.5 -6 h-121q-13 0 -18.5 5z" />
<glyph unicode="o" horiz-adv-x="588" d="M154 24q-61 34 -95 94.5t-34 138.5q0 79 35 141.5t96.5 96.5t137.5 34q79 0 140 -34.5t95 -97t34 -140.5q0 -77 -34.5 -137.5t-96 -95t-139.5 -34.5t-139 34zM363.5 142q22.5 38 22.5 119q0 80 -23 119t-69 39t-69 -39t-23 -119t23 -118.5t69 -38.5q47 0 69.5 38z" />
<glyph unicode="p" horiz-adv-x="600" d="M216.5 514.5q4.5 -4.5 4.5 -16.5v-25q0 -7 6 -7q5 0 9 4q31 29 62.5 44t77.5 15q89 0 143 -67.5t54 -198.5q0 -138 -56 -205.5t-148 -67.5q-37 0 -68 12t-60 38q-12 10 -15 10q-5 0 -5 -15v-178q0 -19 -16 -19h-141q-17 0 -17 20v638q0 13 5.5 18t19.5 5h127 q13 0 17.5 -4.5zM302 98q46 0 70.5 38.5t24.5 131.5q0 85 -24 119t-70 34q-34 0 -58 -19.5t-24 -45.5v-214q34 -44 81 -44z" />
<glyph unicode="q" horiz-adv-x="600" d="M529 519q14 0 19.5 -5.5t5.5 -17.5v-638q0 -20 -18 -20h-140q-17 0 -17 19v171q0 16 -6 16q-5 0 -10 -6q-62 -48 -127 -48q-97 0 -153 70.5t-56 199.5q0 81 26.5 142.5t76 94.5t116.5 33q98 0 163 -80q5 -5 7 -5t5 8l14 45q6 21 23 21h71zM379 338q0 39 -22.5 64 t-58.5 25q-43 0 -68.5 -40.5t-25.5 -125.5q0 -87 23.5 -125.5t67.5 -38.5q49 0 84 38v203z" />
<glyph unicode="r" horiz-adv-x="432" d="M52 5.5q-5 5.5 -5 17.5v476q0 20 17 20h135q7 0 11.5 -4.5t4.5 -12.5v-57q0 -9 6 -9q5 0 9 6q27 37 68 62t76 25q37 0 37 -18v-132q0 -17 -18 -14q-39 9 -76 9q-36 0 -66 -23.5t-30 -51.5v-274q0 -13 -6.5 -19t-22.5 -6h-121q-14 0 -19 5.5z" />
<glyph unicode="s" horiz-adv-x="525" d="M264 426q-32 0 -53 -11.5t-21 -32.5q0 -11 9.5 -19t36.5 -15l108 -25q82 -18 120 -60.5t38 -100.5q0 -81 -66.5 -126.5t-174.5 -45.5q-88 0 -151 30t-88 77q-5 8 -5 15q0 8 7 11l76 40q8 4 15 4t12 -6q24 -30 52 -46t79 -16q39 0 64 11.5t25 33.5q0 14 -12.5 23.5 t-42.5 15.5l-100 20q-155 30 -155 154q0 50 27 89t79 61t123 22q73 0 130 -27t80 -66q7 -10 7 -17q0 -6 -7 -9l-80 -40q-6 -2 -10 -2q-9 0 -17 9q-39 49 -105 49z" />
<glyph unicode="t" horiz-adv-x="439" d="M293 401q-12 0 -12 -12v-212q0 -29 16.5 -42.5t51.5 -13.5h47q7 0 11.5 -5t4.5 -13l-1 -71q0 -20 -26 -25q-44 -7 -124 -7q-71 0 -112.5 33.5t-41.5 94.5v256q0 9 -3 13t-11 4h-53q-21 0 -21 19v83q0 16 19 16h63q9 0 11 11l14 147q1 10 4.5 14.5t12.5 4.5h126 q17 0 17 -20v-146q0 -10 10 -10h97q9 0 14.5 -4t5.5 -12v-84q0 -19 -23 -19h-97z" />
<glyph unicode="u" horiz-adv-x="585" d="M322 127q23 13 42 36v331q0 14 6.5 19.5t22.5 5.5h123q13 0 18.5 -5t5.5 -18l-4 -476q0 -20 -17 -20h-136q-16 0 -16 18v46q0 6 -3.5 7.5t-7.5 -3.5q-38 -41 -78 -59.5t-88 -18.5q-67 0 -108 43t-41 118v342q0 26 28 26h126q12 0 16.5 -4.5t4.5 -18.5v-324 q0 -27 16 -42.5t42 -15.5q25 0 48 13z" />
<glyph unicode="v" horiz-adv-x="571" d="M549.5 514.5q4.5 -4.5 4.5 -11.5q0 -3 -2 -9l-192 -471q-5 -12 -13 -17.5t-21 -5.5h-81q-14 0 -21.5 5.5t-12.5 17.5l-192 471q-1 2 -1 7q0 8 4.5 13t13.5 5h145q9 0 15.5 -4.5t9.5 -12.5l99 -257q3 -9 7 -9t7 10l97 256q8 17 23 17h98q8 0 12.5 -4.5z" />
<glyph unicode="w" horiz-adv-x="808" d="M787 514.5q5 -4.5 5 -12.5l-2 -8l-164 -477q-3 -9 -8 -13t-13 -4h-92q-21 0 -27 20l-73 236q-3 11 -8 11q-4 0 -7 -11l-77 -239q-3 -9 -7.5 -13t-14.5 -4h-95q-20 0 -26 20l-158 474l-2 8q0 8 4.5 12.5t13.5 4.5h135q7 0 14 -4.5t9 -12.5l77 -242q2 -10 7 -10q3 0 8 11 l74 241q2 8 8 12.5t14 4.5h96q7 0 14 -4.5t9 -12.5l72 -242q2 -10 7 -10q3 0 8 11l75 241q9 17 24 17h87q8 0 13 -4.5z" />
<glyph unicode="x" horiz-adv-x="594" d="M580 11q0 -11 -21 -11h-145q-27 0 -38 18l-88 126q-9 13 -13 13t-12 -12l-90 -127q-10 -18 -37 -18h-92q-12 0 -19 4t-7 12q0 10 14 29l153 200q8 10 8 15q0 7 -8 17l-155 212q-5 7 -5 13q0 8 6 12.5t16 4.5h138q15 0 23 -3.5t13 -13.5l77 -112q5 -8 9 -8t9 8l71 112 q7 10 14.5 13.5t21.5 3.5h102q19 0 19 -10q0 -7 -6 -15l-140 -190q-7 -8 -7 -15t8 -18l167 -233q14 -19 14 -27z" />
<glyph unicode="y" horiz-adv-x="566" d="M56.5 -158.5q-11.5 3.5 -11.5 16.5v88q0 18 28 18h67q30 0 50 17.5t20 38.5q0 4 -2 11l-190 462q-1 3 -1 8q0 8 4.5 13t13.5 5h145q9 0 15.5 -4.5t9.5 -12.5l95 -263q3 -10 8 -10t9 10l95 263q8 17 23 17h98q9 0 13.5 -4.5t4.5 -12.5l-2 -8l-196 -478q-31 -75 -63 -112.5 t-75 -51.5t-114 -14q-33 0 -44.5 3.5z" />
<glyph unicode="z" horiz-adv-x="521" d="M25.5 5q-4.5 5 -4.5 18v41q0 13 3 21t16 24l223 288q4 4 4 9q0 6 -13 6h-192q-11 0 -15.5 4t-4.5 16v70q0 8 4.5 12.5t12.5 4.5h418q8 0 12.5 -4t4.5 -12v-47q0 -11 -3 -18.5t-12 -20.5l-227 -291q-5 -6 -5 -9q0 -7 12 -7h217q20 0 20 -17v-73q0 -9 -5.5 -14.5 t-16.5 -5.5h-430q-14 0 -18.5 5z" />
<glyph unicode="{" horiz-adv-x="379" d="M138.5 670q24.5 29 63 43t78.5 14h71q14 0 14 -12v-70q0 -13 -14 -13h-34q-41 0 -52 -13t-11 -39v-192q-1 -46 -33.5 -69t-75.5 -29q-6 -1 -6.5 -3t6.5 -3q107 -9 109 -104v-194q0 -28 13 -40.5t50 -12.5h31q17 0 17 -14v-64q0 -17 -17 -17h-65q-42 0 -81 14.5 t-63.5 43.5t-24.5 70v198q0 37 -25.5 59.5t-77.5 22.5q-11 0 -11 18v48q0 17 11 17q55 1 79 21.5t24 65.5v184q0 41 24.5 70z" />
<glyph unicode="|" horiz-adv-x="243" d="M84 -162q-12 0 -18 7t-6 22v941q0 12 5.5 17t15.5 5h83q20 0 20 -18v-957q0 -8 -5.5 -12.5t-12.5 -4.5h-82z" />
<glyph unicode="}" horiz-adv-x="379" d="M266 416q0 -45 24 -65.5t78 -21.5q11 0 11 -17v-48q0 -18 -11 -18q-51 0 -76.5 -22.5t-25.5 -59.5v-198q0 -41 -24.5 -70t-64 -43.5t-81.5 -14.5h-65q-16 0 -16 17v64q0 14 16 14h32q36 0 49 12.5t13 40.5v194q2 95 109 104q7 1 6.5 3t-6.5 3q-43 6 -75.5 29t-33.5 69 v192q0 26 -11 39t-51 13h-35q-13 0 -13 13v70q0 12 13 12h71q40 0 79 -14t63.5 -43t24.5 -70v-184z" />
<glyph unicode="~" horiz-adv-x="610" d="M488.5 300.5q-39.5 -22.5 -81.5 -22.5q-29 0 -52.5 9.5t-53.5 27.5q-29 15 -47 22.5t-38 7.5q-31 0 -54.5 -17t-53.5 -50q-5 -5 -10 -5t-9 6l-36 60q-2 3 -2 8q0 8 10 18q45 45 79 66t78 21q29 0 52 -9.5t55 -27.5q28 -16 43.5 -23t35.5 -7q29 0 53.5 16.5t43.5 43.5 q6 8 12 8q8 0 14 -11l29 -48q4 -5 4 -12t-6 -16q-26 -43 -65.5 -65.5z" />
<glyph unicode="&#xa2;" horiz-adv-x="546" d="M522 267q0 -3 -2 -11q-12 -45 -54.5 -90t-112.5 -61v-79q0 -13 -6.5 -19.5t-21.5 -6.5h-58q-14 0 -19.5 6t-5.5 18v79q-64 10 -113 45.5t-76.5 92t-27.5 126.5t27.5 127t76.5 93t113 47v68q0 13 6.5 19t21.5 6h59q13 0 18.5 -6t5.5 -17v-73q66 -15 109.5 -57.5 t56.5 -93.5q2 -8 2 -10q0 -11 -17 -13l-119 -8q-1 0 -2 -0.5t-3 0.5q-8 0 -11 12q-10 31 -25 48t-47 17q-45 0 -70 -39t-25 -119q0 -159 104 -159q38 0 60 19.5t46 60.5q2 4 5.5 5t12.5 0l83 -18q9 -1 9 -9z" />
<glyph unicode="&#xa3;" horiz-adv-x="641" d="M12 18v111q0 14 13 14h19q83 0 83 86q0 36 -6 99q-1 10 -12 10h-83q-4 0 -7.5 3.5t-3.5 9.5v68q0 11 11 11h62q12 0 11 13l-8 82q-1 7 -1 22q0 61 33 103.5t87.5 64.5t118.5 22q77 0 145 -37t99 -108q1 -2 1 -6q0 -8 -11 -11l-119 -35q-3 -1 -8 -1q-10 0 -14 8 q-22 54 -66 54q-29 0 -46 -19t-17 -53t11 -88q1 -5 4.5 -8t8.5 -3h117q11 0 11 -10v-71q0 -11 -11 -11h-105q-10 0 -10 -10q1 -52 -7 -92q-9 -45 -43 -78q-5 -5 -5 -9q0 -5 8 -5h96q42 0 65.5 15t35.5 51q4 10 15 10h8l107 -22q21 -5 16 -23q-21 -84 -82.5 -129.5 t-150.5 -45.5h-354q-16 0 -16 18z" />
<glyph unicode="&#xa5;" horiz-adv-x="661" d="M678 716q0 -4 -3 -9l-216 -352h109q8 0 12.5 -5t4.5 -13v-48q0 -13 -7 -18.5t-22 -5.5h-120v-73h132q8 0 12.5 -5t4.5 -13v-48q0 -12 -7 -18t-22 -6h-120v-76q0 -14 -7 -20t-22 -6h-145q-13 0 -18.5 5.5t-5.5 17.5v79h-125q-13 0 -18 5t-5 16v49q0 20 17 20h131v73h-125 q-13 0 -18 4.5t-5 16.5v48q0 21 17 21h100l-212 347q-4 7 -4 11q0 14 21 14h173q13 0 19 -4t12 -14l132 -237q5 -9 8 -9q5 0 9 8l131 238q6 10 12 14t18 4h136q16 0 16 -11z" />
<glyph unicode="&#xa8;" horiz-adv-x="389" d="M161 615q0 -22 -26 -22h-106q-10 0 -14.5 5t-4.5 15v96q0 18 14 18h122q15 0 15 -17v-95zM379 615q0 -11 -6.5 -16.5t-19.5 -5.5h-105q-12 0 -16.5 5t-4.5 15v96q0 18 15 18h123q14 0 14 -17v-95z" />
<glyph unicode="&#xa9;" horiz-adv-x="813" d="M219 40q-86 50 -136 136t-50 188q0 101 50 186.5t136 136t188 50.5q101 0 186.5 -50.5t136 -136t50.5 -186.5q0 -102 -50.5 -188t-136 -136t-186.5 -50q-102 0 -188 50zM549 116q62 35 96 98.5t34 149.5q0 84 -34 148t-96 99.5t-142 35.5q-82 0 -143.5 -35.5t-95.5 -99.5 t-34 -148q0 -86 34 -149.5t95.5 -98.5t143.5 -35q80 0 142 35zM526 536q46 -37 59 -86q1 -3 1 -7q0 -9 -13 -11l-92 -7h-3q-4 0 -6 2.5t-4 8.5q-6 23 -18 36.5t-36 13.5q-34 0 -53 -30t-19 -90q0 -122 78 -122q30 0 47 15t35 47q3 6 14 3l64 -14q8 -2 8 -7l-2 -8 q-7 -25 -27.5 -53t-58 -48.5t-90.5 -20.5q-59 0 -105.5 26t-73 73t-26.5 107t26.5 108t73 74.5t105.5 26.5q70 0 116 -37z" />
<glyph unicode="&#xab;" horiz-adv-x="490" d="M242 73q1 -1 1 -4q0 -8 -16 -8h-62q-12 0 -15 10l-97 161q-6 11 -6 20t5 18l98 172q4 6 6.5 8t8.5 2h65q7 0 10.5 -4t0.5 -11l-64 -173q-2 -8 -2 -12t2 -12zM440 73l1 -4q0 -8 -15 -8h-63q-10 0 -15 10l-96 161q-6 11 -6 20t5 18l97 172q4 6 7 8t9 2h64q7 0 10.5 -4 t0.5 -11l-63 -173q-2 -8 -2 -12t2 -12z" />
<glyph unicode="&#xad;" horiz-adv-x="372" d="M328 221q0 -13 -6.5 -19t-22.5 -6h-231q-14 0 -19 5.5t-5 17.5v81q0 19 17 19l252 1q6 0 10.5 -5t4.5 -13v-81z" />
<glyph unicode="&#xae;" horiz-adv-x="534" d="M150 301q-54 31 -85.5 84.5t-31.5 117.5q0 63 31.5 117t85.5 85.5t118 31.5q62 0 116 -31.5t85.5 -85.5t31.5 -117q0 -64 -31.5 -117.5t-85 -84.5t-116.5 -31q-64 0 -118 31zM385.5 379.5q44.5 45.5 44.5 123.5q0 76 -44.5 122.5t-117.5 46.5q-75 0 -119.5 -46.5 t-44.5 -122.5q0 -78 44.5 -123.5t119.5 -45.5q73 0 117.5 45.5zM371 392q0 -6 -5 -6h-56q-6 0 -9 6l-30 87q-1 2 -2.5 3.5t-6.5 1.5h-23q-4 0 -4 -4v-86q0 -8 -10 -8h-48q-6 0 -6 7v218q0 6 4 6h106q44 0 68.5 -16.5t24.5 -46.5q0 -21 -11.5 -36.5t-30.5 -23.5q-2 -1 -2 -5 l40 -94zM299 533.5q8 6.5 8 17.5t-8.5 17t-22.5 6h-34q-7 0 -7 -6v-34q0 -7 5 -7h38q13 0 21 6.5z" />
<glyph unicode="&#xb4;" horiz-adv-x="306" d="M296 653q2 -8 2 -10q0 -15 -19 -19l-228 -58q-8 -2 -10 -2q-10 0 -16 14l-13 38q-2 3 -2 9q0 9 9 13l232 98q2 1 6 1t8 -3t5 -9z" />
<glyph unicode="&#xb8;" horiz-adv-x="268" d="M223 -195q-36 -23 -89 -23q-72 0 -118 24q-9 7 -5 15l16 37q3 8 11 5q41 -23 74 -23q23 0 35.5 8t12.5 21q0 19 -20 29t-67 11q-8 0 -10.5 2t0.5 9l37 85h74l-20 -50l-1 -4q0 -4 7 -4q51 -1 75 -25t24 -55q0 -39 -36 -62z" />
<glyph unicode="&#xbb;" horiz-adv-x="490" d="M117 252q0 8 -2 12l-64 173q-1 2 -1 6q0 9 12 9h64q6 0 9 -2t7 -8l97 -172q6 -8 6 -18t-7 -20l-96 -161q-5 -10 -15 -10h-62q-19 0 -15 12l65 167q2 4 2 12zM315 252q0 8 -2 12l-64 173q-1 2 -1 5q0 10 12 10h65q6 0 9 -2t6 -8l98 -172q5 -9 5 -18t-6 -20l-96 -161 q-5 -10 -15 -10h-63q-19 0 -15 12l65 167q2 4 2 12z" />
<glyph unicode="&#xc1;" horiz-adv-x="769" d="M31.5 5q-4.5 5 -4.5 14q0 6 3 13l241 675q4 11 10 15.5t18 4.5h170q24 0 34 -24l238 -673q1 -3 1 -9q0 -9 -3.5 -15t-10.5 -6h-169q-16 0 -21 16l-43 127q-3 6 -5.5 8.5t-9.5 2.5h-222q-11 0 -14 -11l-46 -129q-5 -14 -22 -14h-132q-8 0 -12.5 5zM436 303q10 0 10 10 q0 5 -1 8l-71 197q-1 6 -6 6q-3 0 -5 -6l-72 -197q-2 -3 -2 -9q0 -9 12 -9h135zM523 861q2 -8 2 -10q0 -15 -19 -19l-228 -58q-8 -2 -10 -2q-10 0 -16 14l-13 38q-2 3 -2 9q0 9 9 13l232 98q2 1 6 1t8 -3t5 -9z" />
<glyph unicode="&#xc9;" horiz-adv-x="649" d="M76 727h513q16 0 16 -18v-102q0 -11 -6 -17.5t-18 -6.5h-303q-20 0 -20 -18v-110q0 -9 4.5 -14t10.5 -5h192q18 0 18 -18v-108q0 -15 -16 -15h-195q-14 0 -14 -14v-124q0 -7 2.5 -10t8.5 -3h326q10 0 14.5 -4t4.5 -13v-107q0 -20 -20 -20h-511q-12 0 -17.5 5.5t-5.5 17.5 v684q0 20 16 20zM472 861q2 -8 2 -10q0 -15 -19 -19l-228 -58q-8 -2 -10 -2q-10 0 -16 14l-13 38q-2 3 -2 9q0 9 9 13l232 98q2 1 6 1t8 -3t5 -9z" />
<glyph unicode="&#xcd;" horiz-adv-x="316" d="M241 727q17 0 17 -18v-683q0 -14 -7 -20t-23 -6h-145q-13 0 -18 5.5t-5 17.5v684q0 9 4.5 14.5t11.5 5.5h165zM301 861q2 -8 2 -10q0 -15 -19 -19l-228 -58q-8 -2 -10 -2q-10 0 -16 14l-13 38q-2 3 -2 9q0 9 9 13l232 98q2 1 6 1t8 -3t5 -9z" />
<glyph unicode="&#xd3;" horiz-adv-x="761" d="M198.5 35q-77.5 45 -120 129t-42.5 198q0 113 43 198t120.5 131t181.5 46q103 0 181 -46t120.5 -131t42.5 -198t-42 -197t-120 -129.5t-182 -45.5q-105 0 -182.5 45zM485.5 181q31.5 54 31.5 178q0 127 -32.5 184.5t-103.5 57.5t-104 -57.5t-33 -184.5q0 -124 32.5 -178 t105.5 -54q72 0 103.5 54zM523 861q2 -8 2 -10q0 -15 -19 -19l-228 -58q-8 -2 -10 -2q-10 0 -16 14l-13 38q-2 3 -2 9q0 9 9 13l232 98q2 1 6 1t8 -3t5 -9z" />
<glyph unicode="&#xd6;" horiz-adv-x="761" d="M198.5 35q-77.5 45 -120 129t-42.5 198q0 113 43 198t120.5 131t181.5 46q103 0 181 -46t120.5 -131t42.5 -198t-42 -197t-120 -129.5t-182 -45.5q-105 0 -182.5 45zM485.5 181q31.5 54 31.5 178q0 127 -32.5 184.5t-103.5 57.5t-104 -57.5t-33 -184.5q0 -124 32.5 -178 t105.5 -54q72 0 103.5 54zM347 823q0 -22 -26 -22h-106q-10 0 -14.5 5t-4.5 15v96q0 18 14 18h122q15 0 15 -17v-95zM565 823q0 -11 -6.5 -16.5t-19.5 -5.5h-105q-12 0 -16.5 5t-4.5 15v96q0 18 15 18h123q14 0 14 -17v-95z" />
<glyph unicode="&#xda;" horiz-adv-x="709" d="M580.5 56.5q-78.5 -66.5 -225.5 -66.5q-164 0 -234 76t-70 232v409q0 20 18 20h163q17 0 17 -18v-435q0 -75 31 -109.5t89 -34.5q126 0 126 147v430q0 20 18 20h130q16 0 16 -18v-431q0 -155 -78.5 -221.5zM511 861q2 -8 2 -10q0 -15 -19 -19l-228 -58q-8 -2 -10 -2 q-10 0 -16 14l-13 38q-2 3 -2 9q0 9 9 13l232 98q2 1 6 1t8 -3t5 -9z" />
<glyph unicode="&#xdc;" horiz-adv-x="709" d="M580.5 56.5q-78.5 -66.5 -225.5 -66.5q-164 0 -234 76t-70 232v409q0 20 18 20h163q17 0 17 -18v-435q0 -75 31 -109.5t89 -34.5q126 0 126 147v430q0 20 18 20h130q16 0 16 -18v-431q0 -155 -78.5 -221.5zM336 823q0 -22 -26 -22h-106q-10 0 -14.5 5t-4.5 15v96 q0 18 14 18h122q15 0 15 -17v-95zM554 823q0 -11 -6.5 -16.5t-19.5 -5.5h-105q-12 0 -16.5 5t-4.5 15v96q0 18 15 18h123q14 0 14 -17v-95z" />
<glyph unicode="&#xe1;" horiz-adv-x="556" d="M180 -10q-72 0 -115 40.5t-43 102.5q0 56 35 98.5t101 66t157 24.5l19 1q16 0 16 14v19q0 32 -18 49.5t-53 17.5q-27 0 -50 -12t-38 -40q-3 -5 -6 -7.5t-9 -2.5q-5 0 -9 1l-114 23q-10 2 -10 12q0 6 4 17q45 115 240 115q123 0 175.5 -42.5t52.5 -119.5v-343 q0 -14 -3.5 -19t-16.5 -5h-119q-10 0 -15 8t-8 22l-1 15q-1 9 -7 9t-17 -9q-64 -55 -148 -55zM346.5 238q-3.5 4 -11.5 4l-16 -1q-26 -1 -56 -10.5t-51 -28.5t-21 -45t18 -40.5t49 -14.5q36 0 64 22q28 24 28 44v57q0 9 -3.5 13zM429 653q2 -8 2 -10q0 -15 -19 -19l-228 -58 q-8 -2 -10 -2q-10 0 -16 14l-13 38q-2 3 -2 9q0 9 9 13l232 98q2 1 6 1t8 -3t5 -9z" />
<glyph unicode="&#xe9;" horiz-adv-x="576" d="M237.5 135q32.5 -28 81.5 -28q31 0 58 13.5t58 46.5q4 4 9 4t10 -2l80 -34q9 -4 9 -11q0 -3 -5 -10q-49 -71 -104 -97.5t-138 -26.5q-76 0 -138 33.5t-97.5 92.5t-35.5 136q0 81 36.5 144.5t97.5 98t134 34.5q76 0 135 -32.5t92.5 -95.5t33.5 -149q0 -14 -2.5 -19 t-14.5 -6h-318q-14 0 -14 -15q0 -49 32.5 -77zM368 319q9 0 12.5 2.5t3.5 11.5q0 34 -22 63t-61 29q-41 0 -67.5 -28.5t-25.5 -76.5zM436 653q2 -8 2 -10q0 -15 -19 -19l-228 -58q-8 -2 -10 -2q-10 0 -16 14l-13 38q-2 3 -2 9q0 9 9 13l232 98q2 1 6 1t8 -3t5 -9z" />
<glyph unicode="&#xed;" horiz-adv-x="268" d="M221 26q0 -14 -6.5 -20t-22.5 -6h-121q-14 0 -19 5.5t-5 17.5v476q0 20 18 20h140q16 0 16 -18v-475zM279 653q2 -8 2 -10q0 -15 -19 -19l-228 -58q-8 -2 -10 -2q-10 0 -16 14l-13 38q-2 3 -2 9q0 9 9 13l232 98q2 1 6 1t8 -3t5 -9z" />
<glyph unicode="&#xf3;" horiz-adv-x="588" d="M154 24q-61 34 -95 94.5t-34 138.5q0 79 35 141.5t96.5 96.5t137.5 34q79 0 140 -34.5t95 -97t34 -140.5q0 -77 -34.5 -137.5t-96 -95t-139.5 -34.5t-139 34zM363.5 142q22.5 38 22.5 119q0 80 -23 119t-69 39t-69 -39t-23 -119t23 -118.5t69 -38.5q47 0 69.5 38z M436 653q2 -8 2 -10q0 -15 -19 -19l-228 -58q-8 -2 -10 -2q-10 0 -16 14l-13 38q-2 3 -2 9q0 9 9 13l232 98q2 1 6 1t8 -3t5 -9z" />
<glyph unicode="&#xf6;" horiz-adv-x="588" d="M154 24q-61 34 -95 94.5t-34 138.5q0 79 35 141.5t96.5 96.5t137.5 34q79 0 140 -34.5t95 -97t34 -140.5q0 -77 -34.5 -137.5t-96 -95t-139.5 -34.5t-139 34zM363.5 142q22.5 38 22.5 119q0 80 -23 119t-69 39t-69 -39t-23 -119t23 -118.5t69 -38.5q47 0 69.5 38z M260 615q0 -22 -26 -22h-106q-10 0 -14.5 5t-4.5 15v96q0 18 14 18h122q15 0 15 -17v-95zM478 615q0 -11 -6.5 -16.5t-19.5 -5.5h-105q-12 0 -16.5 5t-4.5 15v96q0 18 15 18h123q14 0 14 -17v-95z" />
<glyph unicode="&#xfa;" horiz-adv-x="585" d="M322 127q23 13 42 36v331q0 14 6.5 19.5t22.5 5.5h123q13 0 18.5 -5t5.5 -18l-4 -476q0 -20 -17 -20h-136q-16 0 -16 18v46q0 6 -3.5 7.5t-7.5 -3.5q-38 -41 -78 -59.5t-88 -18.5q-67 0 -108 43t-41 118v342q0 26 28 26h126q12 0 16.5 -4.5t4.5 -18.5v-324 q0 -27 16 -42.5t42 -15.5q25 0 48 13zM431 653q2 -8 2 -10q0 -15 -19 -19l-228 -58q-8 -2 -10 -2q-10 0 -16 14l-13 38q-2 3 -2 9q0 9 9 13l232 98q2 1 6 1t8 -3t5 -9z" />
<glyph unicode="&#xfc;" horiz-adv-x="585" d="M322 127q23 13 42 36v331q0 14 6.5 19.5t22.5 5.5h123q13 0 18.5 -5t5.5 -18l-4 -476q0 -20 -17 -20h-136q-16 0 -16 18v46q0 6 -3.5 7.5t-7.5 -3.5q-38 -41 -78 -59.5t-88 -18.5q-67 0 -108 43t-41 118v342q0 26 28 26h126q12 0 16.5 -4.5t4.5 -18.5v-324 q0 -27 16 -42.5t42 -15.5q25 0 48 13zM255 615q0 -22 -26 -22h-106q-10 0 -14.5 5t-4.5 15v96q0 18 14 18h122q15 0 15 -17v-95zM473 615q0 -11 -6.5 -16.5t-19.5 -5.5h-105q-12 0 -16.5 5t-4.5 15v96q0 18 15 18h123q14 0 14 -17v-95z" />
<glyph unicode="&#x131;" horiz-adv-x="268" d="M221 26q0 -14 -6.5 -20t-22.5 -6h-121q-14 0 -19 5.5t-5 17.5v476q0 20 18 20h140q16 0 16 -18v-475z" />
<glyph unicode="&#x150;" horiz-adv-x="761" d="M198.5 35q-77.5 45 -120 129t-42.5 198q0 113 43 198t120.5 131t181.5 46q103 0 181 -46t120.5 -131t42.5 -198t-42 -197t-120 -129.5t-182 -45.5q-105 0 -182.5 45zM485.5 181q31.5 54 31.5 178q0 127 -32.5 184.5t-103.5 57.5t-104 -57.5t-33 -184.5q0 -124 32.5 -178 t105.5 -54q72 0 103.5 54zM385 883q7 -12 7 -17q0 -8 -11 -16l-138 -84q-11 -7 -16 -7q-6 0 -12 7l-29 31q-7 7 -7 15q0 5 4 8l134 120q7 5 11 5q6 0 11 -6zM589 883q7 -10 7 -17q0 -9 -11 -16l-138 -84q-11 -7 -16 -7q-6 0 -12 7l-30 31q-6 9 -6 14q0 6 5 9l134 120 q5 5 11 5q4 0 10 -6z" />
<glyph unicode="&#x151;" horiz-adv-x="588" d="M154 24q-61 34 -95 94.5t-34 138.5q0 79 35 141.5t96.5 96.5t137.5 34q79 0 140 -34.5t95 -97t34 -140.5q0 -77 -34.5 -137.5t-96 -95t-139.5 -34.5t-139 34zM363.5 142q22.5 38 22.5 119q0 80 -23 119t-69 39t-69 -39t-23 -119t23 -118.5t69 -38.5q47 0 69.5 38z M297 675q7 -12 7 -17q0 -8 -11 -16l-138 -84q-11 -7 -16 -7q-6 0 -12 7l-29 31q-7 7 -7 15q0 5 4 8l134 120q7 5 11 5q6 0 11 -6zM501 675q7 -10 7 -17q0 -9 -11 -16l-138 -84q-11 -7 -16 -7q-6 0 -12 7l-30 31q-6 9 -6 14q0 6 5 9l134 120q5 5 11 5q4 0 10 -6z" />
<glyph unicode="&#x170;" horiz-adv-x="709" d="M580.5 56.5q-78.5 -66.5 -225.5 -66.5q-164 0 -234 76t-70 232v409q0 20 18 20h163q17 0 17 -18v-435q0 -75 31 -109.5t89 -34.5q126 0 126 147v430q0 20 18 20h130q16 0 16 -18v-431q0 -155 -78.5 -221.5zM373 883q7 -12 7 -17q0 -8 -11 -16l-138 -84q-11 -7 -16 -7 q-6 0 -12 7l-29 31q-7 7 -7 15q0 5 4 8l134 120q7 5 11 5q6 0 11 -6zM577 883q7 -10 7 -17q0 -9 -11 -16l-138 -84q-11 -7 -16 -7q-6 0 -12 7l-30 31q-6 9 -6 14q0 6 5 9l134 120q5 5 11 5q4 0 10 -6z" />
<glyph unicode="&#x171;" horiz-adv-x="585" d="M322 127q23 13 42 36v331q0 14 6.5 19.5t22.5 5.5h123q13 0 18.5 -5t5.5 -18l-4 -476q0 -20 -17 -20h-136q-16 0 -16 18v46q0 6 -3.5 7.5t-7.5 -3.5q-38 -41 -78 -59.5t-88 -18.5q-67 0 -108 43t-41 118v342q0 26 28 26h126q12 0 16.5 -4.5t4.5 -18.5v-324 q0 -27 16 -42.5t42 -15.5q25 0 48 13zM292 675q7 -12 7 -17q0 -8 -11 -16l-138 -84q-11 -7 -16 -7q-6 0 -12 7l-29 31q-7 7 -7 15q0 5 4 8l134 120q7 5 11 5q6 0 11 -6zM496 675q7 -10 7 -17q0 -9 -11 -16l-138 -84q-11 -7 -16 -7q-6 0 -12 7l-30 31q-6 9 -6 14q0 6 5 9 l134 120q5 5 11 5q4 0 10 -6z" />
<glyph unicode="&#x2c6;" horiz-adv-x="392" d="M211 651q-5 6 -9 9.5t-7 3.5q-5 0 -16 -13l-48 -53q-5 -6 -8.5 -7t-14.5 -1h-89q-9 0 -9 5q0 3 7 12l107 115q6 8 13.5 11t20.5 3h83q16 0 26 -12l106 -117q8 -10 8 -13q0 -4 -9 -4h-95q-9 0 -14 1.5t-10 6.5z" />
<glyph unicode="&#x2da;" horiz-adv-x="244" d="M201.5 588.5q-32.5 -32.5 -79.5 -32.5t-79.5 33t-32.5 81q0 45 33 77t79 32q47 0 79.5 -32.5t32.5 -78.5q0 -47 -32.5 -79.5zM155.5 701.5q-14.5 13.5 -33.5 13.5q-21 0 -35.5 -13.5t-14.5 -34.5q0 -19 15 -34t35 -15q19 0 33.5 15t14.5 34q0 21 -14.5 34.5z" />
<glyph unicode="&#x2dc;" horiz-adv-x="427" d="M343.5 613.5q-24.5 -7.5 -52.5 -7.5q-19 0 -39.5 4t-39.5 10q-44 15 -73 15q-20 0 -34.5 -5.5t-33.5 -17.5q-7 -5 -11 -5q-6 0 -9 11l-16 48q-2 8 -2 10q0 8 9 18q22 18 42.5 28t49.5 10q33 0 88 -18q46 -14 69 -14q33 0 71 25q5 4 11 4q8 0 11 -12l14 -57l1 -6 q0 -11 -14 -21q-17 -12 -41.5 -19.5z" />
<glyph unicode="&#x300;" d="M-262 736q5 3 11 0l232 -98q10 -5 10 -14l-2 -8l-13 -38q-6 -14 -16 -14q-3 0 -11 2l-227 58q-19 4 -19 19q0 6 2 10l25 72q3 8 8 11z" />
<glyph unicode="&#x301;" d="M-11 653q2 -8 2 -10q0 -15 -19 -19l-228 -58q-8 -2 -10 -2q-10 0 -16 14l-13 38q-2 3 -2 9q0 9 9 13l232 98q2 1 6 1t8 -3t5 -9z" />
<glyph unicode="&#x302;" d="M-182 651q-5 6 -9 9.5t-7 3.5q-5 0 -16 -13l-48 -53q-5 -6 -8.5 -7t-14.5 -1h-89q-9 0 -9 5q0 3 7 12l107 115q6 8 13.5 11t20.5 3h83q16 0 26 -12l106 -117q8 -10 8 -13q0 -4 -9 -4h-95q-9 0 -14 1.5t-10 6.5z" />
<glyph unicode="&#x303;" d="M-83.5 613.5q-24.5 -7.5 -52.5 -7.5q-19 0 -39.5 4t-39.5 10q-44 15 -73 15q-20 0 -34.5 -5.5t-33.5 -17.5q-7 -5 -11 -5q-6 0 -9 11l-16 48q-2 8 -2 10q0 8 9 18q22 18 42.5 28t49.5 10q33 0 88 -18q46 -14 69 -14q33 0 71 25q5 4 11 4q8 0 11 -12l14 -57l1 -6 q0 -11 -14 -21q-17 -12 -41.5 -19.5z" />
<glyph unicode="&#x308;" d="M-228 615q0 -22 -26 -22h-106q-10 0 -14.5 5t-4.5 15v96q0 18 14 18h122q15 0 15 -17v-95zM-10 615q0 -11 -6.5 -16.5t-19.5 -5.5h-105q-12 0 -16.5 5t-4.5 15v96q0 18 15 18h123q14 0 14 -17v-95z" />
<glyph unicode="&#x30a;" d="M-42.5 588.5q-32.5 -32.5 -79.5 -32.5t-79.5 33t-32.5 81q0 45 33 77t79 32q47 0 79.5 -32.5t32.5 -78.5q0 -47 -32.5 -79.5zM-88.5 701.5q-14.5 13.5 -33.5 13.5q-21 0 -35.5 -13.5t-14.5 -34.5q0 -19 15 -34t35 -15q19 0 33.5 15t14.5 34q0 21 -14.5 34.5z" />
<glyph unicode="&#x30b;" d="M-224 675q7 -12 7 -17q0 -8 -11 -16l-138 -84q-11 -7 -16 -7q-6 0 -12 7l-29 31q-7 7 -7 15q0 5 4 8l134 120q7 5 11 5q6 0 11 -6zM-20 675q7 -10 7 -17q0 -9 -11 -16l-138 -84q-11 -7 -16 -7q-6 0 -12 7l-30 31q-6 9 -6 14q0 6 5 9l134 120q5 5 11 5q4 0 10 -6z" />
<glyph unicode="&#x327;" d="M-46 -195q-36 -23 -89 -23q-72 0 -118 24q-9 7 -5 15l16 37q3 8 11 5q41 -23 74 -23q23 0 35.5 8t12.5 21q0 19 -20 29t-67 11q-8 0 -10.5 2t0.5 9l37 85h74l-20 -50l-1 -4q0 -4 7 -4q51 -1 75 -25t24 -55q0 -39 -36 -62z" />
<glyph unicode="&#x2000;" horiz-adv-x="472" />
<glyph unicode="&#x2001;" horiz-adv-x="945" />
<glyph unicode="&#x2002;" horiz-adv-x="472" />
<glyph unicode="&#x2003;" horiz-adv-x="945" />
<glyph unicode="&#x2004;" horiz-adv-x="315" />
<glyph unicode="&#x2005;" horiz-adv-x="236" />
<glyph unicode="&#x2006;" horiz-adv-x="157" />
<glyph unicode="&#x2007;" horiz-adv-x="157" />
<glyph unicode="&#x2008;" horiz-adv-x="118" />
<glyph unicode="&#x2009;" horiz-adv-x="189" />
<glyph unicode="&#x200a;" horiz-adv-x="52" />
<glyph unicode="&#x2010;" horiz-adv-x="372" d="M328 221q0 -13 -6.5 -19t-22.5 -6h-231q-14 0 -19 5.5t-5 17.5v81q0 19 17 19l252 1q6 0 10.5 -5t4.5 -13v-81z" />
<glyph unicode="&#x2011;" horiz-adv-x="372" d="M328 221q0 -13 -6.5 -19t-22.5 -6h-231q-14 0 -19 5.5t-5 17.5v81q0 19 17 19l252 1q6 0 10.5 -5t4.5 -13v-81z" />
<glyph unicode="&#x2012;" horiz-adv-x="372" d="M328 221q0 -13 -6.5 -19t-22.5 -6h-231q-14 0 -19 5.5t-5 17.5v81q0 19 17 19l252 1q6 0 10.5 -5t4.5 -13v-81z" />
<glyph unicode="&#x2013;" horiz-adv-x="582" d="M538 212q0 -13 -7 -19t-21 -6h-443q-13 0 -18.5 5t-5.5 17v81q0 21 17 21h462q7 0 11.5 -5t4.5 -13v-81z" />
<glyph unicode="&#x2014;" horiz-adv-x="900" d="M858 212q0 -13 -7 -19t-23 -6h-761q-13 0 -18.5 5t-5.5 17v81q0 21 17 21h781q8 0 12.5 -5t4.5 -13v-81z" />
<glyph unicode="&#x2018;" horiz-adv-x="242" d="M195.5 721q3.5 -6 1.5 -13l-42 -98q-4 -12 -4 -16q0 -9 12 -11l16 -2q12 -2 16.5 -6t4.5 -14v-121q0 -19 -16 -19h-134q-15 0 -15 16v116q0 4 3 12l94 145q6 8 16.5 12.5t20.5 4.5h15q8 0 11.5 -6z" />
<glyph unicode="&#x2019;" horiz-adv-x="242" d="M46.5 427q-3.5 6 -1.5 14l42 98q4 12 4 16q0 9 -12 10l-16 2q-12 2 -16.5 6t-4.5 15v121q0 18 16 18h134q15 0 15 -16v-115q0 -4 -3 -13l-94 -144q-6 -9 -16.5 -13.5t-19.5 -4.5h-16q-8 0 -11.5 6z" />
<glyph unicode="&#x201a;" horiz-adv-x="242" d="M46.5 -139.5q-3.5 6.5 -1.5 13.5l42 98q4 11 4 15q0 9 -12 11l-16 2q-12 2 -16.5 6t-4.5 15v120q0 19 16 19h134q15 0 15 -16v-116q0 -4 -3 -12l-94 -144q-6 -9 -16.5 -13.5t-19.5 -4.5h-16q-8 0 -11.5 6.5z" />
<glyph unicode="&#x201c;" horiz-adv-x="478" d="M35 437v116q0 7 4 12l93 144q6 8 16 13t21 5h15q8 0 11.5 -6.5t1.5 -12.5l-42 -99q-3 -9 -3 -15q0 -9 12 -12l15 -1q12 -2 17 -6.5t5 -13.5v-121q0 -19 -17 -19h-134q-15 0 -15 16zM271 437v116q0 4 3 12l94 144q6 8 16 13t21 5h15q8 0 11.5 -6.5t1.5 -12.5l-42 -99 q-4 -12 -4 -15q0 -9 12 -12l17 -1q11 -1 15.5 -5.5t4.5 -14.5v-121q0 -19 -16 -19h-134q-15 0 -15 16z" />
<glyph unicode="&#x201d;" horiz-adv-x="482" d="M46.5 427q-3.5 6 -1.5 14l42 98q4 12 4 16q0 9 -12 10l-16 2q-12 2 -16.5 6t-4.5 15v121q0 18 16 18h134q15 0 15 -16v-115q0 -4 -3 -13l-94 -144q-6 -9 -16.5 -13.5t-19.5 -4.5h-16q-8 0 -11.5 6zM282.5 427q-3.5 6 -1.5 14l42 98q3 9 3 15q0 10 -11 11l-16 2 q-12 2 -17 6t-5 15v121q0 18 17 18h134q15 0 15 -16v-115q0 -7 -4 -13l-93 -144q-6 -9 -16.5 -13.5t-19.5 -4.5h-16q-8 0 -11.5 6z" />
<glyph unicode="&#x201e;" horiz-adv-x="482" d="M282.5 -139.5q-3.5 6.5 -1.5 13.5l42 98q4 11 4 15q0 9 -12 11l-16 2q-12 2 -16.5 6t-4.5 15v120q0 19 16 19h134q15 0 15 -16v-116q0 -4 -3 -12l-94 -144q-6 -9 -16.5 -13.5t-19.5 -4.5h-16q-8 0 -11.5 6.5zM46.5 -139.5q-3.5 6.5 -1.5 13.5l42 98q4 11 4 15q0 9 -12 11 l-16 2q-12 2 -16.5 6t-4.5 15v120q0 19 16 19h134q15 0 15 -16v-116q0 -4 -3 -12l-94 -144q-6 -9 -16.5 -13.5t-19.5 -4.5h-16q-8 0 -11.5 6.5z" />
<glyph unicode="&#x2026;" horiz-adv-x="916" d="M875 26q0 -14 -6.5 -20t-23.5 -6h-131q-14 0 -19.5 5.5t-5.5 17.5v138q0 19 17 19h153q16 0 16 -17v-137zM221 26q0 -14 -6.5 -20t-23.5 -6h-131q-14 0 -19.5 5.5t-5.5 17.5v138q0 19 17 19h153q16 0 16 -17v-137zM548 26q0 -14 -6.5 -20t-23.5 -6h-131q-14 0 -19.5 5.5 t-5.5 17.5v138q0 19 17 19h153q16 0 16 -17v-137z" />
<glyph unicode="&#x202f;" horiz-adv-x="189" />
<glyph unicode="&#x2039;" horiz-adv-x="292" d="M242 73q1 -1 1 -4q0 -8 -16 -8h-62q-12 0 -15 10l-97 161q-6 11 -6 20t5 18l98 172q4 6 6.5 8t8.5 2h65q7 0 10.5 -4t0.5 -11l-64 -173q-2 -8 -2 -12t2 -12z" />
<glyph unicode="&#x203a;" horiz-adv-x="292" d="M117 252q0 8 -2 12l-64 173q-1 2 -1 5q0 10 12 10h65q6 0 8.5 -2t6.5 -8l98 -172q5 -9 5 -18t-6 -20l-97 -161q-3 -10 -15 -10h-62q-19 0 -15 12l65 167q2 4 2 12z" />
<glyph unicode="&#x205f;" horiz-adv-x="236" />
<glyph unicode="&#x20ac;" horiz-adv-x="656" d="M617 123q2 -1 6 -6t4.5 -8.5t-1.5 -6.5q-41 -50 -102.5 -81t-133.5 -31q-107 0 -186.5 66t-111.5 179h-71q-13 0 -18 5.5t-5 17.5v48q0 20 17 20h61q-2 30 -2 45q0 20 1 30h-54q-13 0 -18 5.5t-5 16.5v48q0 20 17 20h73q30 115 110 180.5t193 65.5q73 0 134 -27.5 t100 -76.5q3 -4 3 -7q0 -6 -10 -14l-84 -61q-10 -7 -20 -7q-7 0 -10 4q-23 25 -44.5 39t-51.5 14q-90 0 -120 -110h134q17 0 17 -18v-48q0 -12 -7 -18t-22 -6h-134q-1 -11 -1 -33q0 -28 1 -42h146q17 0 17 -17v-48q0 -13 -7 -19t-22 -6h-117q17 -52 48 -77t73 -25 q31 0 62.5 17.5t50.5 39.5q7 9 13 9q4 0 9 -5z" />
<glyph unicode="&#x2122;" horiz-adv-x="1013" d="M19 714q0 6 3.5 9.5t9.5 3.5h360q7 0 10.5 -3.5t3.5 -9.5v-65q0 -10 -13 -10h-111q-7 0 -7 -6v-348q0 -13 -11 -13h-103q-10 0 -10 12v346q0 9 -6 9h-113q-13 0 -13 10v65zM462 288v426q0 13 11 13h150q7 0 10.5 -2.5t5.5 -8.5l77 -224q5 -9 9 0l72 219q5 16 15 16h155 q10 0 10 -12v-427q0 -9 -4 -12.5t-14 -3.5h-91q-9 0 -11.5 3t-2.5 11v289q0 5 -2.5 5t-4.5 -5l-96 -292q-5 -11 -15 -11h-58q-10 0 -15 11l-96 287q-2 6 -4 6t-2 -6v-285q0 -8 -2.5 -10.5t-10.5 -2.5h-72q-14 0 -14 16z" />
<glyph unicode="&#x25fc;" horiz-adv-x="519" d="M0 519h519v-519h-519v519z" />
</font>
</defs>
</svg>
