<?xml version="1.0" standalone="no"?>
<!DOCTYPE svg PUBLIC "-//W3C//DTD SVG 1.1//EN" "http://www.w3.org/Graphics/SVG/1.1/DTD/svg11.dtd" >
<svg xmlns="http://www.w3.org/2000/svg" xmlns:xlink="http://www.w3.org/1999/xlink" version="1.1">
<metadata></metadata>
<defs>
<font id="libre_franklinextralight" horiz-adv-x="0" >
<font-face units-per-em="1000" ascent="800" descent="-200" />
<missing-glyph horiz-adv-x="214" />
<glyph />
<glyph />
<glyph unicode="&#xd;" horiz-adv-x="210" />
<glyph unicode=" "  horiz-adv-x="214" />
<glyph unicode="&#x09;" horiz-adv-x="214" />
<glyph unicode="&#xa0;" horiz-adv-x="214" />
<glyph unicode="!" horiz-adv-x="230" d="M133 162q0 -10 -11 -10h-16q-8 0 -10 9l-12 558q0 8 6 8h50q7 0 7 -7zM150 12q0 -7 -3 -9.5t-11 -2.5h-45q-7 0 -9 2.5t-2 8.5v64q0 9 7 9h55q8 0 8 -8v-64z" />
<glyph unicode="&#x22;" horiz-adv-x="372" d="M276 541q-1 -6 -3.5 -8.5t-8.5 -2.5h-18q-5 0 -6.5 2t-2.5 6l-21 182q0 7 7 7h67q7 0 7 -7zM135 541q-1 -6 -3.5 -8.5t-8.5 -2.5h-18q-5 0 -6.5 2t-2.5 6l-21 182q0 7 7 7h67q7 0 7 -7z" />
<glyph unicode="#" horiz-adv-x="590" d="M550 483v-24q0 -10 -12 -10h-102l-25 -165h99q7 0 7 -7v-24q0 -10 -11 -10h-102l-36 -234q-1 -11 -10 -9l-25 4q-7 1 -7 7l36 232h-159l-36 -234q-1 -11 -9 -9l-25 4q-8 1 -7 7l36 232h-111q-9 0 -9 8v25q0 8 5 8h122l25 165h-111q-9 0 -9 8v25q0 8 5 8h121l35 230 q2 9 8 7l26 -4q8 -2 7 -12l-34 -221h158l35 230q2 9 8 7l25 -4q5 -1 7 -3.5t1 -8.5l-34 -221h100q8 0 8 -7zM394 449h-159l-25 -165h158z" />
<glyph unicode="$" horiz-adv-x="569" d="M505.5 77q-25.5 -40 -71.5 -63t-104 -23q-9 -1 -9 -7v-64q0 -10 -7 -10h-27q-8 0 -8 7v67q0 7 -6 7q-83 0 -138 29t-94 89q-4 6 -4 9q0 4 5 6l20 15q3 3 8 3t8 -4q40 -51 83.5 -75t109.5 -24h3q5 0 5 7v274q0 16 -22 27q-75 32 -116 59t-59 59.5t-18 79.5q0 79 57 131 t149 60q3 0 5.5 2t2.5 6v53q0 8 6 8h28q5 0 6.5 -2.5t1.5 -8.5v-52q0 -7 8 -7q57 -6 101.5 -28.5t84.5 -62.5q3 -4 3 -8t-3 -7l-25 -21q-4 -2 -6 -2q-3 0 -9 6q-23 29 -61.5 48.5t-83.5 25.5h-2q-7 0 -7 -8v-284q0 -7 2 -9.5t9 -5.5l30 -11q85 -36 127.5 -85t42.5 -117 q0 -49 -25.5 -89zM278 680q0 4 -3 6t-6 1q-68 -6 -109 -44.5t-41 -96.5q0 -42 30 -74t110 -68l8 -2q11 0 11 14v264zM328 39q67 0 107 36.5t40 92.5q0 51 -31 84.5t-106 64.5q-6 1 -9 1q-8 0 -8 -9v-264q0 -7 7 -6z" />
<glyph unicode="%" horiz-adv-x="883" d="M341 683q44 -55 44 -153q0 -100 -44 -155t-117 -55t-117.5 55t-44.5 155q0 98 44.5 153t117.5 55t117 -55zM227 4q-3 -5 -5.5 -6.5t-9.5 -1.5h-18q-9 0 -9 6q0 4 3 8l478 720q4 5 13 5h23q9 0 5 -9zM311 403.5q33 48.5 33 125.5q0 78 -33 127t-88 49q-54 0 -87 -49 t-33 -127q0 -77 33 -125.5t87 -48.5q55 0 88 48.5zM778 353q44 -55 44 -153q0 -100 -44 -155t-116 -55q-74 0 -118.5 55t-44.5 155q0 98 44.5 153t118.5 55q72 0 116 -55zM723.5 47q27.5 23 42.5 63t15 89q0 75 -34 124.5t-86 49.5q-36 0 -63.5 -23t-42.5 -62.5t-15 -88.5 t15 -89t42.5 -63t63.5 -23q35 0 62.5 23z" />
<glyph unicode="&#x26;" horiz-adv-x="734" d="M433 699.5q48 -38.5 48 -104.5q0 -123 -185 -202q-8 -3 -8 -7q0 -2 5 -9l177 -210q5 -5 6 -5q2 0 9 6q39 36 86 103.5t60 104.5q3 9 14 5l21 -8q4 -2 6 -4.5t1 -6.5q-13 -44 -60 -111t-98 -119q-3 -4 -3 -7t5 -8q30 -29 83.5 -50t100.5 -21q7 0 9 -2.5t2 -8.5v-20 q0 -8 -2.5 -11.5t-12.5 -3.5q-50 0 -116.5 26t-105.5 58q-4 3 -7 3t-7 -4q-96 -88 -215 -88q-94 0 -150.5 52t-56.5 137q0 60 33.5 108t110.5 96q10 6 10 11q0 4 -9 14q-66 67 -66 144q0 51 25.5 92t70 65t99.5 24q72 0 120 -38.5zM211 654.5q-38 -40.5 -38 -97.5 q0 -29 10.5 -54t36.5 -52l23 -26q4 -4 9 -4l8 2q91 43 129.5 83.5t38.5 89.5q0 48 -32.5 73.5t-81.5 25.5q-65 0 -103 -40.5zM231 359q-3 0 -12 -4q-58 -29 -91.5 -74.5t-33.5 -99.5q0 -63 45 -102.5t114 -39.5q47 0 93 19.5t80 52.5q8 8 8 12q0 5 -5 10l-184 217 q-7 9 -14 9z" />
<glyph unicode="'" horiz-adv-x="231" d="M135 541q-1 -6 -3.5 -8.5t-8.5 -2.5h-18q-5 0 -6.5 2t-2.5 6l-21 182q0 7 7 7h67q7 0 7 -7z" />
<glyph unicode="(" horiz-adv-x="266" d="M246.5 724.5q1.5 -2.5 -0.5 -4.5q-52 -104 -83.5 -217.5t-31.5 -224.5q0 -108 26 -213.5t79 -218.5q2 -3 0.5 -5.5t-5.5 -2.5h-16q-5 0 -9 5q-65 112 -98 215t-33 221q0 117 38 231t103 211q4 6 12 6h13q4 0 5.5 -2.5z" />
<glyph unicode=")" horiz-adv-x="266" d="M38 727q9 0 13 -6q65 -97 102.5 -211t37.5 -231q0 -118 -33 -221t-97 -215q-4 -5 -9 -5h-17q-4 0 -5.5 2.5t0.5 5.5q53 113 79 218.5t26 213.5q0 111 -31 224.5t-83 217.5q-2 2 -0.5 4.5t4.5 2.5h13z" />
<glyph unicode="*" horiz-adv-x="332" d="M173 552q-1 1 -3 0l-73 -116q-4 -4 -10 0l-24 17q-4 3 0 9l80 103q2 5 -3 6l-109 32q-4 1 -2 8l9 24q1 6 8 3l103 -38q6 -3 6 4l-8 117q0 2 2 4t6 2h33q5 0 5 -6l-5 -117q0 -7 4 -5l107 45q5 3 7 -2l8 -25q2 -7 -3 -8l-107 -37q-6 -3 -2 -7l76 -97q5 -5 -2 -11l-22 -16 q-4 -3 -7 -2.5t-4 2.5z" />
<glyph unicode="+" horiz-adv-x="534" d="M467 380v-27q0 -9 -11 -9h-167v-172q0 -7 -7 -7h-27q-9 0 -9 11v167h-171q-4 0 -6 1.5t-2 6.5v27q0 8 6 8h172v171q0 5 1.5 6.5t6.5 1.5h27q8 0 8 -5v-173h172q7 0 7 -7z" />
<glyph unicode="," horiz-adv-x="189" d="M44.5 -130q-1.5 3 1.5 8l42 111q1 2 1 5q0 6 -9 6h-9q-9 0 -9 8v69q0 7 7 7h55q7 0 7 -6v-61q0 -6 -2 -12l-58 -131q-4 -7 -14 -7h-8q-3 0 -4.5 3z" />
<glyph unicode="-" horiz-adv-x="373" d="M307 247q0 -9 -12 -9l-220 -1q-4 0 -6 1.5t-2 6.5v29q0 8 6 8l226 1q8 0 8 -7v-29z" />
<glyph unicode="." horiz-adv-x="184" d="M127 12q0 -7 -3 -9.5t-11 -2.5h-45q-11 0 -11 11v64q0 10 8 10h55q7 0 7 -9v-64z" />
<glyph unicode="/" horiz-adv-x="324" d="M16 -49l246 769q1 7 8 7h32q10 0 6 -11l-242 -762q-4 -9 -13 -9h-31q-7 0 -6 6z" />
<glyph unicode="0" horiz-adv-x="664" d="M465 695q58 -42 91.5 -126.5t33.5 -206.5t-33.5 -205t-91.5 -125t-133 -42q-74 0 -132.5 41.5t-92 124.5t-33.5 204q0 122 34 207t92.5 127.5t132.5 42.5t132 -42zM478.5 118q53.5 80 53.5 244q0 165 -54 246t-146 81q-91 0 -145.5 -81.5t-54.5 -245.5 q0 -163 54.5 -243.5t146.5 -80.5t145.5 80z" />
<glyph unicode="1" horiz-adv-x="435" d="M390 42v-35q0 -7 -8 -7h-321q-7 0 -7 7v35q0 7 7 7h134q7 0 7 4v601q0 5 -1.5 6.5t-5.5 0.5l-133 -53l-3 -1q-6 0 -6 8v28q0 5 1.5 6.5t4.5 3.5l137 68q12 6 24 6h30q8 0 8 -10v-662q0 -6 6 -6h118q8 0 8 -7z" />
<glyph unicode="2" horiz-adv-x="565" d="M293 300q79 78 113 133t34 113q0 46 -23.5 78.5t-61 48.5t-78.5 16q-49 0 -98.5 -23.5t-80.5 -70.5q-3 -5 -9 -5q-3 0 -8 3l-20 16q-7 5 -7 8q0 2 5 9q39 55 100 83t125 28q56 0 104.5 -21t78 -65t29.5 -110q0 -44 -16.5 -83.5t-51.5 -83t-99 -106.5l-206 -206 q-3 -4 -3 -7q0 -5 9 -5h365q5 0 7 -2t2 -7v-32q0 -9 -9 -9h-427q-7 0 -10 3t-3 10v24q0 11 3.5 18.5t13.5 16.5z" />
<glyph unicode="3" horiz-adv-x="615" d="M80 643q48 49 99.5 71.5t114.5 22.5q69 0 121.5 -24t81 -65t28.5 -92q0 -56 -34 -99t-94 -64q-11 -3 -11 -6t11 -6q65 -17 108 -65.5t43 -119.5q0 -58 -30.5 -104.5t-91 -74t-146.5 -27.5q-70 0 -125.5 22.5t-104.5 73.5q-4 4 -4 5t5 6l25 23q7 6 12 0q43 -45 90 -63.5 t108 -18.5q96 0 151 43t55 112q0 52 -30 89.5t-77.5 56.5t-101.5 20h-88q-10 0 -10 7v31q0 4 3 6t7 2h72q55 0 102 19.5t73.5 54t26.5 76.5q0 37 -22 68t-61.5 48.5t-89.5 17.5q-103 0 -182 -77q-5 -4 -8 -4t-8 4l-18 18q-6 7 0 13z" />
<glyph unicode="4" horiz-adv-x="616" d="M406 727h38q10 0 10 -10v-454q0 -9 7 -9h98q10 0 10 -7v-30q0 -10 -10 -10h-97q-8 0 -8 -10v-187q0 -10 -11 -10h-36q-10 0 -10 10v190q0 7 -8 7h-328q-11 0 -11 10v35q0 10 10 23l330 446q5 6 16 6zM385 254q4 0 6.5 2t2.5 5v367q0 12 -4 12t-10 -8l-270 -365 q-3 -4 -3 -7q0 -6 10 -6h268z" />
<glyph unicode="5" horiz-adv-x="631" d="M525 727q7 0 9 -2t1 -8l-3 -32q0 -2 -0.5 -4.5t-2.5 -3t-7 -0.5h-345q-9 0 -9 -8l-20 -256v-2q0 -5 3 -8t7 0q48 26 84.5 39.5t88.5 13.5q65 0 118.5 -23t86 -71.5t32.5 -123.5q0 -76 -35 -132.5t-97 -86t-139 -29.5q-68 0 -128.5 23.5t-107.5 70.5q-4 6 -4 7q0 2 5 7 l24 24h4q4 0 7 -3q50 -44 90.5 -63.5t100.5 -19.5q104 0 164 55.5t60 145.5q0 85 -52 129t-131 44q-54 0 -96.5 -18t-92.5 -49l-8 -4q-1 0 -3 1.5t-4 3.5l-27 17q-3 2 -5.5 3.5t-2.5 2.5t1 3t1 7l27 341q0 7 1.5 8t12.5 1h392z" />
<glyph unicode="6" horiz-adv-x="636" d="M459 716.5q41 -20.5 72 -56.5q3 -4 3.5 -6.5t-3.5 -5.5l-31 -19q-1 -1 -4 -1q-5 0 -9 6q-24 28 -54 41.5t-71 13.5q-117 0 -174.5 -81.5t-57.5 -214.5q0 -13 1 -18.5t5 -5.5q2 0 10 4q56 28 99 42t99 14q73 0 125.5 -27.5t79.5 -76t27 -108.5q0 -67 -31.5 -118.5 t-86.5 -80t-121 -28.5q-81 0 -140 42.5t-91 124.5t-32 198q0 118 34 204.5t98 132t155 45.5q57 0 98 -20.5zM244.5 367q-55.5 -14 -89.5 -36q-14 -10 -18.5 -18.5t-4.5 -28.5q0 -53 23 -110t70 -96.5t115 -39.5q51 0 92 23.5t64.5 64.5t23.5 90q0 46 -21 83.5t-61 59.5 t-94 22q-44 0 -99.5 -14z" />
<glyph unicode="7" horiz-adv-x="578" d="M521 727q8 0 8 -7v-26q0 -13 -9 -27q-64 -95 -125.5 -221.5t-104.5 -244.5t-56 -186q-1 -15 -12 -15h-39q-12 0 -10 14q31 127 106 306t182 345q3 5 3 7q0 5 -9 5h-404q-6 0 -6 9l3 33q1 5 3.5 6.5t8.5 1.5h461z" />
<glyph unicode="8" horiz-adv-x="647" d="M443.5 712q51.5 -25 79.5 -70t28 -104q0 -48 -23.5 -85.5t-78.5 -79.5q-8 -5 -8 -7q0 -4 7 -6q65 -22 100 -67t35 -107q0 -59 -32.5 -103t-91.5 -68.5t-137 -24.5q-118 0 -185.5 51t-67.5 140q0 53 26.5 95.5t84.5 82.5q14 9 14 13q0 5 -14 11q-45 23 -68.5 60.5 t-23.5 89.5q0 58 31 104.5t85 73t121 26.5t118.5 -25zM233 670q-41 -20 -65 -56t-24 -79q0 -52 29.5 -84.5t87.5 -43.5l110 -25q20 -4 50.5 19t53 62t22.5 79q0 67 -47 107.5t-125 40.5q-51 0 -92 -20zM472 78.5q55 41.5 55 109.5q0 52 -28 84t-87 45l-144 33 q-21 5 -56.5 -17t-62.5 -62t-27 -87q0 -69 53 -108t149 -39q93 0 148 41.5z" />
<glyph unicode="9" horiz-adv-x="632" d="M173 10.5q-43 20.5 -76 58.5q-7 6 0 11l31 18q1 1 4 1q4 0 9 -5q24 -27 56 -41.5t79 -14.5q113 0 169.5 82t56.5 215q0 13 -1.5 18t-5.5 5q-3 0 -9 -3q-52 -28 -95 -42.5t-99 -14.5q-72 0 -124 27.5t-79 76t-27 109.5q0 66 31.5 117.5t86 80t120.5 28.5q79 0 137.5 -42.5 t89.5 -124.5t31 -198q0 -118 -33.5 -204.5t-96.5 -132t-152 -45.5q-60 0 -103 20.5zM390.5 362q53.5 16 87.5 41q14 9 18.5 17.5t4.5 28.5q0 52 -22.5 108t-68.5 94.5t-112 38.5q-51 0 -92 -23.5t-64.5 -64t-23.5 -89.5q0 -46 21 -84t60 -60.5t91 -22.5q47 0 100.5 16z" />
<glyph unicode=":" horiz-adv-x="184" d="M127 418q0 -11 -14 -11h-45q-11 0 -11 10v65q0 10 8 10h55q7 0 7 -9v-65zM127 15q0 -7 -3 -9.5t-11 -2.5h-45q-11 0 -11 11v64q0 9 8 9h55q7 0 7 -8v-64z" />
<glyph unicode=";" horiz-adv-x="209" d="M57 417v65q0 9 8 9h55q7 0 7 -8v-65q0 -6 -3 -8.5t-11 -2.5h-45q-11 0 -11 10zM44.5 -130.5q-1.5 2.5 1.5 8.5l42 111q1 2 1 5q0 6 -9 6h-9q-9 0 -9 8v69q0 7 7 7h55q7 0 7 -6v-61q0 -6 -2 -12l-58 -131q-4 -7 -14 -7h-8q-3 0 -4.5 2.5z" />
<glyph unicode="&#x3c;" horiz-adv-x="517" d="M449 186q0 -9 -5 -11.5t-13 -0.5l-364 145q-10 3 -10 11v39q0 8 10 11l364 147q6 2 9 2q10 0 10 -12v-29q0 -8 -15 -16l-309 -122l308 -123q8 -4 11.5 -6.5t3.5 -8.5v-26z" />
<glyph unicode="=" horiz-adv-x="534" d="M467 451q0 -9 -11 -9l-381 -1q-4 0 -6 1.5t-2 6.5v27q0 8 6 8l387 1q7 0 7 -7v-27zM467 234q0 -10 -11 -10l-381 -1q-8 0 -8 8v29q0 8 6 8l387 1q3 0 5 -2t2 -5v-28z" />
<glyph unicode="&#x3e;" horiz-adv-x="517" d="M72 220.5q3 2.5 11 6.5l308 123l-309 122q-14 8 -14 16v29q0 12 9 12l8 -2l366 -147q5 -2 7 -4t2 -7v-39q0 -8 -9 -11l-366 -145q-2 -1 -6 -1q-10 0 -10 13v26q0 6 3 8.5z" />
<glyph unicode="?" horiz-adv-x="505" d="M36 609q-1 3 1 4q32 57 91.5 90.5t131.5 33.5q96 0 152.5 -48.5t56.5 -128.5q0 -41 -13.5 -74.5t-33.5 -59t-54 -63.5q-35 -38 -55.5 -64.5t-34.5 -60.5t-14 -75q0 -3 -2 -6t-6 -3h-32q-8 0 -8 11q0 46 15 84.5t36 67t56 67.5q33 36 50.5 59t30 52t12.5 64q0 60 -43 96 t-113 36q-55 0 -106.5 -28.5t-68.5 -68.5q-3 -6 -9 -4l-35 15q-4 1 -5 4zM274 12q0 -7 -2.5 -9.5t-10.5 -2.5h-45q-11 0 -11 11v64q0 9 8 9h54q7 0 7 -8v-64z" />
<glyph unicode="@" horiz-adv-x="817" d="M427 -111q-114 0 -199.5 49t-131 132.5t-45.5 185.5q0 106 49.5 195.5t138.5 143t201 53.5q87 0 165.5 -34.5t127.5 -105.5t49 -175q0 -73 -24.5 -131t-67 -90.5t-95.5 -32.5q-37 0 -57.5 12.5t-26.5 42.5q-3 8 -5 8q-1 0 -6 -6q-52 -70 -140 -70q-36 0 -66 21.5 t-48.5 60.5t-18.5 90q0 63 24 115t67 82.5t95 30.5q39 0 69 -19t47 -50q1 -2 3 -1t3 4l10 35q1 5 7 5h32q8 0 6 -6l-37 -223q-3 -19 -3 -35q0 -27 11 -39t36 -12q36 0 66.5 25t48.5 71.5t18 105.5q0 92 -42.5 154.5t-109 91.5t-139.5 29q-101 0 -177.5 -47t-117.5 -126.5 t-41 -175.5q0 -87 38 -159t114 -115.5t185 -43.5q57 0 91.5 14t80.5 44q6 3 11 3q6 0 9 -4l13 -17q3 -5 3 -7q0 -6 -10 -13q-94 -66 -211 -66zM303.5 146.5q22.5 -33.5 63.5 -33.5q51 0 92 43t51 106q3 19 3 36q0 58 -29 89t-68 31q-60 0 -97.5 -51t-37.5 -127 q0 -60 22.5 -93.5z" />
<glyph unicode="A" horiz-adv-x="691" d="M50 11l259 704q2 7 5.5 9.5t10.5 2.5h43q15 0 18 -11l256 -704l1 -4q0 -8 -9 -8h-34q-11 0 -14 9l-76 211q-3 7 -10 7h-310q-7 0 -10 -7l-78 -212q-1 -8 -12 -8h-32q-11 0 -8 11zM480 274q11 0 8 11l-135 369q-3 9 -7 9q-3 0 -8 -10l-137 -370q-1 -2 -1 -5q0 -4 7 -4h273 z" />
<glyph unicode="B" horiz-adv-x="673" d="M108 9v707q0 11 10 11h206q125 0 193 -48t68 -139q0 -125 -128 -166q-4 -1 -4 -4t4 -4q69 -14 107.5 -57.5t38.5 -115.5q0 -96 -71 -144.5t-204 -48.5h-211q-9 0 -9 9zM336 391q80 0 135.5 32.5t55.5 109.5q0 75 -54 111.5t-152 36.5h-148q-9 0 -9 -9v-271q0 -10 8 -10 h164zM323 46q114 0 168 34t54 109q0 81 -57 118t-152 37h-161q-11 0 -11 -9v-278q0 -11 8 -11h151z" />
<glyph unicode="C" horiz-adv-x="684" d="M484.5 710q56.5 -27 93.5 -71.5t43 -95.5v-4q0 -3 -1.5 -4t-4.5 -1l-44 -4h-2q-4 0 -5 7q-16 69 -68.5 110.5t-125.5 41.5q-116 0 -177 -83.5t-61 -243.5q0 -157 62 -240t183 -83q76 0 125 36t78 112q1 4 7 3l39 -11q4 -2 3 -8q-25 -80 -94 -130.5t-162 -50.5 q-142 0 -220.5 97.5t-78.5 274.5q0 117 35 201.5t101 129t158 44.5q60 0 116.5 -27z" />
<glyph unicode="D" horiz-adv-x="692" d="M241 726q199 -1 289 -87.5t90 -270.5q0 -189 -96 -278.5t-297 -89.5h-109q-10 0 -10 11v707q0 9 10 9zM164 666v-610q0 -10 11 -10h46q125 0 199 31.5t108 101t34 186.5q0 120 -34.5 187.5t-105.5 96t-190 31.5h-60q-8 0 -8 -14z" />
<glyph unicode="E" horiz-adv-x="603" d="M110 725q2 2 8 2h414q7 0 7 -8v-30q0 -5 -2 -7t-7 -2h-357q-5 0 -7 -1.5t-2 -7.5v-272q0 -5 2 -6.5t7 -1.5h277q8 0 8 -8v-31q0 -5 -2 -6.5t-7 -1.5h-276q-5 0 -7 -1.5t-2 -7.5v-279q0 -6 2 -7.5t7 -1.5h372q5 0 7 -1.5t2 -6.5v-31q0 -8 -8 -8h-428q-6 0 -8 2t-2 9v705 q0 7 2 9z" />
<glyph unicode="F" horiz-adv-x="575" d="M110.5 725q2.5 2 7.5 2h404q7 0 7 -8v-30q0 -5 -2 -7t-7 -2h-347q-5 0 -7 -1.5t-2 -7.5v-285q0 -5 2 -6.5t7 -1.5h287q7 0 7 -8v-31q0 -4 -1.5 -5.5t-6.5 -1.5h-286q-4 0 -6.5 -2t-2.5 -8v-314q0 -8 -8 -8h-38q-6 0 -8 2t-2 9v705q0 7 2.5 9z" />
<glyph unicode="G" horiz-adv-x="717" d="M208.5 34q-65.5 44 -100 127.5t-34.5 199.5q0 118 35.5 203t101.5 129t157 44q60 0 116.5 -26.5t93 -70t42.5 -94.5q2 -8 -5 -9l-43 -8q-7 0 -8 7q-6 42 -34 77.5t-70.5 55.5t-91.5 20q-114 0 -175 -84.5t-61 -237.5q0 -161 60 -245t176 -84q69 0 118.5 32.5t74 81 t25.5 96.5v72q0 9 -11 9h-179q-8 0 -8 7v27q0 6 6 6h234q8 0 8 -7v-351q0 -6 -2 -8.5t-8 -2.5h-18q-7 0 -10 1.5t-4 8.5l-2 101q-1 5 -3.5 5t-5.5 -5q-30 -54 -85 -87.5t-132 -33.5q-92 0 -157.5 44z" />
<glyph unicode="H" horiz-adv-x="712" d="M171 355q-3 0 -5 -2.5t-2 -4.5v-338q0 -10 -11 -10h-35q-6 0 -8 2.5t-2 8.5v705q0 7 2.5 9t7.5 2h37q5 0 7 -2t2 -9v-304q0 -6 2 -8t7 -2h367q5 0 7 2t2 7v306q0 10 9 10h38q5 0 7 -2t2 -9v-705q0 -11 -10 -11h-35q-6 0 -8.5 2t-2.5 8v337q0 8 -8 8h-370z" />
<glyph unicode="I" horiz-adv-x="272" d="M155 727q5 0 7 -2t2 -9v-703q0 -8 -2.5 -10.5t-10.5 -2.5h-31q-7 0 -9.5 2t-2.5 9v705q0 7 2.5 9t7.5 2h37z" />
<glyph unicode="J" horiz-adv-x="394" d="M259 30q-32 -40 -102 -40q-35 0 -63.5 8t-43.5 16q-7 3 -5 10l9 37q2 8 9 5q24 -13 40.5 -18.5t46.5 -5.5q48 0 66.5 25t18.5 91v559q0 10 9 10h39q8 0 8 -11v-571q0 -75 -32 -115z" />
<glyph unicode="K" horiz-adv-x="666" d="M619 2.5q-1 -2.5 -5 -2.5h-48q-8 0 -11 6l-245 388q-3 4 -5.5 4t-6.5 -4l-126 -140q-4 -4 -6 -7.5t-2 -9.5v-227q0 -10 -11 -10h-34q-6 0 -8.5 2t-2.5 8v708q0 9 9 9h39q8 0 8 -9v-393q0 -8 8 -1l363 398q2 3 5 4t8 1h44q5 0 6 -3t-2 -6l-248 -272q-2 -2 -2 -3.5t2 -4.5 l270 -429q2 -4 1 -6.5z" />
<glyph unicode="L" horiz-adv-x="579" d="M110.5 725q2.5 2 7.5 2h37q5 0 7 -2t2 -9v-660q0 -6 2 -7.5t7 -1.5h352q5 0 7 -1.5t2 -6.5v-31q0 -8 -8 -8h-408q-6 0 -8 2.5t-2 8.5v705q0 7 2.5 9z" />
<glyph unicode="M" horiz-adv-x="867" d="M108 11v705q0 7 2 9t8 2h41q11 0 13 -9l252 -635q3 -9 7 -9t8 10l255 635q3 8 12 8h44q6 0 8 -2t2 -9v-705q0 -11 -10 -11h-36q-5 0 -7.5 2t-2.5 8v595q0 4 -1.5 3.5t-2.5 -3.5l-237 -594q-4 -11 -17 -11h-31q-15 0 -19 11l-233 589q-1 3 -2 3.5t-1 -3.5v-590 q0 -10 -11 -10h-31q-10 0 -10 11z" />
<glyph unicode="N" horiz-adv-x="739" d="M623 727q5 0 7 -2t2 -8v-706q0 -11 -10 -11h-21h-5q-9 0 -15 7l-409 602q-5 6 -8.5 5.5t-3.5 -5.5v-599q0 -10 -11 -10h-31q-10 0 -10 11v705q0 7 2 9t8 2h26q7 0 10 -1.5t6 -6.5l407 -598q5 -6 8 -6q6 0 6 7v595q0 10 9 10h33z" />
<glyph unicode="O" horiz-adv-x="743" d="M152 85.5q-78 95.5 -78 274.5q0 181 79 279t220 98t219 -97.5t78 -277.5t-78 -276t-220 -96t-220 95.5zM612 362q0 164 -60.5 245.5t-178.5 81.5t-179.5 -82t-61.5 -245q0 -324 242 -324q238 0 238 324z" />
<glyph unicode="P" horiz-adv-x="664" d="M535.5 367.5q-69.5 -50.5 -186.5 -50.5h-177q-8 0 -8 -9v-298q0 -10 -9 -10h-38q-9 0 -9 9v707q0 7 2 9t8 2h224q122 0 192.5 -50t70.5 -155q0 -104 -69.5 -154.5zM493 645q-53 36 -153 36h-167q-9 0 -9 -9v-299q0 -9 8 -9h175q95 0 147 39t52 122q0 84 -53 120z" />
<glyph unicode="Q" horiz-adv-x="744" d="M152.5 640q78.5 97 219.5 97q142 0 220 -96.5t78 -278.5q0 -127 -37 -208t-110 -126q-5 -4 -5 -8q0 -14 20 -34t51 -36.5t65 -21.5q8 -1 8 -7v-27q0 -9 -4.5 -11.5t-16.5 -2.5q-40 0 -85.5 27t-89.5 88q-5 7 -15 4q-36 -9 -79 -9q-140 0 -219 95t-79 277q0 181 78.5 278z M372 38q119 0 179.5 80.5t60.5 243.5q0 161 -60.5 244t-179.5 83q-118 0 -179 -83.5t-61 -245.5q0 -322 240 -322z" />
<glyph unicode="R" horiz-adv-x="669" d="M594 10q0 -4 -2.5 -7t-6.5 -3h-38q-5 0 -8 2.5t-5 7.5l-136 324q-2 5 -6.5 7.5t-14.5 2.5h-202q-11 0 -11 -11v-321q0 -7 -2 -9.5t-9 -2.5h-34q-6 0 -8.5 2.5t-2.5 7.5v706q0 7 2 9t8 2h257q109 0 168.5 -46.5t59.5 -135.5q0 -80 -43.5 -126t-103.5 -62q-6 -1 -4 -8 l141 -334q1 -2 1 -5zM495 425.5q50 35.5 50 112.5q0 143 -172 143h-198q-11 0 -11 -8v-273q0 -10 8 -10h170q103 0 153 35.5z" />
<glyph unicode="S" horiz-adv-x="610" d="M312 689q-81 0 -128 -38t-47 -106q0 -88 116 -129l137 -49q85 -31 122.5 -76t37.5 -110q0 -90 -65.5 -140.5t-178.5 -50.5q-84 0 -145 30t-103 92q-3 5 -3 8q0 5 9 11l16 12q6 5 12 5q4 0 9 -5q43 -56 86.5 -80.5t117.5 -24.5q89 0 139 33.5t50 105.5q0 45 -26 76 t-100 59l-148 56q-74 27 -106 73t-32 101q0 91 63.5 143t168.5 52q129 0 216 -95q4 -4 4 -8q0 -3 -4 -7l-26 -22q-3 -3 -5 -3q-3 0 -9 8q-69 79 -178 79z" />
<glyph unicode="T" horiz-adv-x="615" d="M45 719q0 8 8 8h510q7 0 7 -8v-31q0 -5 -2 -6.5t-6 -1.5h-206q-6 0 -8 -1.5t-2 -7.5v-660q0 -6 -2 -8.5t-8 -2.5h-36q-6 0 -8.5 2t-2.5 9v660q0 6 -2 7.5t-8 1.5h-225q-5 0 -7 1.5t-2 6.5v31z" />
<glyph unicode="U" horiz-adv-x="689" d="M529.5 49.5q-61.5 -59.5 -184.5 -59.5q-126 0 -186.5 62.5t-60.5 191.5v471q0 12 9 12h37q6 0 8.5 -2t2.5 -9v-491q0 -187 193 -187q98 0 146.5 47t48.5 143v489q0 10 9 10h31q8 0 8 -10v-488q0 -120 -61.5 -179.5z" />
<glyph unicode="V" horiz-adv-x="680" d="M629.5 724q2.5 -3 0.5 -7l-256 -705q-2 -7 -5.5 -9.5t-10.5 -2.5h-40q-16 0 -19 11l-249 705l-1 3q0 8 10 8h33q6 0 9 -2t4 -7l226 -642q3 -9 8 -9q3 0 8 10l231 642q3 8 12 8h32q5 0 7.5 -3z" />
<glyph unicode="W" horiz-adv-x="1006" d="M954 724q2 -3 1 -8l-203 -704q-2 -7 -5.5 -9.5t-11.5 -2.5h-37q-16 0 -20 11l-172 616q-1 4 -2 4t-2 -4l-177 -615q-2 -7 -5.5 -9.5t-11.5 -2.5h-38q-15 0 -19 11l-198 704l-1 4q0 8 11 8h32q7 0 9.5 -2t4.5 -7l176 -632q3 -10 6 -10t6 11l179 632q4 8 15 8h31q7 0 9 -2 t4 -7l176 -632q3 -10 6 -10t6 11l181 632q1 8 12 8h31q5 0 7 -3z" />
<glyph unicode="X" horiz-adv-x="654" d="M606 5q0 -5 -9 -5h-44q-3 0 -5 1t-4 4l-209 309q-5 7 -9 7q-5 0 -11 -10l-207 -306q-2 -5 -10 -5h-41q-7 0 -7 4q0 3 3 9l234 349q4 5 4 9q0 5 -5 12l-225 334q-2 3 -1 6.5t5 3.5h47q9 0 10 -5l196 -293q4 -6 8 -6q5 0 9 7l196 292q3 5 10 5h47q7 0 3 -8l-226 -335 q-4 -5 -4 -10q0 -2 3 -6l238 -355q4 -5 4 -8z" />
<glyph unicode="Y" horiz-adv-x="634" d="M587 723.5q2 -3.5 -1 -8.5l-234 -395q-3 -4 -3.5 -9t-0.5 -13v-284q0 -8 -3.5 -11t-12.5 -3h-28q-12 0 -12 12v277q0 11 -6 21l-238 404q-2 3 -2 7q0 6 10 6h33q7 0 10.5 -2t7.5 -8l200 -341q7 -11 12 -11q4 0 11 9l199 343q4 7 7 8.5t10 1.5h33q6 0 8 -3.5z" />
<glyph unicode="Z" horiz-adv-x="594" d="M54 1.5q-2 1.5 -2 6.5v16q0 8 8 19l405 630q3 7 -4 7h-389q-8 0 -8 8v32q0 7 6 7h465q7 0 7 -7v-18q0 -5 -2.5 -9t-3.5 -5l-410 -633q-2 -4 -1 -6t4 -2h405q7 0 7 -6v-33q0 -8 -8 -8h-472q-5 0 -7 1.5z" />
<glyph unicode="[" horiz-adv-x="266" d="M109 727h136q7 0 7 -5v-29q0 -6 -7 -6h-86q-9 0 -9 -10v-792q0 -4 1 -5.5t5 -1.5h87q8 0 8 -7v-24q0 -5 -1.5 -7t-6.5 -2h-132q-10 0 -10 9l-1 873q0 7 9 7z" />
<glyph unicode="\" horiz-adv-x="324" d="M259 -46l-243 762q-1 2 -1 6q0 5 7 5h31q8 0 9 -7l246 -769q2 -6 -5 -6h-33q-8 0 -11 9z" />
<glyph unicode="]" horiz-adv-x="266" d="M166 -153q0 -9 -10 -9h-132q-5 0 -6.5 2t-1.5 7v24q0 7 8 7h87q4 0 5 1.5t1 5.5v792q0 10 -9 10h-86q-7 0 -7 6v29q0 5 7 5h136q9 0 9 -7z" />
<glyph unicode="^" horiz-adv-x="466" d="M237 444q-2 5 -5 5t-5 -5l-120 -302q-3 -7 -11 -7h-33q-4 0 -5.5 3t0.5 8l140 348q7 17 15.5 26t18.5 9q20 0 35 -35l142 -351l1 -4q0 -6 -8 -6h-33q-9 0 -12 8z" />
<glyph unicode="_" horiz-adv-x="494" d="M428 -93q0 -10 -12 -10l-341 -1q-8 0 -8 8v30q0 8 6 8l347 1q3 0 5.5 -2t2.5 -5v-29z" />
<glyph unicode="`" horiz-adv-x="269" d="M25.5 736q2.5 1 5.5 0l225 -92q6 -4 3 -11l-6 -17q-1 -4 -4 -5.5t-7 0.5l-223 74q-11 4 -8 13l11 34q1 3 3.5 4z" />
<glyph unicode="a" horiz-adv-x="529" d="M212 -10q-78 0 -122.5 38.5t-44.5 103.5q0 75 62 118t184 54l97 8q17 2 17 14v30q0 60 -39 95.5t-102 35.5q-94 0 -159 -87q-3 -5 -5 -6t-6 1l-30 16q-6 4 0 10q32 50 83 79t120 29q86 0 136 -45t50 -123v-350q0 -11 -11 -11h-25q-9 0 -9 11l-2 56q-1 6 -4 6.5t-7 -4.5 q-80 -79 -183 -79zM391 272l-82 -6q-213 -16 -213 -129q0 -49 34.5 -76.5t91.5 -27.5q35 0 68 12.5t61 33.5q25 21 39.5 44t14.5 45v90q0 16 -14 14z" />
<glyph unicode="b" horiz-adv-x="582" d="M98 0q-7 0 -9.5 3t-2.5 11v702q0 11 10 11h30q5 0 7 -2.5t2 -9.5v-246q0 -9 4 -9t9 5q71 64 166 64q105 0 158.5 -75t53.5 -192q0 -127 -59 -199.5t-164 -72.5q-64 0 -103 24.5t-59 51.5q-3 5 -6 5q-4 0 -4 -8l-3 -49q0 -8 -3 -11t-11 -3h-16zM135 174q0 -38 23 -70.5 t60.5 -52t77.5 -19.5q78 0 128 58.5t50 171.5q0 105 -44.5 165t-126.5 60q-49 0 -92.5 -23t-75.5 -59v-231z" />
<glyph unicode="c" horiz-adv-x="527" d="M485 420q3 -4 2.5 -6t-3.5 -4l-30 -15q-1 -1 -4 -1t-8 5q-38 48 -72 68t-75 20q-57 0 -100.5 -28.5t-67 -80t-23.5 -118.5q0 -68 23.5 -119.5t67 -80t100.5 -28.5q49 0 87.5 24t71.5 73q3 5 5 5.5t5 -1.5l27 -14q5 -3 2 -11q-33 -57 -85 -87.5t-118 -30.5 q-70 0 -123.5 33.5t-83.5 94t-30 140.5q0 78 30.5 140t84 96.5t122.5 34.5q124 0 195 -109z" />
<glyph unicode="d" horiz-adv-x="582" d="M449 12v48q0 9 -4 9q-3 0 -8 -5q-20 -20 -36.5 -33.5t-49 -27t-73.5 -13.5q-63 0 -114 29.5t-80.5 88.5t-29.5 143q0 82 29.5 145.5t83 98t123.5 34.5q47 0 80 -14.5t62 -38.5q7 -6 10 -6q5 0 5 13v233q0 6 2 8.5t7 2.5h31q9 0 9 -10v-704q0 -7 -3 -10t-10 -3h-23 q-11 0 -11 12zM373.5 469q-36.5 18 -78.5 18q-55 0 -98 -28t-67.5 -81t-24.5 -124q0 -74 25 -124t66.5 -74t91.5 -24q43 0 79.5 21t58 52.5t21.5 61.5v248q-37 36 -73.5 54z" />
<glyph unicode="e" horiz-adv-x="566" d="M129.5 134q25.5 -46 69.5 -73.5t96 -27.5q112 0 168 89q5 8 10 3l28 -15q5 -4 1 -11q-70 -109 -209 -109q-71 0 -125 33.5t-84.5 93.5t-30.5 139q0 83 31 145.5t85 95t124 32.5q105 0 166 -69t61 -192v-6q0 -7 -2.5 -10.5t-10.5 -4.5h-396q-7 0 -7 -14q0 -53 25.5 -99z M453 287q10 0 13 3t3 11q0 51 -21.5 93.5t-61.5 67.5t-93 25q-59 0 -102 -29.5t-65 -75.5t-21 -95h348z" />
<glyph unicode="f" horiz-adv-x="359" d="M335 513v-27q0 -7 -7 -7h-126q-7 0 -7 -8v-459q0 -12 -10 -12h-30q-5 0 -7 2.5t-2 8.5v461q0 7 -6 7h-108q-7 0 -7 7v27q0 6 7 6h107q7 0 7 8v78q0 61 27.5 91.5t86.5 30.5h72q8 0 8 -8v-24q0 -8 -9 -8h-75q-35 0 -48 -19t-13 -57v-85q0 -7 7 -7h127q6 0 6 -6z" />
<glyph unicode="g" horiz-adv-x="574" d="M542 518q4 -3 4 -10v-18q0 -16 -17 -16q-19 -1 -30.5 -3.5t-23.5 -8.5q-12 -7 -16.5 -12t-2.5 -11q1 -3 6.5 -15t9 -28.5t3.5 -33.5q0 -70 -50.5 -113.5t-150.5 -43.5q-75 0 -108.5 -13.5t-33.5 -33.5q0 -17 23.5 -25t79.5 -11l120 -6q155 -9 155 -134 q0 -73 -62.5 -113.5t-176.5 -40.5t-176.5 38t-62.5 106q0 71 90 120q11 6 0 11q-39 17 -39 51q0 18 17.5 36t51.5 29q5 1 5 4q0 4 -6 7q-41 23 -60 55t-19 77q0 78 55 121.5t154 43.5q48 0 82.5 -11t59.5 -33q7 -5 10 -5t9 4q46 39 85 39q11 0 15 -3zM390 275q38 30 38 89 t-38.5 91t-114.5 32q-74 0 -114.5 -33t-40.5 -90t40 -88t115 -31q77 0 115 30zM182 79q-17 1 -41.5 -12t-42.5 -37t-18 -53q0 -51 52 -79.5t148 -28.5q181 0 181 111q0 42 -25 64t-83 25z" />
<glyph unicode="h" horiz-adv-x="566" d="M86 10v707q0 10 9 10h28q5 0 7 -2t2 -7v-266q0 -5 2 -6t6 3q62 45 100.5 62.5t87.5 17.5q77 0 118 -39t41 -106v-373q0 -11 -11 -11h-28q-10 0 -10 10v358q0 118 -117 118q-47 0 -85.5 -19.5t-100.5 -68.5v-388q0 -10 -11 -10h-28q-10 0 -10 10z" />
<glyph unicode="i" horiz-adv-x="221" d="M140 643q0 -16 -14 -16h-33q-12 0 -12 14v72q0 14 13 14h33q5 0 9 -3.5t4 -9.5v-71zM135 13q0 -8 -2.5 -10.5t-10.5 -2.5h-24q-7 0 -9.5 2t-2.5 9v498q0 6 2 8t8 2h29q6 0 8 -2t2 -8v-496z" />
<glyph unicode="j" horiz-adv-x="221" d="M140 643q0 -16 -14 -16h-33q-12 0 -12 14v72q0 14 13 14h33q13 0 13 -13v-71zM110 -138.5q-25 -28.5 -91 -28.5q-25 0 -40.5 0.5t-19.5 2.5t-4 7v26q0 7 6 7l56 2q38 0 53.5 18.5t15.5 63.5v549q0 10 11 10h29q5 0 7 -2.5t2 -7.5v-554q0 -65 -25 -93.5z" />
<glyph unicode="k" horiz-adv-x="533" d="M504 5q0 -5 -9 -5h-39q-8 0 -13 8l-172 279q-3 5 -8 0l-121 -122q-7 -7 -7 -17v-135q0 -8 -2.5 -10.5t-10.5 -2.5h-24q-7 0 -9.5 2t-2.5 9v705q0 7 2 9t8 2h29q6 0 8 -2t2 -9v-480q0 -10 3 -10q2 0 7 5l271 279q4 5 7.5 7t9.5 2h37q9 0 9 -5q0 -4 -6 -10l-163 -167 q-4 -6 -1 -13l192 -311q3 -4 3 -8z" />
<glyph unicode="l" horiz-adv-x="221" d="M135 13q0 -8 -2.5 -10.5t-10.5 -2.5h-24q-7 0 -9.5 2t-2.5 9v705q0 7 2 9t8 2h29q6 0 8 -2t2 -9v-703z" />
<glyph unicode="m" horiz-adv-x="881" d="M86 10v500q0 9 9 9h28q5 0 7 -2t2 -6v-60q0 -5 2 -6t6 3q58 45 95 63t84 18q57 0 92.5 -25t47.5 -60q2 -3 4 -3q3 0 10 6q57 45 95 63.5t85 18.5q71 0 110 -39t39 -106v-373q0 -11 -10 -11h-30q-9 0 -9 10v358q0 118 -107 118q-45 0 -83 -21t-79 -54q-9 -8 -12.5 -14 t-3.5 -16v-370q0 -11 -9 -11h-30q-10 0 -10 10v358q0 118 -106 118q-45 0 -82.5 -19.5t-95.5 -68.5v-388q0 -10 -11 -10h-28q-10 0 -10 10z" />
<glyph unicode="n" horiz-adv-x="566" d="M86 10v500q0 9 9 9h28q5 0 7 -2t2 -6v-60q0 -5 2 -6t6 3q62 45 100.5 63t87.5 18q77 0 118 -39t41 -106v-373q0 -11 -11 -11h-28q-10 0 -10 10v358q0 118 -117 118q-47 0 -85.5 -19.5t-100.5 -68.5v-388q0 -10 -11 -10h-28q-10 0 -10 10z" />
<glyph unicode="o" horiz-adv-x="586" d="M167 24q-54 34 -84 94t-30 139t30.5 141t85 96.5t125.5 34.5t125 -34t84 -96t30 -140q0 -79 -30 -140t-84 -95t-126 -34t-126 34zM432 94.5q50 61.5 50 164.5q0 104 -51 166t-137 62q-58 0 -101 -28.5t-66 -80.5t-23 -119q0 -103 51.5 -164.5t139.5 -61.5q87 0 137 61.5z " />
<glyph unicode="p" horiz-adv-x="580" d="M133 508v-48q0 -9 4 -9q3 0 23 21.5t55.5 39t88.5 17.5q64 0 113.5 -29.5t78.5 -87.5t29 -142t-29 -147t-81 -98t-123 -35q-45 0 -81.5 14.5t-61.5 34.5q-5 5 -10 5q-4 0 -4 -12v-183q0 -6 -2 -8.5t-8 -2.5h-30q-9 0 -9 10v659q0 7 3 9.5t10 2.5h23q11 0 11 -11z M208.5 51q36.5 -19 77.5 -19q55 0 97.5 28t66.5 81t24 125q0 73 -24.5 123t-65.5 74t-90 24q-45 0 -81.5 -20t-57 -50.5t-20.5 -59.5v-252q37 -35 73.5 -54z" />
<glyph unicode="q" horiz-adv-x="582" d="M485 519q6 0 9 -2.5t3 -10.5v-657q0 -11 -10 -11h-31q-4 0 -6 2.5t-2 9.5v183q0 13 -4 13q-3 0 -11 -6q-28 -21 -67.5 -35.5t-84.5 -14.5q-69 0 -120 34t-78.5 95.5t-27.5 143.5q0 121 59.5 193.5t165.5 72.5q48 0 81 -12t44 -20.5t37 -33.5q4 -4 6 -4q4 0 5 7l4 40 q2 8 4.5 10.5t10.5 2.5h13zM448 345q0 36 -21 69t-58 53t-81 20q-51 0 -92.5 -25t-65.5 -75.5t-24 -122.5t23.5 -124.5t65 -80t95.5 -27.5q44 0 86 20t72 53v240z" />
<glyph unicode="r" horiz-adv-x="354" d="M86 10v500q0 9 9 9h28q9 0 9 -8v-66q0 -5 2 -6t6 3q42 46 79 66.5t76 20.5q19 0 26.5 -2.5t7.5 -8.5v-32q0 -6 -5 -6l-33 1q-31 0 -68 -19t-62.5 -48.5t-25.5 -59.5v-344q0 -10 -11 -10h-28q-10 0 -10 10z" />
<glyph unicode="s" horiz-adv-x="493" d="M332 468q-39 19 -90 19q-62 0 -101 -26.5t-39 -71.5q0 -25 20 -47t71 -37l131 -42q59 -18 88 -51t29 -76q0 -42 -26.5 -75.5t-72 -52t-102.5 -18.5q-72 0 -129.5 30t-82.5 79q-3 7 2 11l27 15q2 2 5.5 1.5t4.5 -2.5q25 -44 69 -68t104 -24q65 0 108 27.5t43 70.5 q0 33 -26 55.5t-85 39.5l-101 31q-69 20 -97.5 51t-28.5 73q0 67 53.5 108t136.5 41q62 0 111.5 -23.5t77.5 -66.5q3 -6 -1 -10l-27 -15q-2 -2 -5 -1.5t-5 2.5q-23 34 -62 53z" />
<glyph unicode="t" horiz-adv-x="357" d="M184 479q-8 0 -8 -8v-346q0 -50 15 -67.5t47 -17.5h76q7 0 7 -7v-20q0 -8 -6 -9q-20 -4 -81 -4q-59 0 -83 27t-24 91v353q0 8 -6 8h-89q-7 0 -7 7v27q0 6 7 6h90q6 0 6 7l9 159q0 6 2 8.5t7 2.5h22q9 0 9 -12v-158q0 -7 7 -7h134q6 0 6 -6v-27q0 -4 -1.5 -5.5t-4.5 -1.5 h-134z" />
<glyph unicode="u" horiz-adv-x="561" d="M333 58q44 25 93 74v378q0 9 11 9h29q9 0 9 -9v-500q0 -10 -9 -10h-28q-5 0 -7 2t-2 7v62q0 4 -2 5t-6 -2q-57 -48 -99.5 -66t-83.5 -18q-68 0 -114 41t-46 104v374q0 10 10 10h30q9 0 9 -9v-353q0 -56 31 -90t85 -34q46 0 90 25z" />
<glyph unicode="v" horiz-adv-x="523" d="M491.5 516.5q2.5 -2.5 0.5 -6.5l-201 -498q-5 -12 -20 -12h-18q-15 0 -21 11l-201 498l-1 3q0 7 10 7h31q9 0 12 -8l174 -432q3 -9 7 -9t8 10l174 432q3 7 12 7h26q5 0 7.5 -2.5z" />
<glyph unicode="w" horiz-adv-x="770" d="M734.5 516.5q2.5 -2.5 0.5 -6.5l-145 -499q-3 -11 -17 -11h-31q-16 0 -19 11l-132 413q-3 8 -6 8q-2 0 -5 -8l-123 -413q-3 -11 -16 -11h-34q-16 0 -19 11l-153 498l-1 4q0 6 9 6h31q10 0 13 -8l132 -432q2 -9 6 -9t7 10l132 433q2 6 10 6h28q10 0 13 -8l138 -432 q3 -9 6 -9q4 0 6 10l127 432q3 7 14 7h21q5 0 7.5 -2.5z" />
<glyph unicode="x" horiz-adv-x="511" d="M480 4q0 -4 -7 -4h-41q-11 0 -14 6l-156 213q-3 5 -7 5q-3 0 -8 -5l-164 -213q-3 -6 -13 -6h-30q-10 0 -10 6q0 5 5 10l187 237q3 5 3 9t-3 9l-176 238q-2 4 -2 5t2 3t6 2h38q4 0 7 -1t6 -4l152 -204q5 -5 8 -5q4 0 7 5l148 204q2 3 4.5 4t8.5 1h33q4 0 5 -2.5t-1 -5.5 l-176 -234q-3 -4 -3 -7q0 -6 4 -10l182 -246q5 -5 5 -10z" />
<glyph unicode="y" horiz-adv-x="502" d="M56 -160.5q-13 1.5 -13 9.5v20q0 7 5.5 9t23.5 2h59q25 0 45.5 20t32.5 49.5t12 57.5q0 18 -4 29l-186 471q-1 2 -1 5q0 7 10 7h30q9 0 12 -8l165 -423q3 -9 8 -9q6 0 10 13l161 420q3 7 11 7h28q3 0 5.5 -3t0.5 -6l-222 -579q-20 -52 -54.5 -72.5t-88.5 -20.5 q-37 0 -50 1.5z" />
<glyph unicode="z" horiz-adv-x="453" d="M35.5 1.5q-1.5 1.5 -1.5 6.5v24q0 9 9 21l308 418q3 4 2 6.5t-5 2.5h-284q-5 0 -6.5 1.5t-1.5 6.5v24q0 7 7 7h343q6 0 6 -6v-26q0 -12 -8 -22l-309 -418q-6 -7 3 -7h313q6 0 6 -7v-24q0 -9 -8 -9h-368q-4 0 -5.5 1.5z" />
<glyph unicode="{" horiz-adv-x="270" d="M142.5 702.5q28.5 24.5 81.5 24.5h24q8 0 8 -5v-29q0 -6 -8 -6h-22q-34 0 -48 -12.5t-14 -39.5v-226q0 -56 -26 -87.5t-67 -35.5q-6 -1 -6.5 -3.5t6.5 -3.5q41 -3 67 -32t26 -86v-229q0 -28 13.5 -41t49.5 -13h20q9 0 9 -7v-24q0 -5 -2 -7t-7 -2h-22q-55 0 -83 25.5 t-28 67.5v228q0 24 -13 48t-37.5 40t-58.5 16q-5 0 -5 7v27q0 7 5 7q53 1 81 31t28 76v225q0 42 28.5 66.5z" />
<glyph unicode="|" horiz-adv-x="260" d="M117 -162q-8 0 -8 7l-1 977q0 8 7 8h29q9 0 9 -11v-972q0 -9 -8 -9h-28z" />
<glyph unicode="}" horiz-adv-x="270" d="M157 411q0 -46 28 -76t81 -31q4 0 4 -7v-27q0 -7 -4 -7q-35 0 -59.5 -16t-37 -40t-12.5 -48v-228q0 -42 -28 -67.5t-84 -25.5h-21q-5 0 -7 2t-2 7v24q0 7 9 7h19q36 0 50 13t14 41v229q0 57 26 86t67 32q7 1 6.5 3.5t-6.5 3.5q-41 4 -67 35.5t-26 87.5v226 q0 27 -14.5 39.5t-48.5 12.5h-21q-8 0 -8 6v29q0 5 8 5h23q54 0 82.5 -24.5t28.5 -66.5v-225z" />
<glyph unicode="~" horiz-adv-x="537" d="M429.5 336.5q-27.5 -12.5 -65.5 -12.5q-28 0 -50 6t-48 18q-28 12 -45.5 16.5t-39.5 4.5q-58 0 -99 -39q-4 -4 -6 -3.5t-3 5.5l-9 22q-3 8 2 10q26 22 50.5 34.5t60.5 12.5q24 0 43.5 -5.5t51.5 -17.5q27 -11 47.5 -16.5t44.5 -5.5q33 0 52.5 9.5t35.5 26.5q3 3 6 3t6 -6 l9 -23q1 -1 1 -4q0 -4 -4 -7q-13 -16 -40.5 -28.5z" />
<glyph unicode="&#xa2;" horiz-adv-x="546" d="M493 217q-32 -54 -80.5 -84.5t-109.5 -33.5v-85q0 -14 -14 -14h-19q-6 0 -9 3t-3 10v88q-62 8 -108 43t-71.5 92.5t-25.5 130.5q0 72 26 130t72 94.5t107 44.5v81q0 10 10 10h26q9 0 9 -9v-80q114 -5 182 -109q3 -5 2.5 -7t-3.5 -4l-30 -14q-1 -1 -4 -1t-8 5 q-38 48 -72 68t-75 20q-57 0 -100.5 -28.5t-67 -80t-23.5 -119.5q0 -67 23.5 -118.5t67 -80t100.5 -28.5q49 0 87.5 24t71.5 73q3 5 5 5.5t5 -1.5l27 -15q5 -3 2 -10z" />
<glyph unicode="&#xa3;" horiz-adv-x="588" d="M12 9v29q0 8 8 8h32q41 -1 68 41t27 124q0 52 -12 134q-1 5 -6 5h-90q-5 0 -5 7v28q0 6 5 6h81q7 0 6 7l-16 70q-9 38 -9 70q0 60 26.5 105t71.5 69.5t99 24.5q60 0 112 -28.5t67 -66.5l1 -2q0 -3 -3.5 -4.5t-4.5 -2.5l-29 -12q-2 -1 -5 -1q-4 0 -7 4q-35 64 -127 64 q-64 0 -106.5 -36.5t-42.5 -97.5q0 -38 8.5 -82.5t17.5 -73.5q2 -6 6 -6h165q6 0 6 -5v-30q0 -6 -6 -6h-154q-8 0 -8 -7q12 -56 12 -116q-1 -68 -17 -111t-35 -63q-7 -7 2 -7h199q53 0 87 17t52 58q2 2 5 3.5t6 0.5l27 -9q8 -3 6 -9q-21 -54 -68.5 -81t-113.5 -27h-329 q-9 0 -9 9z" />
<glyph unicode="&#xa5;" horiz-adv-x="573" d="M556 723.5q2 -3.5 -1 -8.5l-230 -383h141q8 0 8 -7v-25q0 -9 -11 -9h-145v-98h148q8 0 8 -7v-25q0 -9 -11 -9h-145v-138q0 -8 -3.5 -11t-12.5 -3h-28q-12 0 -12 12v139h-147q-5 0 -7 1.5t-2 6.5v25q0 8 6 8h150v98h-147q-5 0 -7 1.5t-2 6.5v25q0 8 6 8h134l-226 383 q-2 4 -2 7q0 6 10 6h38q7 0 9.5 -2t6.5 -8l199 -342q1 -1 3.5 -5t5.5 -4q4 0 8 8l204 343q4 7 6.5 8.5t9.5 1.5h30q6 0 8 -3.5z" />
<glyph unicode="&#xa8;" horiz-adv-x="193" d="M67 641q0 -7 -3 -10t-10 -3h-33q-6 0 -8.5 2.5t-2.5 8.5v77q0 7 2 9t7 2h38q5 0 7.5 -2t2.5 -8v-76zM183 641q0 -7 -3 -10t-10 -3h-32q-7 0 -9.5 2.5t-2.5 8.5v77q0 7 2 9t8 2h37q5 0 7.5 -2t2.5 -8v-76z" />
<glyph unicode="&#xa9;" horiz-adv-x="813" d="M219 40q-86 50 -136 136t-50 188q0 101 50 186.5t136 136t188 50.5q101 0 186.5 -50.5t136 -136t50.5 -186.5q0 -102 -50.5 -188t-136 -136t-186.5 -50q-102 0 -188 50zM568.5 78q74.5 41 119 115.5t44.5 170.5q0 95 -44.5 169.5t-119.5 116t-161 41.5q-89 0 -163 -41 t-118.5 -116t-44.5 -170q0 -97 44.5 -171t118.5 -115t163 -41q87 0 161.5 41zM496 553.5q37 -24.5 68 -67.5q2 -4 -1 -8l-33 -15h-1q-4 0 -7 4q-45 69 -109 69q-62 0 -101 -46.5t-39 -121.5q0 -77 39 -123.5t101 -46.5q38 0 69.5 20.5t50.5 55.5q2 5 10 1l22 -11q5 -3 2 -9 q-27 -46 -67.5 -72.5t-90.5 -26.5q-55 0 -97 26.5t-65.5 74t-23.5 109.5q0 61 23.5 109.5t66 75.5t96.5 27q50 0 87 -24.5z" />
<glyph unicode="&#xab;" horiz-adv-x="418" d="M202 80l1 -2q0 -3 -8 -3h-16q-7 0 -8 4l-133 165q-5 8 -1 15l135 174q2 4 7 4h18q3 0 5 -2.5t0 -5.5l-108 -171q-4 -7 0 -12zM368 80l1 -2q0 -3 -8 -3h-16q-6 0 -8 4l-132 165q-6 7 -1 15l134 174q3 4 7 4h18q4 0 5.5 -2t-0.5 -6l-108 -171q-4 -7 0 -12z" />
<glyph unicode="&#xad;" horiz-adv-x="373" d="M307 247q0 -9 -12 -9l-220 -1q-4 0 -6 1.5t-2 6.5v29q0 8 6 8l226 1q8 0 8 -7v-29z" />
<glyph unicode="&#xae;" horiz-adv-x="534" d="M150 301q-54 31 -85.5 84.5t-31.5 117.5q0 63 31.5 117t85.5 85.5t118 31.5q62 0 116 -31.5t85.5 -85.5t31.5 -117q0 -64 -31.5 -117.5t-85 -84.5t-116.5 -31q-64 0 -118 31zM369 330q45 24 69.5 68.5t24.5 104.5q0 59 -24.5 104t-69.5 69.5t-101 24.5 q-58 0 -102.5 -24.5t-69 -69.5t-24.5 -104q0 -90 53.5 -143.5t142.5 -53.5q56 0 101 24zM346 385h-27q-1 0 -3 3l-40 105q0 1 -0.5 2t-6.5 1h-52q-4 0 -4 -4v-103q0 -2 -1 -3t-3 -1h-25q-3 0 -3 3v225q0 4 2 4h99q36 0 55 -14.5t19 -41.5q0 -47 -47 -61q-1 0 -1.5 -1t0.5 -2 l41 -107q2 -5 -3 -5zM323 557q0 32 -51 32h-55q-1 0 -2.5 1t-1.5 -4v-58q0 -4 3 -4h59q48 0 48 33z" />
<glyph unicode="&#xb4;" horiz-adv-x="269" d="M259 698l1 -4q0 -6 -9 -9l-222 -74q-2 -1 -5 -1q-6 0 -7 6l-6 17q-1 1 -1 4q0 5 4 7l226 92q3 1 5 0t3 -4z" />
<glyph unicode="&#xb8;" horiz-adv-x="197" d="M159.5 -182q-28.5 -19 -71.5 -19t-75 21q-4 2 -3 7l10 20q2 4 6 1q12 -9 24.5 -13.5t31.5 -4.5q59 0 59 42q0 22 -18.5 33t-57.5 13q-7 0 -5 5l35 82h36l-22 -58q-1 -4 3 -4q41 -3 58.5 -23t17.5 -47q0 -36 -28.5 -55z" />
<glyph unicode="&#xbb;" horiz-adv-x="417" d="M158 258l-109 171q-1 1 -1 3q0 5 7 5h17q4 0 7 -4l135 -174q2 -4 2 -7t-3 -8l-133 -165q-2 -4 -8 -4h-15q-10 0 -8 5l109 166q4 6 0 12zM323 258l-107 171q-2 3 0 5.5t4 2.5h18q4 0 8 -4l134 -174q3 -3 3 -7t-4 -8l-132 -165q-4 -4 -9 -4h-16q-8 0 -6 5l107 166q5 6 0 12 z" />
<glyph unicode="&#xc1;" horiz-adv-x="691" d="M50 11l259 704q2 7 5.5 9.5t10.5 2.5h43q15 0 18 -11l256 -704l1 -4q0 -8 -9 -8h-34q-11 0 -14 9l-76 211q-3 7 -10 7h-310q-7 0 -10 -7l-78 -212q-1 -8 -12 -8h-32q-11 0 -8 11zM480 274q11 0 8 11l-135 369q-3 9 -7 9q-3 0 -8 -10l-137 -370q-1 -2 -1 -5q0 -4 7 -4h273 zM469 906l1 -4q0 -6 -9 -9l-222 -74q-2 -1 -5 -1q-6 0 -7 6l-6 17q-1 1 -1 4q0 5 4 7l226 92q3 1 5 0t3 -4z" />
<glyph unicode="&#xc9;" horiz-adv-x="603" d="M110 725q2 2 8 2h414q7 0 7 -8v-30q0 -5 -2 -7t-7 -2h-357q-5 0 -7 -1.5t-2 -7.5v-272q0 -5 2 -6.5t7 -1.5h277q8 0 8 -8v-31q0 -5 -2 -6.5t-7 -1.5h-276q-5 0 -7 -1.5t-2 -7.5v-279q0 -6 2 -7.5t7 -1.5h372q5 0 7 -1.5t2 -6.5v-31q0 -8 -8 -8h-428q-6 0 -8 2t-2 9v705 q0 7 2 9zM460 906l1 -4q0 -6 -9 -9l-222 -74q-2 -1 -5 -1q-6 0 -7 6l-6 17q-1 1 -1 4q0 5 4 7l226 92q3 1 5 0t3 -4z" />
<glyph unicode="&#xcd;" horiz-adv-x="272" d="M155 727q5 0 7 -2t2 -9v-703q0 -8 -2.5 -10.5t-10.5 -2.5h-31q-7 0 -9.5 2t-2.5 9v705q0 7 2.5 9t7.5 2h37zM262 906l1 -4q0 -6 -9 -9l-222 -74q-2 -1 -5 -1q-6 0 -7 6l-6 17q-1 1 -1 4q0 5 4 7l226 92q3 1 5 0t3 -4z" />
<glyph unicode="&#xd3;" horiz-adv-x="743" d="M152 85.5q-78 95.5 -78 274.5q0 181 79 279t220 98t219 -97.5t78 -277.5t-78 -276t-220 -96t-220 95.5zM612 362q0 164 -60.5 245.5t-178.5 81.5t-179.5 -82t-61.5 -245q0 -324 242 -324q238 0 238 324zM498 906l1 -4q0 -6 -9 -9l-222 -74q-2 -1 -5 -1q-6 0 -7 6l-6 17 q-1 1 -1 4q0 5 4 7l226 92q3 1 5 0t3 -4z" />
<glyph unicode="&#xd6;" horiz-adv-x="743" d="M152 85.5q-78 95.5 -78 274.5q0 181 79 279t220 98t219 -97.5t78 -277.5t-78 -276t-220 -96t-220 95.5zM612 362q0 164 -60.5 245.5t-178.5 81.5t-179.5 -82t-61.5 -245q0 -324 242 -324q238 0 238 324zM344 849q0 -7 -3 -10t-10 -3h-33q-6 0 -8.5 2.5t-2.5 8.5v77 q0 7 2 9t7 2h38q5 0 7.5 -2t2.5 -8v-76zM460 849q0 -7 -3 -10t-10 -3h-32q-7 0 -9.5 2.5t-2.5 8.5v77q0 7 2 9t8 2h37q5 0 7.5 -2t2.5 -8v-76z" />
<glyph unicode="&#xda;" horiz-adv-x="689" d="M529.5 49.5q-61.5 -59.5 -184.5 -59.5q-126 0 -186.5 62.5t-60.5 191.5v471q0 12 9 12h37q6 0 8.5 -2t2.5 -9v-491q0 -187 193 -187q98 0 146.5 47t48.5 143v489q0 10 9 10h31q8 0 8 -10v-488q0 -120 -61.5 -179.5zM473 906l1 -4q0 -6 -9 -9l-222 -74q-2 -1 -5 -1 q-6 0 -7 6l-6 17q-1 1 -1 4q0 5 4 7l226 92q3 1 5 0t3 -4z" />
<glyph unicode="&#xdc;" horiz-adv-x="689" d="M529.5 49.5q-61.5 -59.5 -184.5 -59.5q-126 0 -186.5 62.5t-60.5 191.5v471q0 12 9 12h37q6 0 8.5 -2t2.5 -9v-491q0 -187 193 -187q98 0 146.5 47t48.5 143v489q0 10 9 10h31q8 0 8 -10v-488q0 -120 -61.5 -179.5zM320 849q0 -7 -3 -10t-10 -3h-33q-6 0 -8.5 2.5 t-2.5 8.5v77q0 7 2 9t7 2h38q5 0 7.5 -2t2.5 -8v-76zM436 849q0 -7 -3 -10t-10 -3h-32q-7 0 -9.5 2.5t-2.5 8.5v77q0 7 2 9t8 2h37q5 0 7.5 -2t2.5 -8v-76z" />
<glyph unicode="&#xe1;" horiz-adv-x="529" d="M212 -10q-78 0 -122.5 38.5t-44.5 103.5q0 75 62 118t184 54l97 8q17 2 17 14v30q0 60 -39 95.5t-102 35.5q-94 0 -159 -87q-3 -5 -5 -6t-6 1l-30 16q-6 4 0 10q32 50 83 79t120 29q86 0 136 -45t50 -123v-350q0 -11 -11 -11h-25q-9 0 -9 11l-2 56q-1 6 -4 6.5t-7 -4.5 q-80 -79 -183 -79zM391 272l-82 -6q-213 -16 -213 -129q0 -49 34.5 -76.5t91.5 -27.5q35 0 68 12.5t61 33.5q25 21 39.5 44t14.5 45v90q0 16 -14 14zM386 698l1 -4q0 -6 -9 -9l-222 -74q-2 -1 -5 -1q-6 0 -7 6l-6 17q-1 1 -1 4q0 5 4 7l226 92q3 1 5 0t3 -4z" />
<glyph unicode="&#xe9;" horiz-adv-x="566" d="M129.5 134q25.5 -46 69.5 -73.5t96 -27.5q112 0 168 89q5 8 10 3l28 -15q5 -4 1 -11q-70 -109 -209 -109q-71 0 -125 33.5t-84.5 93.5t-30.5 139q0 83 31 145.5t85 95t124 32.5q105 0 166 -69t61 -192v-6q0 -7 -2.5 -10.5t-10.5 -4.5h-396q-7 0 -7 -14q0 -53 25.5 -99z M453 287q10 0 13 3t3 11q0 51 -21.5 93.5t-61.5 67.5t-93 25q-59 0 -102 -29.5t-65 -75.5t-21 -95h348zM414 698l1 -4q0 -6 -9 -9l-222 -74q-2 -1 -5 -1q-6 0 -7 6l-6 17q-1 1 -1 4q0 5 4 7l226 92q3 1 5 0t3 -4z" />
<glyph unicode="&#xed;" horiz-adv-x="221" d="M135 13q0 -8 -2.5 -10.5t-10.5 -2.5h-24q-7 0 -9.5 2t-2.5 9v498q0 6 2 8t8 2h29q6 0 8 -2t2 -8v-496zM234 698l1 -4q0 -6 -9 -9l-222 -74q-2 -1 -5 -1q-6 0 -7 6l-6 17q-1 1 -1 4q0 5 4 7l226 92q3 1 5 0t3 -4z" />
<glyph unicode="&#xf3;" horiz-adv-x="586" d="M167 24q-54 34 -84 94t-30 139t30.5 141t85 96.5t125.5 34.5t125 -34t84 -96t30 -140q0 -79 -30 -140t-84 -95t-126 -34t-126 34zM432 94.5q50 61.5 50 164.5q0 104 -51 166t-137 62q-58 0 -101 -28.5t-66 -80.5t-23 -119q0 -103 51.5 -164.5t139.5 -61.5q87 0 137 61.5z M418 698l1 -4q0 -6 -9 -9l-222 -74q-2 -1 -5 -1q-6 0 -7 6l-6 17q-1 1 -1 4q0 5 4 7l226 92q3 1 5 0t3 -4z" />
<glyph unicode="&#xf6;" horiz-adv-x="586" d="M167 24q-54 34 -84 94t-30 139t30.5 141t85 96.5t125.5 34.5t125 -34t84 -96t30 -140q0 -79 -30 -140t-84 -95t-126 -34t-126 34zM432 94.5q50 61.5 50 164.5q0 104 -51 166t-137 62q-58 0 -101 -28.5t-66 -80.5t-23 -119q0 -103 51.5 -164.5t139.5 -61.5q87 0 137 61.5z M265 641q0 -7 -3 -10t-10 -3h-33q-6 0 -8.5 2.5t-2.5 8.5v77q0 7 2 9t7 2h38q5 0 7.5 -2t2.5 -8v-76zM381 641q0 -7 -3 -10t-10 -3h-32q-7 0 -9.5 2.5t-2.5 8.5v77q0 7 2 9t8 2h37q5 0 7.5 -2t2.5 -8v-76z" />
<glyph unicode="&#xfa;" horiz-adv-x="561" d="M333 58q44 25 93 74v378q0 9 11 9h29q9 0 9 -9v-500q0 -10 -9 -10h-28q-5 0 -7 2t-2 7v62q0 4 -2 5t-6 -2q-57 -48 -99.5 -66t-83.5 -18q-68 0 -114 41t-46 104v374q0 10 10 10h30q9 0 9 -9v-353q0 -56 31 -90t85 -34q46 0 90 25zM388 698l1 -4q0 -6 -9 -9l-222 -74 q-2 -1 -5 -1q-6 0 -7 6l-6 17q-1 1 -1 4q0 5 4 7l226 92q3 1 5 0t3 -4z" />
<glyph unicode="&#xfc;" horiz-adv-x="561" d="M333 58q44 25 93 74v378q0 9 11 9h29q9 0 9 -9v-500q0 -10 -9 -10h-28q-5 0 -7 2t-2 7v62q0 4 -2 5t-6 -2q-57 -48 -99.5 -66t-83.5 -18q-68 0 -114 41t-46 104v374q0 10 10 10h30q9 0 9 -9v-353q0 -56 31 -90t85 -34q46 0 90 25zM235 641q0 -7 -3 -10t-10 -3h-33 q-6 0 -8.5 2.5t-2.5 8.5v77q0 7 2 9t7 2h38q5 0 7.5 -2t2.5 -8v-76zM351 641q0 -7 -3 -10t-10 -3h-32q-7 0 -9.5 2.5t-2.5 8.5v77q0 7 2 9t8 2h37q5 0 7.5 -2t2.5 -8v-76z" />
<glyph unicode="&#x131;" horiz-adv-x="221" d="M135 13q0 -8 -2.5 -10.5t-10.5 -2.5h-24q-7 0 -9.5 2t-2.5 9v498q0 6 2 8t8 2h29q6 0 8 -2t2 -8v-496z" />
<glyph unicode="&#x150;" horiz-adv-x="743" d="M152 85.5q-78 95.5 -78 274.5q0 181 79 279t220 98t219 -97.5t78 -277.5t-78 -276t-220 -96t-220 95.5zM612 362q0 164 -60.5 245.5t-178.5 81.5t-179.5 -82t-61.5 -245q0 -324 242 -324q238 0 238 324zM422 915q2 -4 2 -7t-5 -8l-123 -115q-9 -7 -13 0l-10 15 q-3 3 -2.5 6t2.5 5l115 132q6 4 10 0zM565 915q3 -4 3 -7t-6 -8l-123 -115q-8 -7 -14 0l-9 15q-3 3 -2.5 6t2.5 5l115 132q6 4 10 0z" />
<glyph unicode="&#x151;" horiz-adv-x="586" d="M167 24q-54 34 -84 94t-30 139t30.5 141t85 96.5t125.5 34.5t125 -34t84 -96t30 -140q0 -79 -30 -140t-84 -95t-126 -34t-126 34zM432 94.5q50 61.5 50 164.5q0 104 -51 166t-137 62q-58 0 -101 -28.5t-66 -80.5t-23 -119q0 -103 51.5 -164.5t139.5 -61.5q87 0 137 61.5z M342 707q2 -4 2 -7t-5 -8l-123 -115q-9 -7 -13 0l-10 15q-3 3 -2.5 6t2.5 5l115 132q6 4 10 0zM485 707q3 -4 3 -7t-6 -8l-123 -115q-8 -7 -14 0l-9 15q-3 3 -2.5 6t2.5 5l115 132q6 4 10 0z" />
<glyph unicode="&#x170;" horiz-adv-x="689" d="M529.5 49.5q-61.5 -59.5 -184.5 -59.5q-126 0 -186.5 62.5t-60.5 191.5v471q0 12 9 12h37q6 0 8.5 -2t2.5 -9v-491q0 -187 193 -187q98 0 146.5 47t48.5 143v489q0 10 9 10h31q8 0 8 -10v-488q0 -120 -61.5 -179.5zM397 915q2 -4 2 -7t-5 -8l-123 -115q-9 -7 -13 0 l-10 15q-3 3 -2.5 6t2.5 5l115 132q6 4 10 0zM540 915q3 -4 3 -7t-6 -8l-123 -115q-8 -7 -14 0l-9 15q-3 3 -2.5 6t2.5 5l115 132q6 4 10 0z" />
<glyph unicode="&#x171;" horiz-adv-x="561" d="M333 58q44 25 93 74v378q0 9 11 9h29q9 0 9 -9v-500q0 -10 -9 -10h-28q-5 0 -7 2t-2 7v62q0 4 -2 5t-6 -2q-57 -48 -99.5 -66t-83.5 -18q-68 0 -114 41t-46 104v374q0 10 10 10h30q9 0 9 -9v-353q0 -56 31 -90t85 -34q46 0 90 25zM312 707q2 -4 2 -7t-5 -8l-123 -115 q-9 -7 -13 0l-10 15q-3 3 -2.5 6t2.5 5l115 132q6 4 10 0zM455 707q3 -4 3 -7t-6 -8l-123 -115q-8 -7 -14 0l-9 15q-3 3 -2.5 6t2.5 5l115 132q6 4 10 0z" />
<glyph unicode="&#x2c6;" horiz-adv-x="283" d="M151 682q-8 6 -10 6q-3 0 -10 -6l-60 -48q-4 -3 -7 -4.5t-8 -1.5h-41q-4 0 -5 3t3 7l98 80q10 10 21 10h23q6 0 10.5 -4t5.5 -5l96 -81q6 -5 6 -7.5t-7 -2.5h-44q-8 0 -14 6z" />
<glyph unicode="&#x2da;" horiz-adv-x="217" d="M179.5 615.5q-28.5 -28.5 -70.5 -28.5q-41 0 -70 29t-29 72q0 39 29.5 67t69.5 28q42 0 70.5 -28.5t28.5 -68.5q0 -42 -28.5 -70.5zM148.5 726q-15.5 16 -40.5 16q-23 0 -40 -16t-17 -41q0 -23 17.5 -40.5t39.5 -17.5q24 0 40 17.5t16 40.5q0 25 -15.5 41z" />
<glyph unicode="&#x2dc;" horiz-adv-x="287" d="M202 656q-18 0 -31.5 3t-32.5 9q-28 11 -51 11q-17 0 -27 -4t-17.5 -8.5t-11.5 -6.5t-6 -2q-3 0 -6 5l-6 19q-1 3 -0.5 5t2.5 4q17 13 32.5 19.5t35.5 6.5q25 0 61 -12q37 -12 59 -12q15 0 25.5 3.5t25.5 12.5q5 2 7 2t5 -5l9 -21q1 -1 1 -3q0 -4 -7 -7q-28 -19 -67 -19z " />
<glyph unicode="&#x300;" d="M-244.5 736q2.5 1 5.5 0l225 -92q6 -4 3 -11l-6 -17q-1 -4 -4 -5.5t-7 0.5l-223 74q-11 4 -8 13l11 34q1 3 3.5 4z" />
<glyph unicode="&#x301;" d="M-11 698l1 -4q0 -6 -9 -9l-222 -74q-2 -1 -5 -1q-6 0 -7 6l-6 17q-1 1 -1 4q0 5 4 7l226 92q3 1 5 0t3 -4z" />
<glyph unicode="&#x302;" d="M-132 682q-8 6 -10 6q-3 0 -10 -6l-60 -48q-4 -3 -7 -4.5t-8 -1.5h-41q-4 0 -5 3t3 7l98 80q10 10 21 10h23q6 0 10.5 -4t5.5 -5l96 -81q6 -5 6 -7.5t-7 -2.5h-44q-8 0 -14 6z" />
<glyph unicode="&#x303;" d="M-85 656q-18 0 -31.5 3t-32.5 9q-28 11 -51 11q-17 0 -27 -4t-17.5 -8.5t-11.5 -6.5t-6 -2q-3 0 -6 5l-6 19q-1 3 -0.5 5t2.5 4q17 13 32.5 19.5t35.5 6.5q25 0 61 -12q37 -12 59 -12q15 0 25.5 3.5t25.5 12.5q5 2 7 2t5 -5l9 -21q1 -1 1 -3q0 -4 -7 -7q-28 -19 -67 -19z " />
<glyph unicode="&#x308;" d="M-126 641q0 -7 -3 -10t-10 -3h-33q-6 0 -8.5 2.5t-2.5 8.5v77q0 7 2 9t7 2h38q5 0 7.5 -2t2.5 -8v-76zM-10 641q0 -7 -3 -10t-10 -3h-32q-7 0 -9.5 2.5t-2.5 8.5v77q0 7 2 9t8 2h37q5 0 7.5 -2t2.5 -8v-76z" />
<glyph unicode="&#x30a;" d="M-38.5 615.5q-28.5 -28.5 -70.5 -28.5q-41 0 -70 29t-29 72q0 39 29.5 67t69.5 28q42 0 70.5 -28.5t28.5 -68.5q0 -42 -28.5 -70.5zM-69.5 726q-15.5 16 -40.5 16q-23 0 -40 -16t-17 -41q0 -23 17.5 -40.5t39.5 -17.5q24 0 40 17.5t16 40.5q0 25 -15.5 41z" />
<glyph unicode="&#x30b;" d="M-173 707q2 -4 2 -7t-5 -8l-123 -115q-9 -7 -13 0l-10 15q-3 3 -2.5 6t2.5 5l115 132q6 4 10 0zM-30 707q3 -4 3 -7t-6 -8l-123 -115q-8 -7 -14 0l-9 15q-3 3 -2.5 6t2.5 5l115 132q6 4 10 0z" />
<glyph unicode="&#x327;" d="M-38.5 -182q-28.5 -19 -71.5 -19t-75 21q-4 2 -3 7l10 20q2 4 6 1q12 -9 24.5 -13.5t31.5 -4.5q59 0 59 42q0 22 -18.5 33t-57.5 13q-7 0 -5 5l35 82h36l-22 -58q-1 -4 3 -4q41 -3 58.5 -23t17.5 -47q0 -36 -28.5 -55z" />
<glyph unicode="&#x2000;" horiz-adv-x="472" />
<glyph unicode="&#x2001;" horiz-adv-x="945" />
<glyph unicode="&#x2002;" horiz-adv-x="472" />
<glyph unicode="&#x2003;" horiz-adv-x="945" />
<glyph unicode="&#x2004;" horiz-adv-x="315" />
<glyph unicode="&#x2005;" horiz-adv-x="236" />
<glyph unicode="&#x2006;" horiz-adv-x="157" />
<glyph unicode="&#x2007;" horiz-adv-x="157" />
<glyph unicode="&#x2008;" horiz-adv-x="118" />
<glyph unicode="&#x2009;" horiz-adv-x="189" />
<glyph unicode="&#x200a;" horiz-adv-x="52" />
<glyph unicode="&#x2010;" horiz-adv-x="373" d="M307 247q0 -9 -12 -9l-220 -1q-4 0 -6 1.5t-2 6.5v29q0 8 6 8l226 1q8 0 8 -7v-29z" />
<glyph unicode="&#x2011;" horiz-adv-x="373" d="M307 247q0 -9 -12 -9l-220 -1q-4 0 -6 1.5t-2 6.5v29q0 8 6 8l226 1q8 0 8 -7v-29z" />
<glyph unicode="&#x2012;" horiz-adv-x="373" d="M307 247q0 -9 -12 -9l-220 -1q-4 0 -6 1.5t-2 6.5v29q0 8 6 8l226 1q8 0 8 -7v-29z" />
<glyph unicode="&#x2013;" horiz-adv-x="534" d="M467 241q0 -10 -11 -10h-381q-4 0 -6 1.5t-2 6.5v30q0 7 6 7l387 1q3 0 5 -2t2 -5v-29z" />
<glyph unicode="&#x2014;" horiz-adv-x="848" d="M782 241q0 -10 -11 -10h-696q-4 0 -6 1.5t-2 6.5v30q0 7 6 7l701 1q8 0 8 -7v-29z" />
<glyph unicode="&#x2018;" horiz-adv-x="208" d="M160.5 724.5q1.5 -2.5 0.5 -5.5l-44 -91l-2 -9q0 -6 7 -6h16q9 0 9 -7v-72q0 -7 -7 -7h-76q-6 0 -6 7v65q0 2 2 6l66 116q2 6 13 6h17q3 0 4.5 -2.5z" />
<glyph unicode="&#x2019;" horiz-adv-x="208" d="M48.5 529.5q-1.5 2.5 -0.5 5.5l44 91l2 9q0 6 -7 6h-16q-9 0 -9 8v71q0 7 7 7h76q6 0 6 -7v-64q0 -2 -2 -6l-67 -117q-2 -6 -12 -6h-17q-3 0 -4.5 2.5z" />
<glyph unicode="&#x201a;" horiz-adv-x="208" d="M48.5 -112q-1.5 3 -0.5 5l44 92q2 6 2 9q0 6 -7 6h-16q-9 0 -9 8v71q0 7 7 7h76q6 0 6 -7v-64q0 -2 -2 -6l-67 -118q-3 -6 -12 -6h-17q-3 0 -4.5 3z" />
<glyph unicode="&#x201c;" horiz-adv-x="358" d="M57 533v65q0 3 2 7l67 116q2 6 12 6h17q4 0 5.5 -2.5t0.5 -5.5l-44 -91q-2 -4 -2 -9q0 -6 6 -6l16 -1q9 0 9 -7v-71q0 -7 -6 -7h-76q-7 0 -7 6zM207 533v65q0 3 2 7l66 116q4 6 13 6h17q4 0 5.5 -2.5t0.5 -5.5l-44 -91q-2 -4 -2 -9q0 -6 5 -6l17 -1q9 0 9 -7v-71 q0 -7 -7 -7h-75q-7 0 -7 6z" />
<glyph unicode="&#x201d;" horiz-adv-x="358" d="M48.5 529.5q-1.5 2.5 -0.5 5.5l44 91l2 9q0 6 -7 6h-16q-9 0 -9 8v71q0 7 7 7h76q6 0 6 -7v-64q0 -2 -2 -6l-67 -117q-2 -6 -12 -6h-17q-3 0 -4.5 2.5zM198.5 529.5q-1.5 2.5 -0.5 5.5l44 91l2 9q0 6 -7 6h-17q-8 0 -8 8v71q0 7 7 7h76q6 0 6 -7v-64q0 -2 -2 -6l-67 -117 q-2 -6 -12 -6h-17q-3 0 -4.5 2.5z" />
<glyph unicode="&#x201e;" horiz-adv-x="358" d="M198.5 -112q-1.5 3 -0.5 5l44 92q2 6 2 9q0 6 -7 6h-16q-9 0 -9 8v71q0 7 7 7h76q6 0 6 -7v-64q0 -2 -2 -6l-67 -118q-3 -6 -12 -6h-17q-3 0 -4.5 3zM48.5 -112q-1.5 3 -0.5 5l44 92q2 6 2 9q0 6 -7 6h-16q-9 0 -9 8v71q0 7 7 7h76q6 0 6 -7v-64q0 -2 -2 -6l-67 -118 q-3 -6 -12 -6h-17q-3 0 -4.5 3z" />
<glyph unicode="&#x2026;" horiz-adv-x="668" d="M593 12q0 -7 -3 -9.5t-11 -2.5h-45q-11 0 -11 11v64q0 10 8 10h55q7 0 7 -9v-64zM127 12q0 -7 -3 -9.5t-11 -2.5h-45q-11 0 -11 11v64q0 10 8 10h55q7 0 7 -9v-64zM360 12q0 -7 -3 -9.5t-11 -2.5h-45q-11 0 -11 11v64q0 10 8 10h55q7 0 7 -9v-64z" />
<glyph unicode="&#x202f;" horiz-adv-x="189" />
<glyph unicode="&#x2039;" horiz-adv-x="250" d="M202 80l1 -2q0 -3 -8 -3h-16q-7 0 -8 4l-133 165q-5 8 -1 15l135 174q2 4 7 4h18q3 0 5 -2.5t0 -5.5l-108 -171q-4 -7 0 -12z" />
<glyph unicode="&#x203a;" horiz-adv-x="251" d="M159 258l-109 171q-1 1 -1 3q0 5 7 5h17q4 0 7 -4l135 -174q3 -3 3 -6t-4 -9l-133 -165q-2 -4 -8 -4h-15q-10 0 -8 5l109 166q5 6 0 12z" />
<glyph unicode="&#x205f;" horiz-adv-x="236" />
<glyph unicode="&#x20ac;" horiz-adv-x="562" d="M524 41.5q0 -2.5 -2 -3.5q-66 -48 -154 -48q-121 0 -197 72t-96 205h-82q-5 0 -7 1.5t-2 5.5v26q0 8 6 8h81q-2 35 -2 54q0 32 3 61h-79q-9 0 -9 8v26q0 8 6 8h86q22 130 96 201t190 71q81 0 152 -49q7 -6 0 -13l-22 -26q-2 -3 -6 -3.5t-7 1.5q-55 41 -114 41 q-95 0 -153 -57t-76 -166l216 1q7 0 7 -7v-26q0 -9 -11 -9l-217 -1q-3 -29 -3 -61q0 -19 2 -54h222q7 0 7 -6v-26q0 -5 -2.5 -6.5t-8.5 -1.5l-213 -1q17 -112 76.5 -169.5t160.5 -57.5q69 0 121 36q4 4 7 0l22 -30q2 -2 2 -4.5z" />
<glyph unicode="&#x2122;" horiz-adv-x="876" d="M28 722q0 5 5 5h319q5 0 5 -5v-19q0 -3 -1.5 -4t-4.5 -1h-129q-3 0 -4 -1t-1 -5v-413q0 -4 -1.5 -5.5t-5.5 -1.5h-23q-4 0 -5.5 1.5t-1.5 5.5v413q0 4 -1 5t-5 1h-141q-5 0 -5 5v19zM429 279v441q0 4 1 5.5t5 1.5h26q7 0 8 -6l158 -397q2 -5 4.5 -5t4.5 6l160 397 q2 5 7 5h27q4 0 5 -1.5t1 -5.5v-441q0 -7 -6 -7h-22q-6 0 -6 6v373q0 2 -1 1.5t-2 -1.5l-148 -372q-3 -7 -11 -7h-20q-9 0 -10 7l-146 369q-2 4 -2 0v-370q0 -6 -7 -6h-20q-6 0 -6 7z" />
<glyph unicode="&#x25fc;" horiz-adv-x="519" d="M0 519h519v-519h-519v519z" />
</font>
</defs>
</svg>
