<?xml version="1.0" encoding="UTF-8"?>
<svg width="35px" height="42px" viewBox="0 0 35 42" version="1.1" xmlns="http://www.w3.org/2000/svg" xmlns:xlink="http://www.w3.org/1999/xlink">
    <!-- Generator: Sketch 50.2 (55047) - http://www.bohemiancoding.com/sketch -->
    <title>B</title>
    <desc>Created with Sketch.</desc>
    <defs></defs>
    <g id="Design" stroke="none" stroke-width="1" fill="none" fill-rule="evenodd">
        <g id="Open-page-V2" transform="translate(-762.000000, -608.000000)" fill="#1C2A43">
            <g id="Blog-card" transform="translate(730.000000, 576.000000)">
                <g id="Blog-icon" transform="translate(32.000000, 32.000000)">
                    <path d="M0.621803499,42 C0.452220727,42 0.282637954,41.9434724 0.169582773,41.8304172 C0.0565275908,41.717362 0,41.5477793 0,41.3781965 L0,29.3943472 C0,29.0551817 0.282637954,28.7725437 0.621803499,28.7725437 C1.01749664,28.7725437 1.30013459,29.0551817 1.30013459,29.3943472 L1.30013459,40.6998654 L22.5545087,40.6433378 C26.4549125,40.6433378 28.9421265,38.8909825 30.4118439,37.3647376 C32.4468371,35.2166891 33.577389,32.2207268 33.4643338,29.3943472 L33.4643338,29.3378197 C33.577389,26.2853297 32.333782,23.1763122 30.0726783,21.0282638 C29.846568,20.7456258 29.7900404,20.4064603 30.0161507,20.1238223 C31.8250336,18.0323015 32.7860027,15.3189771 32.6729475,12.6621803 L32.6729475,12.5491252 C32.7860027,9.60969044 31.6554509,6.67025572 29.5074024,4.52220727 L1.01749664,26.115747 C0.847913863,26.2853297 0.565275908,26.2853297 0.339165545,26.1722746 C0.113055182,26.0592194 0,25.833109 0,25.6069987 L0,21.3674293 C0,21.1978466 0.113055182,21.0282638 0.226110363,20.858681 L25.5504711,1.92193809 C24.6460296,1.58277254 23.7415882,1.41318977 22.7806191,1.35666218 C21.2543742,2.37415882 9.10094213,11.5316285 1.01749664,17.6931359 C0.847913863,17.8627187 0.565275908,17.8627187 0.339165545,17.7496635 C0.113055182,17.6366083 0,17.410498 0,17.1843876 L0,13.0013459 C0,12.7752355 0.113055182,12.6056528 0.226110363,12.43607 L15.1493943,1.30013459 L11.7012113,1.30013459 L1.01749664,9.2705249 C0.847913863,9.44010767 0.565275908,9.44010767 0.339165545,9.32705249 C0.113055182,9.21399731 0,8.98788694 0,8.76177658 L0,4.57873486 C0,4.3526245 0.113055182,4.18304172 0.282637954,4.06998654 L3.95693136,1.30013459 L0.621803499,1.30013459 C0.282637954,1.30013459 0,1.01749664 0,0.621803499 C0,0.282637954 0.282637954,0 0.621803499,0 L5.87886945,0 C6.1615074,0 6.38761777,0.169582773 6.50067295,0.452220727 C6.55720054,0.67833109 6.44414536,1.01749664 6.27456258,1.18707941 L1.30013459,4.86137281 L1.30013459,7.46164199 L11.0794078,0.113055182 C11.192463,0.0565275908 11.3055182,0 11.4751009,0 L17.0713324,0 C17.3539704,0 17.5800808,0.169582773 17.6931359,0.452220727 C17.7496635,0.67833109 17.6931359,1.01749664 17.4670256,1.18707941 L1.30013459,13.2839838 L1.30013459,15.884253 C3.1090175,14.4710633 7.12247645,11.4751009 11.1359354,8.42261104 C22.2718708,0 22.3283984,0 22.6675639,0.0565275908 C24.2503365,0.113055182 25.7200538,0.508748318 27.076716,1.18707941 C27.3028264,1.30013459 27.4158816,1.46971736 27.4724092,1.69582773 C27.4724092,1.92193809 27.359354,2.14804845 27.1897712,2.26110363 L1.30013459,21.7065949 L1.30013459,24.3068641 L29.1682369,3.16554509 C29.4508748,2.93943472 29.7900404,2.93943472 30.0161507,3.16554509 C32.6164199,5.59623149 34.0861373,9.10094213 33.9730821,12.6056528 C34.0861373,15.3755047 33.1251682,18.2018843 31.3728129,20.5195155 C33.6339166,22.8936743 34.8775236,26.1722746 34.7644684,29.3378197 C34.8775236,32.5598923 33.577389,35.8950202 31.3162853,38.269179 C29.7335128,39.9084791 26.9071332,41.9434724 22.5545087,41.9434724 L0.621803499,42 Z" id="B"></path>
                </g>
            </g>
        </g>
    </g>
</svg>