<?xml version="1.0" encoding="UTF-8"?>
<svg width="36px" height="42px" viewBox="0 0 36 42" version="1.1" xmlns="http://www.w3.org/2000/svg" xmlns:xlink="http://www.w3.org/1999/xlink">
    <!-- Generator: Sketch 50.2 (55047) - http://www.bohemiancoding.com/sketch -->
    <title>C</title>
    <desc>Created with Sketch.</desc>
    <defs></defs>
    <g id="Design" stroke="none" stroke-width="1" fill="none" fill-rule="evenodd">
        <g id="Open-page-V2" transform="translate(-262.000000, -1329.000000)" fill="#111B2C">
            <g id="Blog-Card-#2" transform="translate(230.000000, 1297.000000)">
                <g id="Conference-icon" transform="translate(32.000000, 32.000000)">
                    <path d="M35.448,34.552 C35.56,34.664 35.672,34.832 35.672,35 C35.672,35.224 35.616,35.392 35.504,35.504 C34.664,36.344 33.768,37.128 32.816,37.8 C32.592,37.968 32.256,37.968 32.032,37.8 L2.632,15.68 C2.408,15.512 2.24,15.4 2.072,15.232 C1.848,15.96 1.68,16.688 1.512,17.416 C1.736,17.584 2.072,17.808 2.464,18.144 L29.68,38.584 C29.848,38.696 29.96,38.92 29.904,39.144 C29.904,39.368 29.792,39.592 29.568,39.648 C28.336,40.264 26.992,40.712 25.648,41.048 C25.48,41.104 25.312,41.048 25.144,40.936 C24.92,40.768 6.216,26.712 1.4,23.072 C1.512,24.08 1.68,25.088 1.96,26.096 C3.864,27.496 21,40.32 21.168,40.488 C21.392,40.656 21.448,40.936 21.392,41.16 C21.28,41.44 21.056,41.608 20.776,41.608 C14.112,41.608 7.84,38.36 3.92,32.984 C3.696,32.704 3.752,32.312 4.032,32.088 C4.312,31.864 4.76,31.976 4.928,32.256 C8.232,36.736 13.272,39.648 18.704,40.208 L1.848,27.608 C0.896,26.88 0.784,26.824 0.784,26.6 C0.336,25.032 0.056,23.408 0,21.728 C0,21.504 0.112,21.28 0.336,21.168 C0.728,21 0.728,21 2.072,22.008 L25.648,39.704 C26.488,39.536 27.272,39.256 28.056,38.92 C23.24,35.336 0.616,18.312 0.448,18.2 C0.28,18.088 0.168,17.864 0.224,17.64 C0.392,16.408 0.728,15.176 1.12,14 C1.176,13.776 1.344,13.664 1.512,13.608 C1.736,13.552 1.96,13.552 2.128,13.664 C2.24,13.776 28.952,33.824 32.424,36.456 C32.984,36.064 33.544,35.616 34.048,35.112 L2.744,11.592 C2.464,11.368 2.408,11.032 2.576,10.752 C6.216,4.144 13.216,0 20.776,0 C26.32,0 31.584,2.184 35.504,6.104 C35.728,6.328 35.728,6.776 35.504,7 C35.224,7.224 34.832,7.224 34.608,7 C30.912,3.304 25.984,1.288 20.776,1.288 C13.832,1.288 7.448,4.928 3.92,10.92 L35.448,34.552 Z" id="C"></path>
                </g>
            </g>
        </g>
    </g>
</svg>