<svg xmlns="http://www.w3.org/2000/svg" width="30" height="52" viewBox="0 0 30 52">
    <g fill="#1C2A43" fill-rule="evenodd">
        <path d="M1.054 9.298v15.648l13.395-7.79V1.508L1.054 9.298zm-.527 17.09A.529.529 0 0 1 0 25.861V8.994c0-.187.1-.36.262-.455L14.711.136a.528.528 0 0 1 .792.455v16.867c0 .189-.1.362-.263.456L.792 26.317a.531.531 0 0 1-.265.071z"/>
        <path d="M15.502 17.092l13.395 7.79V9.234l-13.395-7.79v15.648zm13.922 9.233a.532.532 0 0 1-.265-.072L14.71 17.851a.527.527 0 0 1-.262-.455V.528a.529.529 0 0 1 .792-.456l14.448 8.403a.527.527 0 0 1 .263.456v16.867a.528.528 0 0 1-.527.527z"/>
        <path d="M.527 26.389A.526.526 0 0 1 .07 25.6L14.517.267a.526.526 0 1 1 .915.521L.985 26.122a.527.527 0 0 1-.458.267"/>
        <path d="M29.425 26.325a.526.526 0 0 1-.459-.266L14.517.79a.528.528 0 0 1 .916-.523l14.448 25.27a.528.528 0 0 1-.456.789M14.976 51.53a.527.527 0 0 1-.266-.982l14.45-8.403a.527.527 0 1 1 .528.91L15.24 51.459a.516.516 0 0 1-.264.072"/>
        <path d="M14.975 51.593a.516.516 0 0 1-.265-.071L.262 43.119A.527.527 0 0 1 0 42.664V25.797a.527.527 0 0 1 1.054 0V42.36l14.186 8.25a.527.527 0 0 1-.265.983"/>
        <path d="M.528 43.191a.526.526 0 0 1-.267-.982l28.897-16.93a.527.527 0 0 1 .532.91L.793 43.118a.522.522 0 0 1-.265.072"/>
        <path d="M29.423 43.127a.522.522 0 0 1-.265-.072L.388 26.188a.528.528 0 0 1 .533-.91l28.77 16.867a.527.527 0 0 1-.268.982"/>
    </g>
</svg>
