<svg xmlns="http://www.w3.org/2000/svg" width="205" height="101" viewBox="0 0 205 101">
    <g fill="#FFF" fill-rule="evenodd">
        <path d="M20.015 72.713l-3.9 8.845h7.779l-3.88-8.845zm5.989 13.598l-1.77-3.986h-8.439l-1.747 3.986h-.938l6.287-14.195h1.257l6.288 14.195h-.938zM39.11 79.533h5.713c1.22 0 2.045-.12 2.472-.362.837-.455 1.257-1.442 1.257-2.963 0-1.506-.42-2.486-1.257-2.94-.456-.256-1.28-.384-2.472-.384H39.11v6.649zm5.67.768h-5.67v6.01h-.852V72.116h6.521c.825 0 1.471.04 1.94.117.47.079.888.246 1.257.502.967.653 1.45 1.811 1.45 3.473 0 1.677-.483 2.828-1.45 3.453-.625.426-1.69.64-3.197.64zM62.17 79.533h5.713c1.22 0 2.045-.12 2.472-.362.837-.455 1.257-1.442 1.257-2.963 0-1.506-.42-2.486-1.257-2.94-.456-.256-1.28-.384-2.472-.384H62.17v6.649zm5.67.768h-5.67v6.01h-.852V72.116h6.521c.825 0 1.471.04 1.94.117.469.079.888.246 1.257.502.967.653 1.45 1.811 1.45 3.473 0 1.677-.483 2.828-1.45 3.453-.625.426-1.69.64-3.197.64zM91.325 85.693c1.578 0 2.985-.157 4.22-.47v.81c-1.235.299-2.65.448-4.24.448-1.492 0-2.707-.124-3.645-.374-.938-.247-1.684-.67-2.238-1.267-.554-.597-.934-1.332-1.14-2.205-.206-.875-.31-2.008-.31-3.4 0-1.393.104-2.526.31-3.399.206-.874.586-1.616 1.14-2.227.554-.612 1.3-1.041 2.238-1.29.938-.248 2.153-.373 3.644-.373 1.59 0 3.006.149 4.241.448v.81c-1.307-.313-2.714-.47-4.22-.47-1.363 0-2.454.1-3.27.298-.818.2-1.471.563-1.962 1.088-.49.525-.82 1.183-.991 1.971-.17.789-.255 1.837-.255 3.144 0 1.308.085 2.352.255 3.133.17.781.501 1.435.991 1.96.49.526 1.144.885 1.961 1.077.817.192 1.908.288 3.271.288M117.987 76.017c0-1.393-.376-2.309-1.129-2.75-.413-.255-1.158-.383-2.238-.383h-6.309v6.265h6.202c1.137 0 2-.227 2.59-.681.59-.455.884-1.272.884-2.451m.874.064c0 .81-.192 1.523-.576 2.142-.382.618-.952 1.047-1.705 1.288.669.128 1.184.413 1.546.853.363.44.564 1.2.607 2.28l.043.704c.028.81.092 1.798.192 2.963h-.874a56.49 56.49 0 0 1-.128-2.11l-.043-.725c-.042-1.122-.146-1.911-.309-2.366-.164-.454-.529-.774-1.097-.96-.47-.155-1.152-.233-2.046-.233h-6.16v6.394h-.852V72.116h6.906c1.434 0 2.464.206 3.09.618.938.654 1.406 1.769 1.406 3.347M136.742 72.713l-3.9 8.845h7.778l-3.878-8.845zm5.989 13.598l-1.77-3.986h-8.44l-1.746 3.986h-.939l6.288-14.195h1.256l6.288 14.195h-.937zM165.195 72.116v.768h-9.357v6.137h8.397v.768h-8.397v6.522h-.852V72.116zM188.318 72.116v.768h-5.776v13.427h-.853V72.884h-5.774v-.768zM73.83 100.376V94.7h4.502v.665h-3.7v1.833h3.035v.665h-3.035v1.85h3.7v.664zM84.657 100.376l-3.46-5.012v5.012h-.777V94.7h1.211l3.47 5.03v-5.03h.766v5.677zM89.013 99.711h1.236c.7 0 1.197-.045 1.492-.136.398-.125.661-.34.79-.648.126-.307.19-.77.19-1.389 0-.62-.064-1.083-.19-1.39-.129-.307-.392-.523-.79-.648-.295-.09-.793-.136-1.492-.136h-1.236v4.347zm-.8.665V94.7h2.036c.706 0 1.24.042 1.604.128.63.142 1.07.426 1.316.852.247.426.37 1.046.37 1.859s-.123 1.432-.37 1.858c-.247.427-.686.71-1.316.853-.364.085-.898.127-1.604.127h-2.036zM98.29 95.364v-.665h5.14v.665h-2.174v5.013h-.802v-5.013zM106.67 99.728c.266.057.637.086 1.108.086.471 0 .84-.029 1.103-.086.265-.056.476-.176.635-.357.16-.182.264-.41.311-.683.048-.273.073-.656.073-1.15 0-.495-.022-.877-.068-1.147a1.373 1.373 0 0 0-.307-.682 1.13 1.13 0 0 0-.64-.363c-.266-.056-.636-.084-1.107-.084-.478 0-.85.03-1.117.089-.268.06-.48.18-.639.362-.16.182-.261.408-.307.678-.046.27-.07.652-.07 1.147 0 .494.026.877.074 1.146.048.27.15.498.312.682.159.185.37.306.639.362m1.108.75c-.602 0-1.093-.049-1.47-.148-.379-.1-.678-.272-.9-.516a1.962 1.962 0 0 1-.456-.9c-.083-.354-.125-.814-.125-1.376 0-.563.042-1.022.125-1.378.082-.354.234-.655.456-.898.222-.245.521-.417.9-.517.377-.098.868-.149 1.47-.149.597 0 1.083.05 1.461.15.378.1.678.27.9.516.221.243.374.544.456.898.082.356.124.815.124 1.378 0 .562-.042 1.022-.124 1.376a1.976 1.976 0 0 1-.455.9c-.223.244-.523.416-.9.516-.379.1-.865.149-1.462.149M115.885 100.376V94.7h4.5v.665h-3.699v1.833h3.036v.665h-3.036v1.85h3.7v.664zM126.71 100.376l-3.46-5.012v5.012h-.776V94.7h1.21l3.47 5.03v-5.03h.768v5.677zM131.067 99.711h1.236c.7 0 1.197-.045 1.492-.136.398-.125.66-.34.789-.648.127-.307.192-.77.192-1.389 0-.62-.065-1.083-.192-1.39-.128-.307-.391-.523-.789-.648-.295-.09-.793-.136-1.492-.136h-1.236v4.347zm-.801.665V94.7h2.037c.705 0 1.239.042 1.603.128.631.142 1.07.426 1.318.852.246.426.37 1.046.37 1.859s-.124 1.432-.37 1.858c-.248.427-.687.71-1.318.853-.364.085-.898.127-1.603.127h-2.037zM11.67 97.981H.589A.588.588 0 0 1 0 97.393V61.588C0 61.264.264 61 .588 61h11.083a.588.588 0 0 1 0 1.176H1.176v34.629h10.495a.588.588 0 0 1 0 1.176M203.482 97.981H192.4a.588.588 0 0 1 0-1.176h10.495V62.176H192.4a.588.588 0 0 1 0-1.176h11.083c.325 0 .589.264.589.588v35.805a.588.588 0 0 1-.589.588"/>
        <g>
            <path d="M89.054 9.298v15.648l13.395-7.79V1.508l-13.395 7.79zm-.527 17.09a.529.529 0 0 1-.527-.527V8.994c0-.187.1-.36.262-.455L102.711.136a.528.528 0 0 1 .792.455v16.867c0 .189-.1.362-.263.456l-14.448 8.403a.531.531 0 0 1-.265.071z"/>
            <path d="M103.502 17.092l13.395 7.79V9.234l-13.395-7.79v15.648zm13.922 9.233a.532.532 0 0 1-.265-.072l-14.449-8.402a.527.527 0 0 1-.262-.455V.528a.529.529 0 0 1 .792-.456l14.448 8.403a.527.527 0 0 1 .263.456v16.867a.528.528 0 0 1-.527.527z"/>
            <path d="M88.527 26.389a.526.526 0 0 1-.457-.788L102.517.267a.526.526 0 1 1 .915.521L88.985 26.122a.527.527 0 0 1-.458.267"/>
            <path d="M117.425 26.325a.526.526 0 0 1-.459-.266L102.517.79a.528.528 0 0 1 .916-.523l14.448 25.27a.528.528 0 0 1-.456.789M102.976 51.53a.527.527 0 0 1-.266-.982l14.45-8.403a.527.527 0 1 1 .528.91l-14.448 8.403a.516.516 0 0 1-.264.072"/>
            <path d="M102.975 51.593a.516.516 0 0 1-.265-.071l-14.448-8.403a.527.527 0 0 1-.262-.455V25.797a.527.527 0 0 1 1.054 0V42.36l14.186 8.25a.527.527 0 0 1-.265.983"/>
            <path d="M88.528 43.191a.526.526 0 0 1-.267-.982l28.897-16.93a.527.527 0 0 1 .532.91l-28.897 16.93a.522.522 0 0 1-.265.072"/>
            <path d="M117.423 43.127a.522.522 0 0 1-.265-.072l-28.77-16.867a.528.528 0 0 1 .533-.91l28.77 16.867a.527.527 0 0 1-.268.982"/>
        </g>
    </g>
</svg>
