<svg xmlns="http://www.w3.org/2000/svg" width="16" height="16" viewBox="0 0 16 16">
    <path fill="#FFFFFE" fill-rule="evenodd" d="M8 0C3.582 0 0 3.672 0 8.202c0 3.625 2.292 6.7 5.47 7.784.4.076.548-.178.548-.395 0-.195-.008-.841-.011-1.527-2.226.496-2.696-.968-2.696-.968-.364-.948-.888-1.2-.888-1.2-.726-.509.055-.498.055-.498.803.057 1.226.845 1.226.845.714 1.254 1.872.891 2.328.682.072-.53.28-.892.508-1.097-1.777-.208-3.645-.91-3.645-4.054 0-.895.313-1.627.825-2.202-.083-.206-.357-1.04.077-2.17 0 0 .672-.22 2.2.84A7.49 7.49 0 0 1 8 3.966a7.51 7.51 0 0 1 2.004.276c1.527-1.06 2.198-.84 2.198-.84.435 1.13.161 1.964.078 2.17.513.575.824 1.307.824 2.202 0 3.15-1.872 3.844-3.653 4.047.287.255.542.754.542 1.52 0 1.097-.009 1.98-.009 2.25 0 .219.144.474.55.394C13.71 14.899 16 11.825 16 8.202 16 3.672 12.418 0 8 0"/>
</svg>
