<svg xmlns="http://www.w3.org/2000/svg" width="57" height="42" viewBox="0 0 57 42">
    <g fill="none" fill-rule="evenodd">
        <path fill="#FFF" d="M27.889 10l24.889 32H3z"/>
        <path fill="#1C2A43" d="M27.695 30.244L1.3 10.348v2.6l26.79 20.178L55.109 12.78c.17-.17.452-.17.678-.057.226.057.34.283.34.565v28.091c0 .34-.284.622-.623.622s-.678-.283-.678-.622V14.531L28.43 34.426v.057h-.057c-.056.056-.056.056-.113.056h-.452v-.056h-.113v-.057L.283 13.796A.674.674 0 0 1 0 13.287V9.048c0-.226.113-.452.34-.565.225-.113.508-.056.677.057l27.074 20.347L54.825 8.766v-2.6L28.43 26.005v.056h-.057c-.056.057-.056.057-.113.057h-.113v.056h-.113s-.056 0-.056-.056h-.17v-.057h-.113v-.056L.283 5.375A.674.674 0 0 1 0 4.865V.628C0 .4.113.175.34.062c.225-.113.508-.057.677.056l27.074 20.404L55.108.118a.705.705 0 0 1 .904.17c.226.282.17.678-.113.848l-27.47 20.686-.056.057h-.113v.056h-.395l-.057-.056h-.056v-.057h-.057L1.3 1.927v2.6l26.79 20.178L55.109 4.357c.17-.17.452-.17.678-.056.226.113.34.339.34.565v4.182c0 .226-.057.396-.227.51l-27.47 20.686h-.056v.056h-.113c0 .057-.056.057-.113.057h-.226s-.056 0-.056-.057h-.113v-.056h-.057zm24.078-10.74a.705.705 0 0 1 .904.17.637.637 0 0 1-.113.905L28.43 38.665h-.057c0 .057 0 .057-.056.057h-.057c0 .056-.056.056-.113.056h-.226l-.056-.056h-.113v-.057h-.057L1.3 18.77v22.608c0 .34-.283.622-.678.622A.627.627 0 0 1 0 41.378V17.47c0-.226.113-.452.34-.565.225-.113.508-.113.677.056L28.091 37.31l23.682-17.804z"/>
    </g>
</svg>
