<svg xmlns="http://www.w3.org/2000/svg" width="19" height="16" viewBox="0 0 19 16">
    <path fill="#1C2A43" fill-rule="evenodd" d="M9.226 4.256l.04.692-.686-.084C6.082 4.539 3.9 3.437 2.046 1.587L1.139.669l-.233.678c-.494 1.511-.178 3.107.851 4.18.55.594.426.678-.521.325-.33-.113-.618-.198-.646-.155-.096.099.234 1.384.495 1.892.356.707 1.084 1.399 1.88 1.808l.673.325-.796.014c-.769 0-.796.014-.714.31.274.919 1.36 1.893 2.567 2.317l.851.297-.741.452a7.62 7.62 0 0 1-3.68 1.045C.509 14.17 0 14.227 0 14.27c0 .141 1.675.932 2.65 1.243 2.924.918 6.397.522 9.006-1.046 1.853-1.115 3.706-3.333 4.571-5.48.467-1.143.934-3.234.934-4.236 0-.65.04-.735.81-1.512.453-.452.878-.946.96-1.087.138-.268.124-.268-.576-.028-1.167.423-1.332.367-.755-.269.426-.452.934-1.27.934-1.51 0-.043-.206.027-.44.154-.247.142-.796.354-1.208.48l-.741.24-.673-.465c-.37-.255-.892-.537-1.167-.622-.7-.198-1.77-.17-2.402.057-1.716.635-2.801 2.274-2.677 4.067z"/>
</svg>
