<svg xmlns="http://www.w3.org/2000/svg" width="35" height="42" viewBox="0 0 35 42">
    <g fill="none" fill-rule="evenodd">
        <path fill="#FBC100" d="M7 5h16v32H7z"/>
        <path fill="#1C2A43" d="M.622 42a.642.642 0 0 1-.452-.17.642.642 0 0 1-.17-.452V29.394c0-.339.283-.621.622-.621.395 0 .678.282.678.621V40.7l21.255-.057c3.9 0 6.387-1.752 7.857-3.278 2.035-2.148 3.165-5.144 3.052-7.97v-.057c.113-3.053-1.13-6.162-3.391-8.31-.226-.282-.283-.622-.057-.904 1.809-2.092 2.77-4.805 2.657-7.462v-.113a10.816 10.816 0 0 0-3.166-8.027L1.017 26.116c-.17.17-.452.17-.678.056A.622.622 0 0 1 0 25.607v-4.24c0-.17.113-.339.226-.508L25.55 1.922a9.296 9.296 0 0 0-2.77-.565C21.255 2.374 9.1 11.532 1.018 17.693c-.17.17-.452.17-.678.057A.622.622 0 0 1 0 17.184v-4.183c0-.226.113-.395.226-.565L15.15 1.3h-3.448L1.017 9.27c-.17.17-.452.17-.678.057A.622.622 0 0 1 0 8.762V4.579c0-.226.113-.396.283-.509L3.957 1.3H.622C.282 1.3 0 1.017 0 .622 0 .282.283 0 .622 0h5.257c.283 0 .509.17.622.452.056.226-.057.565-.226.735L1.3 4.861v2.6L11.08.114A.817.817 0 0 1 11.474 0h5.596c.283 0 .51.17.622.452.057.226 0 .565-.226.735L1.3 13.284v2.6c1.809-1.413 5.822-4.409 9.836-7.461C22.272 0 22.328 0 22.668.057a10.61 10.61 0 0 1 4.409 1.13.72.72 0 0 1 .395.509.696.696 0 0 1-.282.565L1.3 21.707v2.6L29.168 3.166c.283-.227.622-.227.848 0 2.6 2.43 4.07 5.935 3.957 9.44.113 2.77-.848 5.596-2.6 7.914 2.26 2.374 3.505 5.652 3.391 8.818.114 3.222-1.187 6.557-3.448 8.931-1.582 1.64-4.409 3.674-8.761 3.674L.622 42z"/>
    </g>
</svg>
