<?xml version="1.0" encoding="UTF-8"?>
<svg width="16px" height="16px" viewBox="0 0 16 16" version="1.1" xmlns="http://www.w3.org/2000/svg" xmlns:xlink="http://www.w3.org/1999/xlink">
    <!-- Generator: Sketch 50.2 (55047) - http://www.bohemiancoding.com/sketch -->
    <title>github-dark</title>
    <desc>Created with Sketch.</desc>
    <defs></defs>
    <g id="Design" stroke="none" stroke-width="1" fill="none" fill-rule="evenodd">
        <g id="Open-page-V2" transform="translate(-1139.000000, -1805.000000)" fill="#1C2A43">
            <g id="Footer" transform="translate(34.000000, 1752.000000)">
                <g id="footer-content" transform="translate(196.000000, 32.000000)">
                    <g id="Group-5" transform="translate(864.000000, 21.000000)">
                        <path d="M53.0000662,0 C48.5823308,0 45,3.6722112 45,8.20247152 C45,11.8265983 47.2922625,14.9012856 50.4709336,15.9859021 C50.8707514,16.0618321 51.0175367,15.8079625 51.0175367,15.5913109 C51.0175367,15.3957132 51.010118,14.7495616 51.0066736,14.0641546 C48.7810474,14.560348 48.3114138,13.0963534 48.3114138,13.0963534 C47.9474974,12.1482479 47.4231505,11.8961441 47.4231505,11.8961441 C46.6973049,11.3870468 47.4778638,11.3975058 47.4778638,11.3975058 C48.2812089,11.4552343 48.7042103,12.2427867 48.7042103,12.2427867 C49.4177355,13.4967854 50.5757235,13.1342505 51.0322418,12.9246621 C51.1040447,12.3946466 51.3113724,12.0325192 51.5401615,11.8278208 C49.7632374,11.6204057 47.8953012,10.9170689 47.8953012,7.7740582 C47.8953012,6.87851951 48.2078162,6.14679391 48.7195777,5.57236146 C48.6365142,5.36562555 48.3626827,4.53148281 48.7970772,3.40163436 C48.7970772,3.40163436 49.4688719,3.18117944 50.9976651,4.24243286 C51.6358104,4.06068999 52.3201904,3.96954688 53.0000662,3.96642275 C53.679942,3.96954688 54.364852,4.06068999 55.0041896,4.24243286 C56.5311281,3.18117944 57.2019954,3.40163436 57.2019954,3.40163436 C57.6374498,4.53148281 57.3634858,5.36562555 57.2804223,5.57236146 C57.7933761,6.14679391 58.1037715,6.87851951 58.1037715,7.7740582 C58.1037715,10.9245397 56.2322583,11.6182324 54.4508301,11.8213008 C54.7377769,12.0758495 54.9934589,12.5750312 54.9934589,13.3403072 C54.9934589,14.4376919 54.9841855,15.3210057 54.9841855,15.5913109 C54.9841855,15.8095925 55.1281888,16.0653637 55.5337032,15.9848155 C58.710652,14.8989765 61,11.8253758 61,8.20247152 C61,3.6722112 57.4181991,0 53.0000662,0" id="github-dark"></path>
                    </g>
                </g>
            </g>
        </g>
    </g>
</svg>