<?xml version="1.0" encoding="UTF-8"?>
<svg width="16px" height="16px" viewBox="0 0 16 16" version="1.1" xmlns="http://www.w3.org/2000/svg" xmlns:xlink="http://www.w3.org/1999/xlink">
    <!-- Generator: Sketch 50.2 (55047) - http://www.bohemiancoding.com/sketch -->
    <title>Artboard</title>
    <desc>Created with Sketch.</desc>
    <defs></defs>
    <g id="Artboard" stroke="none" stroke-width="1" fill="none" fill-rule="evenodd">
        <path d="M13.7981867,9.82713905 C13.7994362,11.2140495 12.8006705,12.4088076 11.4425295,12.6437181 C11.2715276,12.6730667 11.0988495,12.6904381 10.9253181,12.6887924 C10.8668038,12.6881524 10.8438248,12.7115581 10.8252648,12.7651657 C10.5541181,13.5436495 10.0130133,14.0077105 9.19561143,14.124739 C8.65487238,14.2020876 8.16417524,14.0570819 7.73403429,13.7190095 C7.6741181,13.6718933 7.63748571,13.671101 7.57500952,13.7157486 C7.07190857,14.075581 6.50782476,14.234941 5.89184,14.1977295 C4.68982857,14.1251657 3.67844571,13.206461 3.48924952,12.0217905 C3.47623619,11.939901 3.4624,11.8574019 3.46115048,11.7748724 C3.45990095,11.70624 3.43384381,11.6797562 3.36828952,11.6669257 C3.00437333,11.5959771 2.67413333,11.4460952 2.38278095,11.2180419 C1.84658286,10.7982324 1.52487619,10.2500876 1.44999619,9.57205333 C1.3646019,8.79600762 1.60429714,8.12501333 2.15018667,7.56586667 C2.19419429,7.52100571 2.19693714,7.48976762 2.1669181,7.43701333 C1.95705905,7.07062857 1.85758476,6.6737981 1.87373714,6.25298286 C1.91402667,5.20274286 2.64484571,4.33505524 3.66137905,4.12022857 C3.77898667,4.0952381 3.84064,4.04912762 3.89232762,3.93767619 C4.3937219,2.85744762 5.23559619,2.20047238 6.40384,1.98378667 C7.22392381,1.83158857 7.9975619,1.99454476 8.71545905,2.41679238 C8.7758019,2.45238857 8.82633143,2.45525333 8.8916419,2.43623619 C10.0318476,2.10541714 11.0421638,2.34608762 11.8998857,3.16166095 C12.4071314,3.64385524 12.6850438,4.25411048 12.7673295,4.95030857 C12.785341,5.10250667 12.793539,5.25613714 12.7819581,5.4091581 C12.7776,5.46703238 12.7953981,5.49123048 12.8501943,5.51149714 C13.3642057,5.70176 13.7186438,6.05656381 13.8737067,6.58136381 C14.0668343,7.23416381 13.9046095,7.8065981 13.4168076,8.28257524 C13.3745371,8.32390095 13.3834667,8.34919619 13.407421,8.39049143 C13.665219,8.83462095 13.7987657,9.31267048 13.7981867,9.82713905 Z M8.7105219,9.60444952 C8.71094857,10.19456 9.08976762,10.7161295 9.62697143,10.8933486 C9.8961981,10.9822476 10.1738971,11.0244267 10.4557714,11.0368305 C10.6570057,11.0455162 10.8579048,11.0314667 11.04384,10.9387886 C11.1900343,10.8657981 11.2589105,10.7452343 11.2522971,10.5845943 C11.2456838,10.4228876 11.1732724,10.3019581 11.0186057,10.2375924 C10.9648457,10.2152533 10.9102629,10.197059 10.853181,10.1871543 C10.6825752,10.1567086 10.5111467,10.1310781 10.3413943,10.0974324 C10.0612267,10.0416305 9.94374095,9.89333333 9.94002286,9.61002667 C9.9367619,9.35942095 10.0047543,9.12304762 10.081859,8.88920381 C10.2229029,8.46116571 10.4130743,8.05321143 10.5953219,7.64190476 C10.771261,7.24470857 10.9557029,6.85077333 11.0799848,6.43242667 C11.1484343,6.20269714 11.1811048,5.9723581 11.1188724,5.73476571 C11.0241524,5.37414095 10.8080457,5.13243429 10.4354133,5.0629181 C10.0942629,4.99943619 9.75469714,4.99221333 9.44618667,5.19567238 C9.34360381,5.26308571 9.24495238,5.24696381 9.15590095,5.16836571 C9.0878781,5.1086019 9.02314667,5.04533333 8.95655619,4.98392381 C8.64185905,4.69339429 8.2257981,4.67913143 7.88793905,4.94445714 C7.75161905,5.05155048 7.63690667,5.18433524 7.48882286,5.27737905 C7.35649524,5.36048762 7.22307048,5.38404571 7.07654095,5.30590476 C6.93696,5.23145143 6.7924419,5.16592762 6.64828952,5.10058667 C6.5022781,5.03463619 6.3608381,4.95317333 6.19648,4.93930667 C5.67661714,4.89505524 5.13258667,5.20399238 4.90325333,5.6736 C4.80149333,5.88141714 4.71841524,6.09731048 4.63963429,6.31460571 C4.27587048,7.3191619 3.97958095,8.34520381 3.67292952,9.36771048 C3.53560381,9.82534095 3.69767619,10.2756571 4.08518095,10.522819 C4.38750476,10.7154895 4.71853714,10.7631238 5.0612419,10.6601448 C5.33888,10.576579 5.49092571,10.3530971 5.59719619,10.1020343 C5.95035429,9.26915048 6.26840381,8.42212571 6.60504381,7.58262857 C6.69769143,7.35161905 6.78738286,7.11963429 6.88566857,6.89112381 C6.98489905,6.66038857 7.27003429,6.58179048 7.43917714,6.73481143 C7.54243048,6.82822095 7.56964571,6.95256381 7.55952762,7.08550095 C7.54840381,7.22758095 7.49336381,7.35862857 7.44167619,7.48912762 C7.22264381,8.04288 6.9995581,8.59501714 6.77955048,9.14834286 C6.73508571,9.26025143 6.68690286,9.37124571 6.66724571,9.49135238 C6.63356952,9.69758476 6.71521524,9.88038095 6.88390095,9.95312762 C7.056,10.0273981 7.23465143,10.0398019 7.41305905,9.97504 C7.62066286,9.89979429 7.74473143,9.73726476 7.84030476,9.54947048 C8.16868571,8.90459429 8.49453714,8.25813333 8.82270476,7.61322667 C8.97429333,7.31529143 9.12853333,7.0187581 9.28338286,6.72259048 C9.3409219,6.61281524 9.40833524,6.5088 9.51582476,6.44056381 C9.61286095,6.37915429 9.71742476,6.37458286 9.81689905,6.43044571 C9.91396571,6.48481524 9.92045714,6.58410667 9.91637333,6.6821181 C9.91414857,6.73481143 9.8993981,6.78631619 9.87913143,6.8353219 C9.83658667,6.93723429 9.79684571,7.04067048 9.74966857,7.14057143 C9.47672381,7.71477333 9.19963429,8.28675048 8.92912762,8.8622019 C8.81511619,9.10506667 8.6964419,9.34908952 8.7105219,9.60444952 Z M12.5390629,13.836221 C12.5397029,13.4553295 12.2204343,13.1368533 11.8364038,13.1358171 C11.4428952,13.1343848 11.1236571,13.4492952 11.1219505,13.839939 C11.1203048,14.2218057 11.4449981,14.5458286 11.8289676,14.5463162 C12.2183619,14.5467124 12.5384533,14.2266514 12.5390629,13.836221 Z M0.668373333,7.99939048 C1.03872,8.00021333 1.35033905,7.69066667 1.34887619,7.3236419 C1.3472,6.95600762 1.04222476,6.65118476 0.674986667,6.65014857 C0.298605714,6.64914286 -0.000213333333,6.94774857 8.76336052e-16,7.32470857 C0.000304761905,7.69770667 0.29824,7.99856762 0.668373333,7.99939048 Z M8.9611581,0.450011429 C8.58895238,0.447939048 8.28559238,0.745508571 8.28348952,1.11439238 C8.28123429,1.48288 8.58352762,1.78563048 8.95387429,1.78602667 C9.3227581,1.78624 9.61904762,1.49074286 9.6197181,1.12161524 C9.6206019,0.750689524 9.32757333,0.451870476 8.9611581,0.450011429 Z M14.4412648,4.62598095 C14.439619,4.3201219 14.1788648,4.06000762 13.8717867,4.05793524 C13.5583086,4.05568 13.2927695,4.32057905 13.2948724,4.63341714 C13.2970971,4.94546286 13.5502324,5.1956419 13.8641371,5.19606857 C14.18752,5.19670857 14.4430933,4.94403048 14.4412648,4.62598095 Z M2.70022095,2.99279238 C2.70022095,3.28003048 2.92376381,3.5054019 3.20911238,3.50582857 C3.49814857,3.50622476 3.7223619,3.27963429 3.72132571,2.98825143 C3.72028952,2.70561524 3.49635048,2.48454095 3.21200762,2.48539429 C2.91958857,2.48597333 2.70037333,2.70329905 2.70022095,2.99279238 Z M8.04592762,14.8395276 C8.04839619,14.6002895 7.85155048,14.403261 7.6096,14.4024076 C7.36124952,14.4016457 7.1662019,14.5941029 7.1668419,14.8391314 C7.1674819,15.0808381 7.36152381,15.27232 7.60551619,15.27232 C7.84929524,15.2725333 8.04382476,15.0814476 8.04592762,14.8395276 Z M14.8718019,8.04202667 C14.63936,8.04035048 14.4377295,8.24198095 14.4395886,8.47420952 C14.4416,8.70369524 14.6331733,8.89209905 14.8651581,8.89255619 C15.1083581,8.89301333 15.2907581,8.71393524 15.2913371,8.4736 C15.2920076,8.23576381 15.1052495,8.04367238 14.8718019,8.04202667 Z M4.66276571,0.026727619 C4.45784381,0.0259047619 4.29967238,0.182430476 4.29967238,0.386346667 C4.29967238,0.588982857 4.45948952,0.746544762 4.66422857,0.745508571 C4.86293333,0.744472381 5.01863619,0.586057143 5.01863619,0.384853333 C5.01866667,0.181790476 4.8654019,0.0277638095 4.66276571,0.026727619 Z M15.6827733,6.11065905 C15.5157333,6.10876952 15.3643581,6.25828571 15.3622552,6.4276419 C15.36,6.60278857 15.5057676,6.74855619 15.6835962,6.74898286 C15.8602057,6.74962286 15.99872,6.61229714 15.9999695,6.43489524 C16.0016457,6.25645714 15.8609981,6.11291429 15.6827733,6.11065905 Z M3.03353905,12.4191695 C3.03433143,12.2496 2.88813714,12.103619 2.71591619,12.1020038 C2.54134857,12.1005105 2.39783619,12.2473752 2.39908571,12.4260267 C2.4005181,12.6005638 2.54217143,12.7384381 2.7185981,12.737219 C2.89170286,12.7361524 3.03296,12.5936762 3.03353905,12.4191695 Z" id="Shape" fill="#1C2A43" fill-rule="nonzero"></path>
    </g>
</svg>