<?xml version="1.0" encoding="UTF-8"?>
<svg width="33px" height="42px" viewBox="0 0 33 42" version="1.1" xmlns="http://www.w3.org/2000/svg" xmlns:xlink="http://www.w3.org/1999/xlink">
    <!-- Generator: Sketch 50.2 (55047) - http://www.bohemiancoding.com/sketch -->
    <title>news-icon</title>
    <desc>Created with Sketch.</desc>
    <defs></defs>
    <g id="Design" stroke="none" stroke-width="1" fill="none" fill-rule="evenodd">
        <g id="Open-page-V2" transform="translate(-814.000000, -609.000000)">
            <g id="Blog-card" transform="translate(730.000000, 576.000000)">
                <g id="news-icon" transform="translate(84.000000, 33.000000)">
                    <polygon id="Rectangle-7" fill="#FBC100" points="11 0 22.2682927 8.64705882 22.2682927 42 11 33.3529412"></polygon>
                    <path d="M31.8011558,25.0437805 L1.29227312,1.92680134 L1.29227312,4.52675499 L32.5315711,28.2089415 C32.7001284,28.321983 32.8125,28.5480659 32.8125,28.7176281 L32.8125,32.956683 C32.8125,33.1827659 32.6439426,33.4088488 32.4191995,33.5218903 C32.2506421,33.6349317 31.9697132,33.578411 31.8011558,33.4653695 L1.29227312,10.3483903 L1.29227312,12.948344 L32.5315711,36.6305305 C32.7001284,36.743572 32.8125,36.9696549 32.8125,37.1392171 L32.8125,41.378272 C32.8125,41.6043549 32.6439426,41.8304378 32.4191995,41.9434793 C32.3630137,42 32.2506421,42 32.1382705,42 C32.025899,42 31.9135274,41.9434793 31.8011558,41.8869585 L1.29227312,18.7699793 L1.29227312,41.378272 C1.29227312,41.7173963 1.01134418,42 0.618043664,42 C0.280928938,42 0,41.7173963 0,41.378272 L0,17.4700025 C0,17.2439196 0.112371575,17.0178367 0.337114726,16.9047952 C0.561857877,16.7917537 0.842786815,16.7917537 1.01134418,16.9613159 L31.5202269,40.0782951 L31.5202269,37.4783415 L0.280928938,13.796155 C0.112371575,13.6831135 0,13.4570306 0,13.2874684 L0,9.04841352 C0,8.82233059 0.112371575,8.59624766 0.337114726,8.4832062 C0.561857877,8.37016474 0.842786815,8.42668547 1.01134418,8.53972693 L31.5202269,31.6567061 L31.5202269,29.0567525 L0.280928938,5.37456597 C0.112371575,5.2615245 0,5.03544158 0,4.86587938 L0,0.626824518 C0,0.400741592 0.112371575,0.174658666 0.337114726,0.0616172027 C0.561857877,-0.0514242603 0.842786815,0.00509647118 1.01134418,0.118137934 L31.5202269,23.2351171 L31.5202269,0.626824518 C31.5202269,0.287700129 31.8011558,0.00509647118 32.1382705,0.00509647118 C32.5315711,0.00509647118 32.8125,0.287700129 32.8125,0.626824518 L32.8125,24.535094 C32.8125,24.7611769 32.6439426,24.9872598 32.4191995,25.1003013 C32.2506421,25.2133427 31.9697132,25.2133427 31.8011558,25.0437805 Z" id="N" fill="#1C2A43"></path>
                </g>
            </g>
        </g>
    </g>
</svg>