<svg xmlns="http://www.w3.org/2000/svg" width="50" height="64" viewBox="0 0 50 64">
    <path fill="#FFF" fill-rule="evenodd" d="M48.459 38.162L1.969 2.936v3.962l47.603 36.087c.257.172.428.517.428.775v6.46c0 .344-.257.689-.6.861-.256.172-.684.086-.941-.086L1.969 15.769v3.962l47.603 36.087c.257.172.428.517.428.775v6.46c0 .344-.257.689-.6.86-.085.087-.256.087-.427.087-.172 0-.343-.086-.514-.172L1.969 28.602v34.45c0 .517-.428.948-1.027.948A.953.953 0 0 1 0 63.053V26.62c0-.345.171-.69.514-.861.342-.173.77-.173 1.027.086l46.49 35.226V57.11L.428 21.023C.171 20.85 0 20.506 0 20.248v-6.46c0-.344.171-.689.514-.861.342-.172.77-.086 1.027.086l46.49 35.226v-3.962L.428 8.19C.171 8.018 0 7.673 0 7.415V.955C0 .611.171.266.514.094c.342-.172.77-.086 1.027.086l46.49 35.226V.956c0-.518.428-.948.942-.948.599 0 1.027.43 1.027.947v36.432c0 .344-.257.689-.6.861-.256.172-.684.172-.941-.086z"/>
</svg>
