<svg xmlns="http://www.w3.org/2000/svg" width="35" height="42" viewBox="0 0 35 42">
    <g fill="none" fill-rule="evenodd">
        <circle cx="15.5" cy="24.5" r="11.5" fill="#FBC100"/>
        <path fill="#1C2A43" d="M22.834 29c5.2-.621 10.456-4.916 10.456-11.812v-3.956c0-4.239-1.922-7.008-3.561-8.59-2.317-2.205-5.595-3.505-8.76-3.336H1.298V17.02l31.651 23.85c.227.114.34.453.227.679-.114.282-.34.452-.622.452h-5.652c-.113 0-.283-.057-.396-.113L1.3 22.84v2.6l20.403 15.43c.226.113.34.452.226.678-.056.282-.339.452-.621.452h-5.54a.817.817 0 0 1-.395-.113L1.3 31.261v10.117c0 .34-.283.622-.678.622A.627.627 0 0 1 0 41.378V29.961c0-.226.113-.452.34-.565.225-.113.508-.056.677.057L15.938 40.7h3.448L.283 26.288A.594.594 0 0 1 0 25.779v-4.182c0-.283.113-.509.34-.622.225-.113.508-.057.677.057L27.13 40.7h3.504L.283 17.866A.594.594 0 0 1 0 17.358V.628C0 .29.283.007.622.007h20.346c3.448-.113 7.065 1.243 9.665 3.73 1.809 1.752 3.956 4.804 3.956 9.495v3.956c0 7.63-5.82 12.378-11.586 13.113h-.056a.671.671 0 0 1-.679-.566c0-.339.226-.678.566-.734z"/>
    </g>
</svg>
