<svg xmlns="http://www.w3.org/2000/svg" width="61" height="42" viewBox="0 0 61 42">
    <g fill="none" fill-rule="evenodd">
        <path fill="#FFF" d="M29.93 6l18 13.75L41.055 42h-22.25L11.93 19.75z"/>
        <path fill="#1C2A43" d="M19.338 42c-.113 0-.17 0-.283-.057-.339-.17-.452-.508-.282-.847L37.027 1.31H34.71L18.038 37.535a.622.622 0 0 1-.565.34c-.283 0-.509-.114-.622-.34l-1.865-4.125a.513.513 0 0 1 0-.565L29.454 1.31h-2.317L14.252 29.284c-.113.226-.34.396-.566.396a.695.695 0 0 1-.621-.396L.067.914c-.17-.339 0-.678.339-.847.282-.17.678 0 .847.339l12.433 27.07L26.12.406A.695.695 0 0 1 26.74.01h3.73c.226 0 .396.113.509.283.113.17.17.452.056.621l-14.75 32.213 1.187 2.6L33.693.406c.112-.226.339-.396.565-.396h3.73c.226 0 .452.113.565.283.113.17.113.452.056.621l-18.706 40.69a.588.588 0 0 1-.565.396zm22.153 0c-.113 0-.17 0-.282-.057-.283-.17-.452-.508-.283-.847L59.18 1.31h-2.317L40.192 37.535a.622.622 0 0 1-.566.34c-.282 0-.508-.114-.621-.34L37.14 33.41a.963.963 0 0 1 0-.565L51.607 1.31H49.29L36.405 29.284c-.113.226-.339.396-.565.396-.283 0-.509-.17-.565-.396L32.11 22.39c-.17-.34-.056-.679.283-.848.339-.17.734 0 .847.282l2.6 5.652L48.273.406a.695.695 0 0 1 .622-.396h3.73c.226 0 .395.113.508.283.113.17.17.452.057.621L38.44 33.127l1.186 2.6L55.846.406a.695.695 0 0 1 .622-.396h3.73c.17 0 .395.113.508.283.113.17.17.452.057.621l-18.706 40.69a.588.588 0 0 1-.566.396z"/>
    </g>
</svg>
