<?xml version="1.0" encoding="UTF-8"?>
<svg width="35px" height="42px" viewBox="0 0 35 42" version="1.1" xmlns="http://www.w3.org/2000/svg" xmlns:xlink="http://www.w3.org/1999/xlink">
    <!-- Generator: Sketch 50.2 (55047) - http://www.bohemiancoding.com/sketch -->
    <title>R</title>
    <desc>Created with Sketch.</desc>
    <defs></defs>
    <g id="Design" stroke="none" stroke-width="1" fill="none" fill-rule="evenodd">
        <g id="Open-page-V2" transform="translate(-263.000000, -1017.000000)" fill="#1C2A43">
            <g id="Recommendation-card" transform="translate(230.000000, 985.000000)">
                <g id="Group-4" transform="translate(32.000000, 32.000000)">
                    <g id="Recommendation-icon" transform="translate(1.000000, 0.000000)">
                        <path d="M22.8335902,29.0006789 C28.0333186,28.3789722 33.2895659,24.0835443 33.2895659,17.1882522 L33.2895659,13.2319371 C33.2895659,8.99302805 31.3679271,6.22360746 29.7288823,4.6410814 C27.411612,2.43684869 24.1335223,1.13691657 20.9684702,1.30647294 L1.29993211,1.30647294 L1.29993211,17.0186959 L32.9504532,40.8696242 C33.1765283,40.9826618 33.2895659,41.3217745 33.1765283,41.5478497 C33.0634907,41.8304436 32.8374156,42 32.5548217,42 L26.9029429,42 C26.7899053,42 26.620349,41.9434812 26.5073114,41.8869624 L1.29993211,22.840131 L1.29993211,25.4399952 L21.7032144,40.8696242 C21.9292896,40.9826618 22.0423272,41.3217745 21.9292896,41.5478497 C21.8727708,41.8304436 21.5901769,42 21.3075829,42 L15.7687417,42 C15.5991854,42 15.4861478,41.9434812 15.3731102,41.8869624 L1.29993211,31.2614304 L1.29993211,41.3782933 C1.29993211,41.7174061 1.01733818,42 0.621706663,42 C0.282593938,42 0,41.7174061 0,41.3782933 L0,29.9614982 C0,29.7354231 0.113037575,29.5093479 0.339112726,29.3963104 C0.565187876,29.2832728 0.847781814,29.3397916 1.01733818,29.4528292 L15.9382981,40.7000679 L19.3859441,40.7000679 L0.282593938,26.2877771 C0.113037575,26.1747395 0,26.0051831 0,25.779108 L0,21.5967177 C0,21.3141237 0.113037575,21.0880486 0.339112726,20.975011 C0.565187876,20.8619734 0.847781814,20.9184922 1.01733818,21.0315298 L27.129018,40.7000679 L30.6331829,40.7000679 L0.282593938,17.8664777 C0.113037575,17.7534401 0,17.5838838 0,17.3578086 L0,0.628247486 C0,0.28913476 0.282593938,0.00654082224 0.621706663,0.00654082224 L20.9684702,0.00654082224 C24.4161162,-0.106496753 28.0333186,1.24995415 30.6331829,3.7367808 C32.4417841,5.48886322 34.589498,8.54087775 34.589498,13.2319371 L34.589498,17.1882522 C34.589498,24.8182886 28.7680629,29.5658667 23.0031465,30.300611 L22.9466278,30.300611 C22.607515,30.300611 22.3249211,30.0745358 22.2684023,29.7354231 C22.2684023,29.3963104 22.4944775,29.0571976 22.8335902,29.0006789 Z" id="R"></path>
                    </g>
                </g>
            </g>
        </g>
    </g>
</svg>